<svg width="23" height="26" viewBox="0 0 23 26" fill="none" xmlns="http://www.w3.org/2000/svg">
<path fill-rule="evenodd" clip-rule="evenodd" d="M5.45778 10.1399C2.89552 9.30119 0.987455 6.75151 0.983261 4.75119C0.983261 3.60216 1.28939 2.31893 2.46778 2.31893C3.24778 2.31893 3.52036 3.59797 4.48487 4.28571C4.42616 3.78668 4.35487 3.26668 4.271 2.81797C3.8181 2.09668 3.28971 1.48022 2.46778 1.48022C0.790358 1.48022 0.140358 3.06958 0.144551 4.75119C0.144551 7.26732 2.56423 10.3664 5.80165 11.1044C5.67165 10.7899 5.55842 10.4838 5.45778 10.1399Z" fill="url(#paint0_linear_558_17712)"/>
<path fill-rule="evenodd" clip-rule="evenodd" d="M20.5253 1.48022C19.6614 1.48022 19.1875 2.11764 18.7095 2.83474C18.6717 3.11151 18.6382 3.19539 18.5082 4.28571C19.4643 3.58958 19.7369 2.31893 20.5253 2.31893C21.6953 2.31893 22.0098 3.60216 22.0098 4.75119C22.0098 6.75151 20.0975 9.28861 17.5353 10.1399C17.4346 10.467 17.3214 10.7899 17.1914 11.1044C20.4288 10.3664 22.8401 7.25893 22.8485 4.75539C22.8527 3.06119 22.2069 1.48022 20.5253 1.48022Z" fill="url(#paint1_linear_558_17712)"/>
<rect x="9.81836" y="22.6453" width="3.35484" height="0.83871" fill="url(#paint2_linear_558_17712)"/>
<path fill-rule="evenodd" clip-rule="evenodd" d="M16.9476 25.1612H16.1089V20.5483H6.88306V25.1612H6.04435C5.81275 25.1612 5.625 25.349 5.625 25.5806C5.625 25.8122 5.81275 26 6.04435 26H16.9476C17.1792 26 17.3669 25.8122 17.3669 25.5806C17.3669 25.349 17.1792 25.1612 16.9476 25.1612ZM8.97984 22.2258C8.97984 21.9942 9.16759 21.8064 9.39919 21.8064H13.5927C13.8243 21.8064 14.0121 21.9942 14.0121 22.2258V23.9032C14.0121 24.1348 13.8243 24.3225 13.5927 24.3225H9.39919C9.16759 24.3225 8.97984 24.1348 8.97984 23.9032V22.2258Z" fill="url(#paint3_linear_558_17712)"/>
<path fill-rule="evenodd" clip-rule="evenodd" d="M13.5939 19.7097C13.5939 19.0149 13.0307 18.4516 12.3359 18.4516V17.0552C11.792 17.2399 11.2023 17.2399 10.6585 17.0552V18.4516C9.96365 18.4516 9.40039 19.0149 9.40039 19.7097H13.5939Z" fill="url(#paint4_linear_558_17712)"/>
<path fill-rule="evenodd" clip-rule="evenodd" d="M13.257 14.8828C12.1003 15.1702 10.891 15.1702 9.73438 14.8828C10.0908 16.8202 12.9173 16.8286 13.257 14.8828Z" fill="url(#paint5_linear_558_17712)"/>
<path fill-rule="evenodd" clip-rule="evenodd" d="M3.94865 0.83871H3.89414C6.74575 0.83871 3.41607 14.2581 11.497 14.2581C19.578 14.2581 16.2483 0.83871 19.0999 0.83871H19.0454C19.277 0.83871 19.4648 0.650958 19.4648 0.419355C19.4648 0.187752 19.277 0 19.0454 0H3.94865C3.71705 0 3.5293 0.187752 3.5293 0.419355C3.5293 0.650958 3.71705 0.83871 3.94865 0.83871Z" fill="url(#paint6_linear_558_17712)"/>
<defs>
<linearGradient id="paint0_linear_558_17712" x1="0.380966" y1="3.10042" x2="0.558602" y2="12.722" gradientUnits="userSpaceOnUse">
<stop stop-color="#1F345D"/>
<stop offset="1" stop-color="#080E1B"/>
</linearGradient>
<linearGradient id="paint1_linear_558_17712" x1="17.4278" y1="3.10042" x2="17.6055" y2="12.722" gradientUnits="userSpaceOnUse">
<stop stop-color="#1F345D"/>
<stop offset="1" stop-color="#080E1B"/>
</linearGradient>
<linearGradient id="paint2_linear_558_17712" x1="9.95857" y1="22.7865" x2="9.96085" y2="23.6252" gradientUnits="userSpaceOnUse">
<stop stop-color="#1F345D"/>
<stop offset="1" stop-color="#080E1B"/>
</linearGradient>
<linearGradient id="paint3_linear_558_17712" x1="6.11575" y1="21.4661" x2="6.14321" y2="26.9179" gradientUnits="userSpaceOnUse">
<stop stop-color="#1F345D"/>
<stop offset="1" stop-color="#080E1B"/>
</linearGradient>
<linearGradient id="paint4_linear_558_17712" x1="9.57566" y1="17.5021" x2="9.59389" y2="20.1566" gradientUnits="userSpaceOnUse">
<stop stop-color="#1F345D"/>
<stop offset="1" stop-color="#080E1B"/>
</linearGradient>
<linearGradient id="paint5_linear_558_17712" x1="9.8816" y1="15.128" x2="9.88813" y2="16.5842" gradientUnits="userSpaceOnUse">
<stop stop-color="#1F345D"/>
<stop offset="1" stop-color="#080E1B"/>
</linearGradient>
<linearGradient id="paint6_linear_558_17712" x1="4.19531" y1="2.4003" x2="4.33375" y2="16.6579" gradientUnits="userSpaceOnUse">
<stop stop-color="#1F345D"/>
<stop offset="1" stop-color="#080E1B"/>
</linearGradient>
</defs>
</svg>
