<svg width="0" height="0" class="hidden">
    <svg viewBox="0 0 24 23" fill="none" xmlns="http://www.w3.org/2000/svg" id="pencil">
      <path d="M14.5 3.67175L19.5 8.67175" stroke-width="2"/>
      <path d="M3 15.1718L8 20.1718" stroke-width="2"/>
      <path fill-rule="evenodd" clip-rule="evenodd" d="M8 20.1717L2 21.1717L3 15.1718L16.586 1.58575C17.367 0.80475 18.633 0.80475 19.414 1.58575L21.586 3.75775C22.367 4.53875 22.367 5.80475 21.586 6.58575L8 20.1717Z" stroke-width="2" stroke-linecap="square"/>
    </svg>
    
    <symbol fill="none" xmlns="http://www.w3.org/2000/svg" viewBox="0 0 24 23" id="edit">
      <path d="M14.5 3.67175L19.5 8.67175"></path>
      <path d="M3 15.1718L8 20.1718"></path>
      <path fill-rule="evenodd" clip-rule="evenodd" d="M8 20.1717L2 21.1717L3 15.1718L16.586 1.58575C17.367 0.80475 18.633 0.80475 19.414 1.58575L21.586 3.75775C22.367 4.53875 22.367 5.80475 21.586 6.58575L8 20.1717Z" stroke-linecap="square"></path>
    </symbol>
    <symbol fill="none" xmlns="http://www.w3.org/2000/svg" viewBox="0 0 71 70" id="facebook">
      <circle cx="35.4549" cy="35" r="35" fill="#1977F3"></circle>
      <path d="M47.4219 45.2661L49.0269 35.2061H38.9789V28.6789C38.9789 25.9291 40.3801 23.2428 44.8844 23.2428H49.4549V14.6801C49.4549 14.6801 45.3073 14 41.3431 14C33.0683 14 27.6571 18.8147 27.6571 27.5388V35.2061H18.4549V45.2661H27.6571V69.5792C29.5016 69.8581 31.3919 70 33.318 70C35.244 70 37.1344 69.8532 38.9789 69.5792V45.2661H47.4219Z" fill="white"></path>
    </symbol>
    <symbol fill="none" xmlns="http://www.w3.org/2000/svg" viewBox="0 0 28 28" id="home">
      <path d="M23.4545 10.3035V26.7286H4.54541V10.3035"></path>
      <path d="M27 12.65L14 2.09094L1 12.65"></path>
    </symbol>
    <symbol fill="none" xmlns="http://www.w3.org/2000/svg" viewBox="0 0 126 126" id="logo">
      <path d="M87 33.223V58H126C125.144 46.91 121.503 36.2329 115.428 27H93.0923C89.7297 27.0053 87.0052 29.7883 87 33.223Z" fill="white"></path>
      <path d="M87 68V92.777C87.0052 96.2117 89.7284 98.9947 93.0894 99H115.414C121.493 89.769 125.139 79.0918 126 68H87Z" fill="white"></path>
      <path d="M32.4436 17.6658C41.3694 17.6761 48.6027 24.955 48.6129 33.9371V58H76.3871V33.9371C76.3973 24.955 83.6306 17.6761 92.5564 17.6658H106C81.7231 -5.88861 43.2769 -5.88861 19 17.6658H32.4436Z" fill="white"></path>
      <path d="M92.5564 108.334C83.6306 108.324 76.3973 101.045 76.3871 92.0629V68H48.6129V92.0629C48.6027 101.045 41.3694 108.324 32.4436 108.334H19C43.2769 131.889 81.7231 131.889 106 108.334H92.5564Z" fill="white"></path>
      <path d="M39 92.777V68H0C0.861667 79.0918 4.50956 89.769 10.5912 99H32.9077C36.2703 98.9947 38.9948 96.2117 39 92.777Z" fill="white"></path>
      <path d="M39 33.223C38.9948 29.7883 36.2703 27.0053 32.9077 27H10.5912C4.50956 36.231 0.861667 46.9082 0 58H39V33.223Z" fill="white"></path>
    </symbol>
    <symbol fill="none" xmlns="http://www.w3.org/2000/svg" viewBox="0 0 20 19" id="menu">
      <path d="M0 1.5H20"></path>
      <path d="M0 9.5H20"></path>
      <path d="M0 17.5H20"></path>
    </symbol>
    <symbol fill="none" xmlns="http://www.w3.org/2000/svg" viewBox="0 0 29 29" id="message">
      <path fill-rule="evenodd" clip-rule="evenodd" d="M24 14.5C24 9.25329 19.7467 5 14.5 5C9.25329 5 5 9.25329 5 14.5C5 19.7467 9.25329 24 14.5 24H24L21.34 21.08C23.0497 19.3168 24.004 16.956 24 14.5Z"></path>
      <path d="M17.3501 14.5H19.2501"></path>
      <path d="M13.5498 14.5H15.4498"></path>
      <path d="M9.75 14.5H11.65"></path>
    </symbol>
    <symbol fill="none" xmlns="http://www.w3.org/2000/svg" viewBox="0 0 29 29" id="notifications">
      <path fill-rule="evenodd" clip-rule="evenodd" d="M23.09 17.36V12.59C23.0845 7.84816 19.2418 4.00551 14.5 4C9.75816 4.00551 5.91551 7.84816 5.91 12.59V17.36L4 19.27V21.18H25V19.27L23.09 17.36Z"></path>
      <path d="M17.19 21.1801C17.313 21.4986 17.3708 21.8387 17.36 22.1801C17.36 23.7596 16.0795 25.0401 14.5 25.0401C12.9204 25.0401 11.64 23.7596 11.64 22.1801C11.6291 21.8387 11.6869 21.4986 11.81 21.1801"></path>
    </symbol>
    <symbol fill="none" viewBox="0 0 29 29" xmlns="http://www.w3.org/2000/svg" id="teams">
      <path d="M12 19L14.5 17L17 19" />
      <path d="M14.5 15V17" />
      <path fill-rule="evenodd" clip-rule="evenodd" d="M14.5 6C16.433 6 18 7.65863 18 9.70466V11H11V9.70466C11 7.65863 12.567 6 14.5 6V6Z"/>
      <circle cx="14.5" cy="3.5" r="2.5" />
      <path fill-rule="evenodd" clip-rule="evenodd" d="M24.5061 23C26.4357 23 28 24.6586 28 26.7047V28H21V26.7047C21 25.7199 21.3698 24.7756 22.0277 24.0805C22.6855 23.3854 23.5774 22.9966 24.5061 23V23Z"/>
      <circle cx="24.5" cy="20.5" r="2.5" />
      <path fill-rule="evenodd" clip-rule="evenodd" d="M4.5 23C5.42826 23 6.3185 23.3903 6.97487 24.0851C7.63125 24.7798 8 25.7221 8 26.7047V28H1V26.7047C1 24.6586 2.567 23 4.5 23Z" />
      <circle cx="4.5" cy="20.5" r="2.5" />
    </symbol>
    <symbol fill="none" xmlns="http://www.w3.org/2000/svg" viewBox="0 0 29 32" id="achievement">
    <path d="M4.63014 6.23902C5.23502 11.1908 9.53426 14.8524 14.5192 14.6615C19.5041 14.4706 23.5106 10.4908 23.735 5.50732V2.40488C23.735 2.03228 23.587 1.67494 23.3235 1.41148C23.0601 1.14801 22.7027 1 22.3301 1H5.50087C5.50087 1 4.38867 1.13902 4.38867 2.73415"/>
    <path d="M20.9097 30.2683C20.9097 26.5384 17.8859 23.5146 14.156 23.5146C10.4261 23.5146 7.40234 26.5384 7.40234 30.2683H16.4243"/>
    <path d="M18.0115 16.2342C18.0115 17.1111 17.3006 17.822 16.4237 17.822H11.8651C10.9882 17.822 10.2773 17.1111 10.2773 16.2342C10.2773 15.3572 10.9882 14.6464 11.8651 14.6464H14.1408"/>
    <path d="M12.569 23.5512V17.8146"/>
    <path d="M23.7344 2.74146C25.6021 2.74947 27.1142 4.26156 27.1222 6.12926C27.1061 7.43202 26.3474 8.61118 25.1685 9.16585" />
    <path d="M4.3878 2.74146C2.5201 2.74947 1.00802 4.26156 1 6.12926C1.01613 7.43202 1.77477 8.61118 2.95366 9.16585"/>   
    </symbol>
    <symbol fill="none" xmlns="http://www.w3.org/2000/svg" viewBox="0 0 23 23" id="search">
      <circle cx="8.64" cy="8.64" r="7.64"></circle>
      <path d="M22.0001 21.9999L13.8901 13.8899"></path>
    </symbol>
    
    <symbol fill="none" viewBox="0 0 31 31"  xmlns="http://www.w3.org/2000/svg" id="organizations">
      <rect x="1" y="11.5505" width="7.91286" height="7.91286" rx="2.86" />
      <path fill-rule="evenodd" clip-rule="evenodd" d="M24.7246 1H29.9998V6.27524H24.7246V1Z" />
      <path fill-rule="evenodd" clip-rule="evenodd" d="M24.7246 12.8624H29.9998V18.1377H24.7246V12.8624Z" />
      <path fill-rule="evenodd" clip-rule="evenodd" d="M24.7246 24.7247H29.9998V30H24.7246V24.7247Z" />
      <path d="M24.7252 27.3623H16.8262V3.63757H24.7252" />
      <path d="M24.724 15.5H8.91211" />
    </symbol>

    <symbol fill="none" xmlns="http://www.w3.org/2000/svg" viewBox="0 0 28 29" id="calendar">
      <path fill-rule="evenodd" clip-rule="evenodd" d="M27 8.72644L1 8.72644V2.77948L27 2.77948V8.72644Z" ></path>
      <path d="M21.0941 0.385742V5.1483"></path>
      <path d="M6.90567 0.385742V5.1483"></path>
      <path fill-rule="evenodd" clip-rule="evenodd" d="M27 14.6734V8.72644H1V27.7642H27V14.6734Z" ></path>
      <path d="M10.459 13.4765H12.8237"></path>
      <path d="M15.1763 13.4765H17.541"></path>
      <path d="M19.9058 13.4765H22.2705"></path>
      <path d="M10.459 18.2391H12.8237"></path>
      <path d="M5.72949 18.2391H8.09425"></path>
      <path d="M15.1763 18.2391H17.541"></path>
      <path d="M19.9058 18.2391H22.2705"></path>
      <path d="M10.459 23.0017H12.8237"></path>
      <path d="M5.72949 23.0017H8.09425"></path>
      <path d="M15.1763 23.0017H17.541"></path>
    </symbol>
    <symbol fill="none" xmlns="http://www.w3.org/2000/svg" viewBox="0 0 18 24" id="location">
      <path fill-rule="evenodd" clip-rule="evenodd" d="M16.28 8.64C16.28 15.32 8.64 22 8.64 22C8.64 22 1 15.32 1 8.64C1 4.42054 4.42054 1 8.64 1C12.8595 1 16.28 4.42054 16.28 8.64Z"></path>
      <circle cx="8.63978" cy="8.64003" r="2.86"></circle>
    </symbol>
    <symbol fill="none" xmlns="http://www.w3.org/2000/svg" viewBox="0 0 6 23" id="options">
      <circle cx="2.91" cy="2.91" r="1.91"></circle>
      <circle cx="2.91" cy="11.5" r="1.91"></circle>
      <circle cx="2.91" cy="20.0901" r="1.91"></circle>
    </symbol>
    <symbol fill="none" xmlns="http://www.w3.org/2000/svg" viewBox="0 0 23 23" id="picture">
      <path fill-rule="evenodd" clip-rule="evenodd" d="M1 1H22V22H1V1Z"></path>
      <path d="M1 19.14L7.68 12.46L13.41 18.18L17.23 14.36L22 19.14"></path>
      <circle cx="13.41" cy="7.68002" r="1.91"></circle>
    </symbol>
    <symbol fill="none" xmlns="http://www.w3.org/2000/svg" viewBox="0 0 20 20" id="send">
      <path d="M17.5 2L9.0625 10.4375"></path>
      <path fill-rule="evenodd" clip-rule="evenodd" d="M17.5 2L12.3077 17L8.84615 10.6538L2.5 7.19231L17.5 2Z" stroke-linecap="square"></path>
    </symbol>
    <symbol fill="none" xmlns="http://www.w3.org/2000/svg" viewBox="0 0 17 17" id="share">
      <circle cx="13.9569" cy="3.04286" r="2.04286"></circle>
      <circle cx="3.04286" cy="8.50001" r="2.04286"></circle>
      <circle cx="13.9569" cy="13.9572" r="2.04286"></circle>
      <path d="M12.1287 3.95715L4.87158 7.58572"></path>
      <path d="M12.1287 13.0429L4.87158 9.41431"></path>
    </symbol>
    <symbol fill="none" xmlns="http://www.w3.org/2000/svg" viewBox="0 0 23 20" id="camera">
      <circle cx="11.5" cy="10.54" r="4.77"></circle>
      <path fill-rule="evenodd" clip-rule="evenodd" d="M16.27 3.86L14.36 1H8.64003L6.73003 3.86H2.91003C1.85516 3.86 1.00003 4.71514 1.00003 5.77V16.27C0.997349 16.7774 1.19772 17.2648 1.5565 17.6235C1.91527 17.9823 2.40265 18.1827 2.91003 18.18H20.09C20.5974 18.1827 21.0848 17.9823 21.4436 17.6235C21.8023 17.2648 22.0027 16.7774 22 16.27V5.77C22 4.71514 21.1449 3.86 20.09 3.86H16.27Z"></path>
      <path d="M3.85986 1.94995V3.85995"></path>
      <path d="M18.1802 6.72998H20.0902"></path>
    </symbol>
    <symbol fill="none" xmlns="http://www.w3.org/2000/svg" viewBox="0 0 23 23" id="chart">
      <path d="M1 0V22H23"></path>
      <path d="M18.2202 9.56995V19.1299"></path>
      <path d="M12.48 1.91003V19.13"></path>
      <path d="M6.74023 5.73999V19.13"></path>
    </symbol>
    <symbol fill="none" xmlns="http://www.w3.org/2000/svg" viewBox="0 0 15 20" id="collect">
      <path fill-rule="evenodd" clip-rule="evenodd" d="M13.954 18L7.477 14.7615L1 18V1H13.954V18Z"></path>
    </symbol>
    <symbol fill="none" xmlns="http://www.w3.org/2000/svg" viewBox="0 0 20 20" id="comment">
      <path fill-rule="evenodd" clip-rule="evenodd" d="M15.5739 6.66663V13.1477C15.5739 14.4876 14.4876 15.5738 13.1477 15.5738H11.5274V18L6.66667 15.5738H3.42615C2.78269 15.5738 2.16559 15.3182 1.7106 14.8632C1.25561 14.4082 1 13.7911 1 13.1477V6.66663C1 5.3267 2.08622 4.24048 3.42615 4.24048H13.1477C14.4876 4.24048 15.5739 5.3267 15.5739 6.66663Z"></path>
      <path d="M15.5741 12.3333H16.4224C17.7424 12.3149 18.8055 11.2443 18.8146 9.92415V3.42615C18.8146 2.08622 17.7284 1 16.3884 1H6.66687C5.32695 1 4.24072 2.08622 4.24072 3.42615V4.27445"></path>
      <path d="M4.24072 9.90718H5.86098"></path>
      <path d="M7.48096 9.90718H9.10122"></path>
      <path d="M10.7129 9.90718H12.3332"></path>
    </symbol>
    <symbol fill="none" xmlns="http://www.w3.org/2000/svg" viewBox="0 0 21 17" id="like">
      <path fill-rule="evenodd" clip-rule="evenodd" d="M14.3324 1.00001C12.6525 1.00677 11.0882 1.85617 10.1676 3.26136C8.94886 1.43013 6.67694 0.609834 4.56943 1.24008C2.46192 1.87032 1.01334 3.80323 1 6.00292C1 13.5029 10.1676 16 10.1676 16C10.1676 16 19.3353 13.5029 19.3353 6.00292C19.3376 4.67535 18.8112 3.40149 17.8725 2.46276C16.9338 1.52403 15.6599 0.997685 14.3324 1.00001Z"></path>
      <path d="M14.3323 4.33529C14.7753 4.33295 15.2008 4.5079 15.5141 4.82115C15.8273 5.1344 16.0023 5.55993 15.9999 6.00293C15.9749 7.46856 15.3613 8.86251 14.2974 9.87079"></path>
    </symbol>
    <symbol width="14" height="14" viewBox="0 0 14 14" fill="none" xmlns="http://www.w3.org/2000/svg"  id="close">
        <path d="M14 1.41L12.59 0L7 5.59L1.41 0L0 1.41L5.59 7L0 12.59L1.41 14L7 8.41L12.59 14L14 12.59L8.41 7L14 1.41Z"/>
    </symbol>
    <symbol fill="none" xmlns="http://www.w3.org/2000/svg" viewBox="0 0 24 24" id="port">
      <path d="M12 4H23" stroke-linecap="square"/>
      <path d="M1 4H4" stroke-linecap="square"/>
      <rect x="4" y="1" width="4" height="6" stroke-linecap="square"/>
      <path d="M22 12H23" stroke-linecap="square"/>
      <path d="M1 12H14" stroke-linecap="square"/>
      <rect x="14" y="9" width="4" height="6" stroke-linecap="square"/>
      <path d="M12 20H23" stroke-linecap="square"/>
      <path d="M1 20H4" stroke-linecap="square"/>
      <rect x="4" y="17" width="4" height="6" stroke-linecap="square"/>
    </symbol>
    <symbol fill="none" xmlns="http://www.w3.org/2000/svg" viewBox="0 0 194 46" id="appName">
      <path d="M33.8859 8.14471H9.42935V17.8859H31.8641V25.9007H9.42935V37.7308H35V46H0V0H33.8859V8.14471Z" fill="white"/>
      <path d="M43 0H52.7355V37.7308H76V46H43V0Z" fill="white"/>
      <path d="M103.083 0H114L98.5816 28.7527V46H88.9499V28.7527L73 0H84.3509L93.923 20.0235L103.083 0Z" fill="white"/>
      <path d="M153 0V8.14471H138.965V46H129.102V8.14471H115V0.0270588L153 0Z" fill="white"/>
      <path d="M192.913 8.14471H168.449V17.8859H190.89V25.9007H168.449V37.7308H194V46H159V0H192.913V8.14471Z" fill="white"/>
    </symbol>
    <symbol fill="none" xmlns="http://www.w3.org/2000/svg" viewBox="0 0 20 20" id="infomation">
      <path fill-rule="evenodd" clip-rule="evenodd" d="M15.5739 6.66663V13.1477C15.5739 14.4876 14.4876 15.5738 13.1477 15.5738H11.5274V18L6.66667 15.5738H3.42615C2.78269 15.5738 2.16559 15.3182 1.7106 14.8632C1.25561 14.4082 1 13.7911 1 13.1477V6.66663C1 5.3267 2.08622 4.24048 3.42615 4.24048H13.1477C14.4876 4.24048 15.5739 5.3267 15.5739 6.66663Z" stroke="white" stroke-width="1.91"/>
      <path d="M15.5736 12.3333H16.4219C17.7419 12.3149 18.805 11.2443 18.8141 9.92415V3.42615C18.8141 2.08622 17.7279 1 16.3879 1H6.66638C5.32646 1 4.24023 2.08622 4.24023 3.42615V4.27445" stroke="white" stroke-width="1.91"/>
      <path d="M4.24023 9.90718H5.86049" stroke="white" stroke-width="1.91"/>
      <path d="M7.48145 9.90718H9.1017" stroke="white" stroke-width="1.91"/>
      <path d="M10.7129 9.90718H12.3332" stroke="white" stroke-width="1.91"/>
    </symbol>
    <symbol fill="none" xmlns="http://www.w3.org/2000/svg" viewBox="0 0 10 8" id="reply">
      <path d="M3.88889 2.13333V0L0 3.73333L3.88889 7.46667V5.28C6.66667 5.28 8.61111 6.13333 10 8C9.44444 5.33333 7.77778 2.66667 3.88889 2.13333Z" fill="#C0C5D0"/>
    </symbol>
    <symbol fill="none" xmlns="http://www.w3.org/2000/svg" viewBox="0 0 20 23" id="garbage">
      <path fill-rule="evenodd" clip-rule="evenodd" d="M14.4302 22H4.67016C3.65866 22.0014 2.82339 21.2101 2.77016 20.2L1.91016 4.82001H17.1902L16.3302 20.2C16.2769 21.2101 15.4417 22.0014 14.4302 22V22Z" stroke="#C0C5D0" stroke-width="1.91"/>
      <path d="M0 4.82001H19.1" stroke="#C0C5D0" stroke-width="1.91"/>
      <path fill-rule="evenodd" clip-rule="evenodd" d="M7.63998 1H11.46C12.5148 1 13.37 1.85514 13.37 2.91V4.82H5.72998V2.91C5.72998 1.85514 6.58512 1 7.63998 1V1Z" stroke="#C0C5D0" stroke-width="1.91"/>
      <path d="M9.5498 7.67999V19.14" stroke="#C0C5D0" stroke-width="1.91"/>
      <path d="M13.3701 7.67999V19.14" stroke="#C0C5D0" stroke-width="1.91"/>
      <path d="M5.72998 7.67999V19.14" stroke="#C0C5D0" stroke-width="1.91"/>
    </symbol>
    <symbol fill="none" xmlns="http://www.w3.org/2000/svg" viewBox="0 0 15 10" id="expandMore">
      <path d="M1.7625 0L7.5 5.725L13.2375 0L15 1.7625L7.5 9.2625L0 1.7625L1.7625 0Z" stroke-width="1" fill="#808A9E"/>
    </symbol>
    <symbol id="leftArrow"  viewBox="0 0 11 16" fill="none" xmlns="http://www.w3.org/2000/svg">
        <path d="M10.1309 1.89373L4.40586 7.63123L10.1309 13.3687L8.36836 15.1312L0.86836 7.63123L8.36836 0.131226L10.1309 1.89373Z" stroke-width="1" fill="#808A9E"/>
    </symbol>
    <symbol id="rightArrow" viewBox="0 0 11 16" xmlns="http://www.w3.org/2000/svg">
        <path d="M0.939453 14.1805L7.12029 8.06055L0.939453 1.94055L2.84229 0.0605469L10.9395 8.06055L2.84229 16.0605L0.939453 14.1805Z" stroke-width="0"/>
    </symbol>
    <symbol id="oval" viewBox="0 0 20 20" fill="none" xmlns="http://www.w3.org/2000/svg">
        <circle cx="10" cy="10" r="10" fill="#17C476"/>
    </symbol>
    <symbol id="backArrow" viewBox="0 0 23 16" fill="none" xmlns="http://www.w3.org/2000/svg">
        <path d="M23 7H3.83L9.42 1.41L8 0L0 8L8 16L9.41 14.59L3.83 9H23V7Z" />
    </symbol>
    <symbol id="phone" viewBox="0 0 20 19" fill="none" xmlns="http://www.w3.org/2000/svg"> 
        <path fill-rule="evenodd" clip-rule="evenodd" d="M15.7009 16.9549C13.7527 18.9108 9.27329 17.5916 5.72966 14.0096C2.18602 10.4276 0.790048 5.9482 2.74595 3.99997L4.87826 1.85999L8.99716 5.97888L7.46312 7.51292C6.82179 8.16385 6.82179 9.20907 7.46312 9.86L9.84088 12.2378C10.4927 12.8842 11.5438 12.8842 12.1956 12.2378L13.7297 10.7037L17.8486 14.8226L15.7009 16.9549Z" />
    </symbol>
    <symbol id="website" viewBox="0 0 21 21" fill="none" xmlns="http://www.w3.org/2000/svg">
        <circle cx="10.5" cy="10.87" r="9"/>
        <ellipse cx="10.5" cy="10.87" rx="3" ry="9"/>
        <path d="M1.5 10.87H19.5"/>
    </symbol>
    <symbol id="email" xmlns="http://www.w3.org/2000/svg" viewBox="0 0 24 24">
        <path d="M22,6C22,4.9 21.1,4 20,4H4C2.9,4 2,4.9 2,6V18C2,19.1 2.9,20 4,20H20C21.1,20 22,19.1 22,18V6M20,6L12,11L4,6H20M20,18H4V8L12,13L20,8V18Z" />
    </symbol>
    <symbol id="plus" viewBox="0 0 20 20" fill="none" xmlns="http://www.w3.org/2000/svg">
        <path d="M1.51472 9.04499L1.51472 8.08999L0.559719 8.08999L0.559719 9.04499L1.51472 9.04499ZM9.045 9.04499V9.99999L10 9.99999L10 9.04499H9.045ZM1.51472 10.955L0.559718 10.955L0.559718 11.91L1.51472 11.91L1.51472 10.955ZM9.045 10.955H10L10 9.99999L9.045 9.99999V10.955ZM9.045 18.4853H8.09L8.09 19.4403L9.045 19.4403V18.4853ZM10.955 18.4853V19.4403L11.91 19.4403L11.91 18.4853H10.955ZM10.955 10.955V9.99999L10 9.99999L10 10.955H10.955ZM18.4853 10.955L18.4853 11.91L19.4403 11.91L19.4403 10.955L18.4853 10.955ZM18.4853 9.04499L19.4403 9.04499L19.4403 8.08999L18.4853 8.08999L18.4853 9.04499ZM10.955 9.04499H10L10 9.99999L10.955 9.99999V9.04499ZM10.955 1.51471H11.91L11.91 0.55971L10.955 0.55971L10.955 1.51471ZM9.045 1.51471L9.045 0.55971L8.09 0.55971L8.09 1.51471H9.045ZM1.51472 9.99999L9.045 9.99999L9.045 8.08999L1.51472 8.08999L1.51472 9.99999ZM2.46972 10.955L2.46972 9.04499L0.559719 9.04499L0.559718 10.955L2.46972 10.955ZM9.045 9.99999L1.51472 9.99999L1.51472 11.91L9.045 11.91V9.99999ZM10 18.4853L10 10.955H8.09L8.09 18.4853H10ZM10.955 17.5303H9.045V19.4403H10.955V17.5303ZM10 10.955L10 18.4853H11.91L11.91 10.955H10ZM18.4853 9.99999L10.955 9.99999V11.91L18.4853 11.91L18.4853 9.99999ZM17.5303 9.04499L17.5303 10.955L19.4403 10.955L19.4403 9.04499L17.5303 9.04499ZM10.955 9.99999L18.4853 9.99999L18.4853 8.08999L10.955 8.08999L10.955 9.99999ZM10 1.51471L10 9.04499L11.91 9.04499V1.51471L10 1.51471ZM9.045 2.46971L10.955 2.46971L10.955 0.55971L9.045 0.55971L9.045 2.46971ZM10 9.04499L10 1.51471L8.09 1.51471V9.04499L10 9.04499Z"/>
    </symbol>
    <symbol id="minus" viewBox="0 0 18 2" fill="none" xmlns="http://www.w3.org/2000/svg">
        <path d="M17.4853 0.999991H0.514719"/>
    </symbol>
    <symbol id="officiates"  viewBox="0 0 25 26" fill="none" xmlns="http://www.w3.org/2000/svg">
        <path fill-rule="evenodd" clip-rule="evenodd" d="M3.40945 7.3184V7.3184C2.15376 7.3184 1.13672 6.30136 1.13672 5.04568V5.04568C1.13672 3.78999 2.15376 2.77295 3.40945 2.77295V2.77295C4.66513 2.77295 5.68217 3.78999 5.68217 5.04568V5.04568C5.68217 6.30136 4.66513 7.3184 3.40945 7.3184Z" fill="#080E1B" stroke="#080E1B" stroke-width="1"/>
        <path fill-rule="evenodd" clip-rule="evenodd" d="M5.68182 23.2271H2.27273V18.6816H0V12.9998C0 11.7441 1.01705 10.7271 2.27273 10.7271H3.40909" fill="#1F345D" stroke="#1F345D" stroke-width="1"/>
        <path fill-rule="evenodd" clip-rule="evenodd" d="M21.5911 7.3184V7.3184C22.8468 7.3184 23.8638 6.30136 23.8638 5.04568V5.04568C23.8638 3.78999 22.8468 2.77295 21.5911 2.77295V2.77295C20.3354 2.77295 19.3184 3.78999 19.3184 5.04568V5.04568C19.3184 6.30136 20.3354 7.3184 21.5911 7.3184Z" fill="#080E1B" stroke="#080E1B" stroke-width="1"/>
        <path fill-rule="evenodd" clip-rule="evenodd" d="M19.3184 23.2271H22.7275V18.6816H25.0002V12.9998C25.0002 11.7441 23.9831 10.7271 22.7275 10.7271H21.5911" fill="#1F345D" stroke="#1F345D" stroke-width="1"/>
        <path fill-rule="evenodd" clip-rule="evenodd" d="M12.5009 7.31818V7.31818C10.6179 7.31818 9.0918 5.79205 9.0918 3.90909V3.90909C9.0918 2.02614 10.6179 0.5 12.5009 0.5V0.5C14.3838 0.5 15.91 2.02614 15.91 3.90909V3.90909C15.91 5.79205 14.3838 7.31818 12.5009 7.31818Z" fill="#080E1B" stroke="#080E1B" stroke-width="1"/>
        <path fill-rule="evenodd" clip-rule="evenodd" d="M15.9093 25.4998H9.09109V18.6816H6.81836V12.9998C6.81836 11.7441 7.8354 10.7271 9.09109 10.7271H15.9093C17.165 10.7271 18.182 11.7441 18.182 12.9998V19.818H15.9093V25.4998Z" fill="#1F345D" stroke="#1F345D" stroke-width="1"/>
    </symbol>
    <symbol id="gameOption" viewBox="0 0 37 39" fill="none" xmlns="http://www.w3.org/2000/svg">
        <path d="M12.8801 17.6893C12.5647 16.307 12.5647 14.8715 12.8801 13.4893C13.1314 12.4232 13.5644 11.4084 14.1601 10.4893C14.9173 9.27281 15.9437 8.24645 17.1601 7.48925C17.6424 7.20084 18.1514 6.95971 18.6801 6.76925C19.188 6.56243 19.7134 6.40178 20.2501 6.28925C24.2158 5.43353 28.292 7.15764 30.4401 10.5993C31.0284 11.5285 31.4482 12.5542 31.6801 13.6293C31.9953 15.0081 31.9953 16.4404 31.6801 17.8193C31.102 20.3089 29.5589 22.467 27.3901 23.8193C26.9301 24.1092 26.4448 24.3569 25.9401 24.5593C25.7284 24.6492 25.5113 24.726 25.2901 24.7893" stroke="#1F345D" stroke-width="2" stroke-linecap="round" stroke-linejoin="round"/>
        <path d="M18.6796 17.1096C17.9953 15.4246 18.5798 13.4906 20.0828 12.4667C21.5858 11.4429 23.5996 11.6071 24.9169 12.8608C26.2343 14.1145 26.4979 16.1177 25.5496 17.6696" stroke="#1F345D" stroke-width="2" stroke-linecap="round" stroke-linejoin="round"/>
        <rect x="14.7666" y="2.82031" width="4.25" height="5.46" rx="1.13" transform="rotate(-22.05 14.7666 2.82031)" />
        <rect x="7.89062" y="11.8848" width="4.25" height="5.46" rx="1.13" transform="rotate(-67.05 7.89062 11.8848)" />
        <rect x="36.6494" y="19.4473" width="4.25" height="5.46" rx="1.13" transform="rotate(112.95 36.6494 19.4473)" />
        <rect x="35.1035" y="8.16602" width="4.25" height="5.46" rx="1.13" transform="rotate(67.95 35.1035 8.16602)" />
        <rect x="26.0557" y="1.27344" width="4.25" height="5.46" rx="1.13" transform="rotate(22.95 26.0557 1.27344)" />
        <path fill-rule="evenodd" clip-rule="evenodd" d="M25.5297 28.1893C25.5718 28.8304 25.5179 29.4741 25.3697 30.0993C25.3029 30.3916 25.216 30.6789 25.1097 30.9593C24.9437 31.4098 24.7255 31.8394 24.4597 32.2393C23.9203 33.0935 23.1915 33.8121 22.3297 34.3393C22.0131 34.5458 21.6784 34.7232 21.3297 34.8693C20.9702 35.0144 20.5988 35.1282 20.2197 35.2093C19.2331 35.441 18.2063 35.441 17.2197 35.2093C16.4607 35.0417 15.7388 34.7367 15.0897 34.3093C14.2361 33.7724 13.5203 33.0429 12.9997 32.1793C12.788 31.8641 12.6072 31.5292 12.4597 31.1793C12.3101 30.8179 12.1963 30.4428 12.1197 30.0593C11.895 29.0719 11.895 28.0467 12.1197 27.0593C12.2572 26.4654 12.4759 25.8934 12.7697 25.3593C12.8429 25.205 12.9299 25.0578 13.0297 24.9193C13.3306 24.4431 13.6938 24.0092 14.1097 23.6293C14.1789 23.5515 14.2559 23.4811 14.3397 23.4193C14.5945 23.1906 14.8727 22.9895 15.1697 22.8193C15.8256 22.4042 16.5503 22.1096 17.3097 21.9493C18.1771 21.7695 19.0722 21.7695 19.9397 21.9493L20.2797 22.0193C21.0435 22.1964 21.7708 22.5043 22.4297 22.9293L22.5397 22.9993C23.3492 23.5311 24.032 24.2344 24.5397 25.0593C24.7462 25.3759 24.9236 25.7106 25.0697 26.0593C25.2208 26.4201 25.3347 26.7954 25.4097 27.1793C25.4699 27.4189 25.51 27.663 25.5297 27.9093C25.5369 28.0025 25.5369 28.0961 25.5297 28.1893V28.1893Z" stroke="#1F345D" stroke-width="2" stroke-linecap="round" stroke-linejoin="round"/>
        <circle cx="18.7378" cy="28.5601" r="2.73" transform="rotate(-22.05 18.7378 28.5601)" stroke="#1F345D" stroke-width="2" stroke-linecap="round" stroke-linejoin="round"/>
        <rect x="13.4287" y="19.4492" width="3.01" height="3.87" rx="0.8" transform="rotate(-22.05 13.4287 19.4492)" />
        <path d="M13.0303 25.2097L12.9803 25.3497L12.4303 26.6497C12.3632 26.8023 12.2517 26.9313 12.1103 27.0197C11.8904 27.1565 11.6168 27.1752 11.3803 27.0697L9.29029 26.1897C8.8887 26.0115 8.70236 25.5457 8.87029 25.1397L9.02029 24.7997L9.42029 23.7997C9.50201 23.603 9.65878 23.447 9.85587 23.3663C10.053 23.2856 10.2741 23.2868 10.4703 23.3697L12.5503 24.2497C12.7931 24.3536 12.969 24.5706 13.0203 24.8297C13.0567 24.9533 13.0601 25.0843 13.0303 25.2097Z" />
        <rect x="9.64062" y="33.8672" width="3.01" height="3.87" rx="0.8" transform="rotate(-112.05 9.64062 33.8672)" />
        <rect x="16.0645" y="38.7441" width="3.01" height="3.87" rx="0.8" transform="rotate(-157.05 16.0645 38.7441)" />
        <path d="M22.8903 34.7695L23.7403 36.8595C23.8795 37.2566 23.6872 37.6938 23.3003 37.8595L22.0103 38.3795C21.6131 38.5187 21.176 38.3263 21.0103 37.9395L20.1603 35.8495C20.0607 35.6063 20.0868 35.3297 20.2303 35.1095C20.3143 34.9666 20.445 34.8571 20.6003 34.7995L21.8903 34.2795C22.0456 34.2246 22.215 34.2246 22.3703 34.2795C22.611 34.352 22.8036 34.5335 22.8903 34.7695Z" />
        <path d="M28.6095 31.9802L28.3495 32.6002L28.0695 33.2702C27.8965 33.6493 27.4614 33.832 27.0695 33.6902L24.9295 32.7702C24.6882 32.6697 24.5122 32.4563 24.4595 32.2002C24.4054 32.0448 24.4054 31.8756 24.4595 31.7202L24.9395 30.6002L25.0095 30.4302C25.0738 30.2757 25.1859 30.146 25.3295 30.0602C25.5499 29.9266 25.8203 29.9044 26.0595 30.0002L28.1495 30.8902C28.3619 30.9651 28.5328 31.1261 28.6204 31.3336C28.7079 31.541 28.704 31.7758 28.6095 31.9802Z" />
        <rect x="27.833" y="23.25" width="3.01" height="3.87" rx="0.8" transform="rotate(67.95 27.833 23.25)" />
        <rect x="21.4062" y="18.377" width="3.01" height="3.87" rx="0.8" transform="rotate(22.95 21.4062 18.377)" />
        <path d="M10.8199 30.5391C8.69348 31.3949 6.25737 30.7453 4.83932 28.9444C3.42127 27.1434 3.36126 24.6229 4.69199 22.7566C6.02273 20.8902 8.42516 20.1254 10.5899 20.8791" stroke="#1F345D" stroke-width="2" stroke-linecap="round" stroke-linejoin="round"/>
        <rect x="4.89844" y="18.918" width="2.26" height="2.9" rx="0.6" transform="rotate(-22.05 4.89844 18.918)" />
        <rect x="1.23242" y="23.7363" width="2.26" height="2.9" rx="0.6" transform="rotate(-67.05 1.23242 23.7363)" />
        <rect x="2.05273" y="29.7363" width="2.26" height="2.9" rx="0.6" transform="rotate(-112.05 2.05273 29.7363)" />
        <rect x="6.87402" y="33.4023" width="2.26" height="2.9" rx="0.6" transform="rotate(-157.05 6.87402 33.4023)" />
        <path d="M30.8799 36.1006C30.8799 36.1006 34.0199 32.3406 32.0999 27.8906" stroke="#1F345D" stroke-width="2" stroke-linecap="round" stroke-linejoin="round"/>
        <path d="M11.96 1C11.96 1 4.09998 5.33 4.39998 14.2" stroke="#1F345D" stroke-width="2" stroke-linecap="round" stroke-linejoin="round"/>
        <path d="M1 32.7695C2.25152 34.9748 4.57474 36.355 7.11 36.3995" stroke="#1F345D" stroke-width="2" stroke-linecap="round" stroke-linejoin="round"/>
    </symbol>
    <symbol id="gameRosters" viewBox="0 0 32 37" fill="none" xmlns="http://www.w3.org/2000/svg">
        <path d="M4.42883 9.77148L1 18.0586" stroke="#1F345D" stroke-width="2" stroke-linecap="round" stroke-linejoin="round"/>
        <path d="M6.13009 18.6646C5.08581 18.6646 4.23926 17.8181 4.23926 16.7738V9.84375" stroke="#1F345D" stroke-width="2" stroke-linecap="round" stroke-linejoin="round"/>
        <path d="M8.7627 7.13009H10.5721" stroke="#1F345D" stroke-width="2" stroke-linecap="round" stroke-linejoin="round"/>
        <path d="M8.76196 1.77344C7.263 1.77344 6.04785 2.98859 6.04785 4.48755C6.04785 5.98651 7.263 7.20166 8.76196 7.20166" stroke="#1F345D" stroke-width="2" stroke-linecap="round" stroke-linejoin="round"/>
        <path d="M5.33342 32.181L4.42871 16.8281" stroke="#1F345D" stroke-width="2" stroke-linecap="round" stroke-linejoin="round"/>
        <path d="M12.87 16.7734L12.0015 31.6287" stroke="#1F345D" stroke-width="2" stroke-linecap="round" stroke-linejoin="round"/>
        <path d="M8.7627 26.1289V32.0728C8.7627 32.2877 8.93687 32.4618 9.15172 32.4618H11.7392C11.954 32.4618 12.1282 32.2877 12.1282 32.0728" stroke="#1F345D" stroke-width="2" stroke-linecap="round" stroke-linejoin="round"/>
        <path d="M24.1426 7.12891H25.0473C26.5462 7.12891 27.7614 8.34406 27.7614 9.84302V16.7278C27.7614 17.7721 26.9148 18.6187 25.8706 18.6187" stroke="#1F345D" stroke-width="2" stroke-linecap="round" stroke-linejoin="round"/>
        <path d="M23.6262 1.77344C22.1273 1.77344 20.9121 2.98859 20.9121 4.48755C20.9121 5.98651 22.1273 7.20166 23.6262 7.20166" stroke="#1F345D" stroke-width="2" stroke-linecap="round" stroke-linejoin="round"/>
        <path d="M27.4531 8.77539L30.9996 18.0577" stroke="#1F345D" stroke-width="2" stroke-linecap="round" stroke-linejoin="round"/>
        <path d="M27.6981 16.7734L26.8296 31.6287" stroke="#1F345D" stroke-width="2" stroke-linecap="round" stroke-linejoin="round"/>
        <path d="M23.2373 25.2227V32.0713C23.2373 32.2861 23.4115 32.4603 23.6263 32.4603H26.2138C26.4286 32.4603 26.6028 32.2861 26.6028 32.0713" stroke="#1F345D" stroke-width="2" stroke-linecap="round" stroke-linejoin="round"/>
        <path d="M11.6661 13.0371L8.2373 21.3332" stroke="#1F345D" stroke-width="2" stroke-linecap="round" stroke-linejoin="round"/>
        <path d="M16.0001 10.748H16.9048C18.4038 10.748 19.6189 11.9632 19.6189 13.4622V20.6546C19.5992 21.6847 18.7584 22.5094 17.7281 22.5092H13.3674C12.3231 22.5092 11.4766 21.6627 11.4766 20.6184V13.4622" stroke="#1F345D" stroke-width="2" stroke-linecap="round" stroke-linejoin="round"/>
        <path d="M16.0002 5.04883C14.5013 5.04883 13.2861 6.26398 13.2861 7.76294C13.2861 9.26191 14.5013 10.4771 16.0002 10.4771" stroke="#1F345D" stroke-width="2" stroke-linecap="round" stroke-linejoin="round"/>
        <path d="M19.8633 12.041L23.4097 21.3323" stroke="#1F345D" stroke-width="2" stroke-linecap="round" stroke-linejoin="round"/>
        <path d="M12.5707 35.4473L11.666 20.1035" stroke="#1F345D" stroke-width="2" stroke-linecap="round" stroke-linejoin="round"/>
        <path d="M20.1073 20.0391L19.2388 34.9034" stroke="#1F345D" stroke-width="2" stroke-linecap="round" stroke-linejoin="round"/>
        <path d="M16 26.1289V34.7869C16 35.0018 16.1742 35.176 16.389 35.176H18.9765C19.1913 35.176 19.3655 35.0018 19.3655 34.7869" stroke="#1F345D" stroke-width="2" stroke-linecap="round" stroke-linejoin="round"/>
    </symbol >
    <symbol id="statRecording" viewBox="0 0 22 27" fill="none" xmlns="http://www.w3.org/2000/svg">
        <path d="M15.4473 12.3945V20.171" stroke="#1F345D" stroke-width="2"/>
        <path d="M11 14.6074V20.172" stroke="#1F345D" stroke-width="2"/>
        <path d="M6.55278 16.8301V20.1712" stroke="#1F345D" stroke-width="2"/>
        <path fill-rule="evenodd" clip-rule="evenodd" d="M21 6.83031V25.7244H1V1.27734H15.447L21 6.83031Z" stroke="#1F345D" stroke-width="2"/>
        <path fill-rule="evenodd" clip-rule="evenodd" d="M20.9996 6.83031V7.94789H14.3291V1.27734H15.4467L20.9996 6.83031Z" stroke="#1F345D" stroke-width="2"/>
    </symbol >
    <symbol id="teamLineUp" viewBox="0 0 33 22" fill="none" xmlns="http://www.w3.org/2000/svg">
        <path d="M25.1292 1.42967L20.1294 1.47159" stroke="#1F345D" stroke-width="2" stroke-linecap="round" stroke-linejoin="round"/>
        <path d="M11.1303 1.54678L16.1302 1.50487" stroke="#1F345D" stroke-width="2" stroke-linecap="round" stroke-linejoin="round"/>
        <path d="M11.2864 20.1863L17.0381 10.8177L16.1767 9.46489L11.1302 1.54692" stroke="#1F345D" stroke-width="2" stroke-linecap="round" stroke-linejoin="round"/>
        <path d="M16.2864 20.1443L22.0381 10.7757L20.5586 8.45805L16.1302 1.50493" stroke="#1F345D" stroke-width="2" stroke-linecap="round" stroke-linejoin="round"/>
        <path d="M20.2855 20.1111L26.0371 10.7425L24.6691 8.59392L20.1292 1.47173" stroke="#1F345D" stroke-width="2" stroke-linecap="round" stroke-linejoin="round"/>
        <path d="M25.1292 1.42973L31.0371 10.7005L25.2855 20.0691" stroke="#1F345D" stroke-width="2" stroke-linecap="round" stroke-linejoin="round"/>
        <path d="M2.07608 20.2633L4.59599 20.2422" stroke="#1F345D" stroke-width="2" stroke-linecap="round" stroke-linejoin="round"/>
        <path d="M6.92021 1.58201L1.92038 1.62393" stroke="#1F345D" stroke-width="2" stroke-linecap="round" stroke-linejoin="round"/>
        <path d="M2.07647 20.2634L6.55545 12.9656L7.82813 10.8949L6.87559 9.4028L6.87551 9.3928L1.9202 1.62407" stroke="#1F345D" stroke-width="2" stroke-linecap="round" stroke-linejoin="round"/>
        <path d="M8.57604 17.7788L12.3151 11.6872L12.8281 10.8529L6.9202 1.58208" stroke="#1F345D" stroke-width="2" stroke-linecap="round" stroke-linejoin="round"/>
        <circle cx="7.07678" cy="20.2212" r="1" transform="rotate(89.5197 7.07678 20.2212)" fill="#1F345D"/>
    </symbol>

    <symbol id="sendResults" viewBox="0 0 30 30" fill="none" xmlns="http://www.w3.org/2000/svg">
        <path d="M14.2665 4.44727C7.49751 4.44736 2.0069 9.92851 1.99514 16.6975C1.98337 23.4665 7.45489 28.9667 14.2239 28.9903C20.9928 29.0139 26.5026 23.552 26.5381 16.7831" stroke="#1F345D" stroke-width="2"/>
        <path d="M22.9364 25.4014L14.2666 16.783V1.99023C18.184 1.9902 21.94 3.55076 24.704 6.32681C27.468 9.10285 29.0121 12.8656 28.995 16.783H15.1637" stroke="#1F345D" stroke-width="2"/>
    </symbol>
    <symbol id="postMedia" viewBox="0 0 29 29" fill="none" xmlns="http://www.w3.org/2000/svg">
        <circle cx="24.5" cy="4.5" r="3.5" stroke="#1F345D" stroke-width="1.91"/>
        <circle cx="4.5" cy="14.5" r="3.5" stroke="#1F345D" stroke-width="1.91"/>
        <circle cx="24.5" cy="24.5" r="3.5" stroke="#1F345D" stroke-width="1.91"/>
        <path d="M21 6L8 13" stroke="#1F345D" stroke-width="1.91"/>
        <path d="M21 23L8 16" stroke="#1F345D" stroke-width="1.91"/>
    </symbol>
    <symbol id="gameActivityHistory" viewBox="0 0 37 31" fill="none" xmlns="http://www.w3.org/2000/svg">
        <path d="M10.1391 13.9375L8.72949 18.5381" stroke="#1F345D" stroke-width="2" stroke-linecap="round" stroke-linejoin="round"/>
        <path d="M6.32069 20.3669C5.14954 20.2029 4.33199 19.1221 4.49285 17.9505L6.04187 12.343C6.20615 11.1822 7.27192 10.3682 8.4351 10.5152" stroke="#1F345D" stroke-width="2" stroke-linecap="round" stroke-linejoin="round"/>
        <path d="M8.43555 10.5141L13.6325 11.6371C13.9511 11.7087 14.2839 11.6079 14.5092 11.3715C14.7345 11.1351 14.8192 10.7979 14.7323 10.4831L14.2908 8.76367" stroke="#1F345D" stroke-width="2" stroke-linecap="round" stroke-linejoin="round"/>
        <path d="M7.33551 10.6621L2.42513 12.6139C2.26643 12.6703 2.12318 12.7631 2.0069 12.8849C1.77176 13.1521 1.62323 13.4842 1.58092 13.8376L1.34082 15.8591" stroke="#1F345D" stroke-width="2" stroke-linecap="round" stroke-linejoin="round"/>
        <path d="M5.08984 19.7461L10.3642 21.6436C11.3647 22.1526 11.9126 23.2578 11.7119 24.3622L11.0226 29.0092H10.1319L9.86856 26.2907C9.78598 25.4556 9.28394 24.7201 8.5364 24.3389" stroke="#1F345D" stroke-width="2" stroke-linecap="round" stroke-linejoin="round"/>
        <path d="M4.50077 18.6094L5.65479 22.3657C5.85636 23.0277 5.78091 23.7431 5.44567 24.3485C5.07708 24.9138 4.56713 25.3731 3.96636 25.6806C3.01372 26.2925 1.98362 26.9121 1 27.5549L1.38725 28.9723L1 27.5549" stroke="#1F345D" stroke-width="2" stroke-linecap="round" stroke-linejoin="round"/>
        <path d="M3.06826 21.8691L3.37031 23.0309" stroke="#1F345D" stroke-width="2" stroke-linecap="round" stroke-linejoin="round"/>
        <path d="M9.20933 8.60947C8.04716 8.63055 7.08753 7.70636 7.06486 6.54423C7.0422 5.3821 7.96507 4.4212 9.12718 4.39695C10.2893 4.3727 11.2514 5.29427 11.2773 6.45634" stroke="#1F345D" stroke-width="2" stroke-linecap="round" stroke-linejoin="round"/>
        <path d="M18.9453 27.0659C18.9453 28.0882 18.1166 28.917 17.0942 28.917C16.0719 28.917 15.2432 28.0882 15.2432 27.0659C15.2432 26.0436 16.0719 25.2148 17.0942 25.2148" stroke="#1F345D" stroke-width="2" stroke-linecap="round" stroke-linejoin="round"/>
        <path d="M27.6429 13.0234L28.278 16.0673" stroke="#1F345D" stroke-width="2" stroke-linecap="round" stroke-linejoin="round"/>
        <path d="M30.6867 17.904C31.8578 17.74 32.6754 16.6592 32.5145 15.4876L30.9655 9.88015C30.8012 8.71928 29.7354 7.9053 28.5723 8.05231" stroke="#1F345D" stroke-width="2" stroke-linecap="round" stroke-linejoin="round"/>
        <path d="M28.5573 8.05273L23.3604 13.0483" stroke="#1F345D" stroke-width="2" stroke-linecap="round" stroke-linejoin="round"/>
        <path d="M29.6719 8.19922L34.5823 10.151C34.7409 10.2074 34.8842 10.3002 35.0005 10.4221C35.2356 10.6892 35.3842 11.0214 35.4265 11.3747L35.6666 13.3962" stroke="#1F345D" stroke-width="2" stroke-linecap="round" stroke-linejoin="round"/>
        <path d="M31.918 17.2754L26.6436 19.1729C25.6432 19.6819 25.0953 20.7871 25.296 21.8915L25.9853 26.5385H26.876L27.1393 23.8742C27.2219 23.0392 27.7239 22.3036 28.4715 21.9224" stroke="#1F345D" stroke-width="2" stroke-linecap="round" stroke-linejoin="round"/>
        <path d="M32.5071 16.1465L31.353 19.9028C31.1515 20.5648 31.2269 21.2802 31.5622 21.8856C31.9338 22.4424 32.4435 22.8934 33.0415 23.1945C34.0328 23.8219 35.0242 24.426 36.0001 25.0688L35.6128 26.4862L36.0001 25.0688" stroke="#1F345D" stroke-width="2" stroke-linecap="round" stroke-linejoin="round"/>
        <path d="M33.9396 19.4062L33.6376 20.568" stroke="#1F345D" stroke-width="2" stroke-linecap="round" stroke-linejoin="round"/>
        <path d="M27.7984 6.15439C28.9606 6.17547 29.9202 5.25129 29.9429 4.08915C29.9655 2.92702 29.0427 1.96612 27.8806 1.94187C26.7185 1.91763 25.7563 2.83919 25.7305 4.00126" stroke="#1F345D" stroke-width="2" stroke-linecap="round" stroke-linejoin="round"/>
    </symbol>
    <symbol id="timeOut" viewBox="0 0 33 22" fill="none" xmlns="http://www.w3.org/2000/svg">
        <path d="M25.1292 1.42967L20.1294 1.47159" stroke="#1F345D" stroke-width="2" stroke-linecap="round" stroke-linejoin="round"/>
        <path d="M11.1303 1.54776L16.1302 1.50584" stroke="#1F345D" stroke-width="2" stroke-linecap="round" stroke-linejoin="round"/>
        <path d="M11.2864 20.1863L17.0381 10.8177L16.1767 9.46489L11.1302 1.54692" stroke="#1F345D" stroke-width="2" stroke-linecap="round" stroke-linejoin="round"/>
        <path d="M16.2864 20.1453L22.0381 10.7767L20.5586 8.45903L16.1302 1.50591" stroke="#1F345D" stroke-width="2" stroke-linecap="round" stroke-linejoin="round"/>
        <path d="M20.2855 20.1101L26.0371 10.7415L24.6691 8.59294L20.1292 1.47075" stroke="#1F345D" stroke-width="2" stroke-linecap="round" stroke-linejoin="round"/>
        <path d="M25.1292 1.42973L31.0371 10.7005L25.2855 20.0691" stroke="#1F345D" stroke-width="2" stroke-linecap="round" stroke-linejoin="round"/>
        <path d="M2.07608 20.2633L4.59599 20.2422" stroke="#1F345D" stroke-width="2" stroke-linecap="round" stroke-linejoin="round"/>
        <path d="M6.92021 1.58201L1.92038 1.62393" stroke="#1F345D" stroke-width="2" stroke-linecap="round" stroke-linejoin="round"/>
        <path d="M2.07647 20.2644L6.55545 12.9666L7.82813 10.8958L6.87559 9.40378L6.87551 9.39378L1.9202 1.62505" stroke="#1F345D" stroke-width="2" stroke-linecap="round" stroke-linejoin="round"/>
        <path d="M8.57604 17.7788L12.3151 11.6872L12.8281 10.8529L6.9202 1.58208" stroke="#1F345D" stroke-width="2" stroke-linecap="round" stroke-linejoin="round"/>
        <circle cx="7.07678" cy="20.2212" r="1" transform="rotate(89.5197 7.07678 20.2212)" fill="#1F345D"/>
</symbol>

    <symbol id="addStatRecorder" viewBox="0 0 30 38" fill="none" xmlns="http://www.w3.org/2000/svg">
        <circle cx="6.58964" cy="7.55057" r="0.855261" fill="#1F345D"/>
        <circle cx="28.1775" cy="10.117" r="0.855261" fill="#1F345D"/>
        <path d="M28.4604 12.9746V33.3726C28.3633 35.4157 26.6385 36.9993 24.5946 36.9219H1.94727" stroke="#1F345D" stroke-width="2" stroke-linecap="round" stroke-linejoin="round"/>
        <path d="M23.3279 34.3554H6.22266" stroke="#1F345D" stroke-width="2" stroke-linecap="round" stroke-linejoin="round"/>
        <path d="M19.9062 30.0791V19.8844C19.9062 18.9397 20.6721 18.1738 21.6168 18.1738C22.5615 18.1738 23.3273 18.9397 23.3273 19.8844V34.3554" stroke="#1F345D" stroke-width="2" stroke-linecap="round" stroke-linejoin="round"/>
        <path d="M13.9199 32.6455V22.3824C13.9199 21.4377 14.6857 20.6719 15.6304 20.6719C16.5751 20.6719 17.341 21.4377 17.341 22.3824V34.3561" stroke="#1F345D" stroke-width="2" stroke-linecap="round" stroke-linejoin="round"/>
        <path d="M7.93359 32.6442V24.9469C7.93359 24.0022 8.69942 23.2363 9.64412 23.2363C10.5888 23.2363 11.3546 24.0022 11.3546 24.9469V34.3547" stroke="#1F345D" stroke-width="2" stroke-linecap="round" stroke-linejoin="round"/>
        <path d="M2.80273 30.9339V27.4273C2.80273 26.4826 3.56856 25.7168 4.51326 25.7168C5.45795 25.7168 6.22378 26.4826 6.22378 27.4273V34.3549" stroke="#1F345D" stroke-width="2" stroke-linecap="round" stroke-linejoin="round"/>
        <path fill-rule="evenodd" clip-rule="evenodd" d="M9.26794 12.3496C8.59229 12.6661 7.89953 13.0082 7.23242 13.393C7.88946 13.0048 8.56919 12.6564 9.26794 12.3496V12.3496Z" stroke="#1F345D" stroke-width="2" stroke-linecap="round" stroke-linejoin="round"/>
        <path fill-rule="evenodd" clip-rule="evenodd" d="M7.17292 13.4263C6.7624 13.6658 6.37468 13.9167 6.00977 14.1789C6.38608 13.8967 6.7795 13.6572 7.17292 13.4263Z" stroke="#1F345D" stroke-width="2" stroke-linecap="round" stroke-linejoin="round"/>
        <path fill-rule="evenodd" clip-rule="evenodd" d="M9.26794 12.3496C8.59229 12.6661 7.89953 13.0082 7.23242 13.393C7.88946 13.0048 8.56919 12.6564 9.26794 12.3496V12.3496Z" stroke="#1F345D" stroke-width="2" stroke-linecap="round" stroke-linejoin="round"/>
        <path fill-rule="evenodd" clip-rule="evenodd" d="M9.26794 12.3496C8.59229 12.6661 7.89953 13.0082 7.23242 13.393C7.88946 13.0048 8.56919 12.6564 9.26794 12.3496V12.3496Z" stroke="#1F345D" stroke-width="2" stroke-linecap="round" stroke-linejoin="round"/>
        <path d="M1.59586 22.2443V22.193C1.59366 22.1645 1.59366 22.1359 1.59586 22.1075V21.9706C1.59874 21.9393 1.59874 21.9078 1.59586 21.8765V21.7739C1.20951 19.6469 1.26775 17.4629 1.76691 15.3594C1.76691 15.2055 1.84388 15.0601 1.88665 14.9147C2.40045 13.033 3.3497 11.2986 4.65769 9.85156" stroke="#1F345D" stroke-width="2" stroke-linecap="round" stroke-linejoin="round"/>
        <path d="M14.7759 4.74619L14.066 1.92383L21.7634 5.78961L21.1305 6.68763L20.0443 8.25276L19.9759 8.35539L19.4456 9.11657L18.5903 10.3995L17.239 12.3409L16.914 12.8027L16.8114 12.3837L16.3324 10.5021L16.2042 9.98039C13.9544 10.5128 11.7585 11.2515 9.64431 12.187L9.26799 12.3495C8.59233 12.6659 7.89957 13.008 7.23247 13.3929H7.1726C6.77918 13.6238 6.38576 13.8633 6.00945 14.1113C4.52303 15.0347 3.26558 16.2834 2.33182 17.7633C2.15033 18.0745 1.99582 18.4007 1.86998 18.7383C1.8263 18.8442 1.78917 18.9528 1.7588 19.0633C1.66834 19.328 1.59969 19.5998 1.55354 19.8758C1.55079 19.9071 1.55079 19.9385 1.55354 19.9698C1.50403 20.2523 1.47828 20.5384 1.47656 20.8251V21.0218C1.48316 21.3807 1.52036 21.7383 1.58775 22.0909C1.58528 22.1193 1.58528 22.148 1.58775 22.1764V22.2448" stroke="#1F345D" stroke-width="2" stroke-linecap="round" stroke-linejoin="round"/>
        <circle cx="2.47635" cy="34.3045" r="0.855261" fill="#1F345D"/>
    </symbol>
    <symbol id="callCoordinator" viewBox="0 0 31 31" fill="none" xmlns="http://www.w3.org/2000/svg">
        <rect x="7.62891" y="6.30469" width="15.7818" height="21.0471" rx="5.725" stroke="#1F345D" stroke-width="1.91"/>
        <path fill-rule="evenodd" clip-rule="evenodd" d="M23.4258 11.5703H26.0584C28.2355 11.5703 30.0004 13.3352 30.0004 15.5123V18.1449C30.0004 20.322 28.2355 22.0869 26.0584 22.0869H23.4258V11.5703H23.4258Z" stroke="#1F345D" stroke-width="1.91"/>
        <path fill-rule="evenodd" clip-rule="evenodd" d="M7.62931 22.0869H4.9967C2.81959 22.0869 1.05469 20.322 1.05469 18.1449V15.5123C1.05469 13.3352 2.81959 11.5703 4.9967 11.5703H7.62931V22.0869V22.0869Z" stroke="#1F345D" stroke-width="1.91"/>
        <path d="M4.99609 11.5695C4.99609 5.75369 9.71072 1.03906 15.5265 1.03906C21.3423 1.03906 26.0569 5.75369 26.0569 11.5695" stroke="#1F345D" stroke-width="1.91"/>
        <path d="M26.0572 22.0859V23.4643C26.0496 27.0976 23.102 30.0389 19.4688 30.0389" stroke="#1F345D" stroke-width="1.91"/>
    </symbol>
    <symbol id="gameLog" viewBox="0 0 27 31" fill="none" xmlns="http://www.w3.org/2000/svg">
        <path d="M3.06445 6.7272V3.9716C3.08366 2.73092 4.09295 1.73416 5.33377 1.73047H22.9879C24.2396 1.73434 25.2534 2.74808 25.2573 3.99979V27.4612C25.2534 28.7129 24.2396 29.7266 22.9879 29.7305H5.33377C4.08207 29.7266 3.06832 28.7129 3.06445 27.4612V24.7056" stroke="#1F345D" stroke-width="2" stroke-linecap="round" stroke-linejoin="round"/>
        <path d="M1.89453 6.72738H5.27737" stroke="#1F345D" stroke-width="2" stroke-linecap="round" stroke-linejoin="round"/>
        <path d="M1.89453 9.72152H5.27737" stroke="#1F345D" stroke-width="2" stroke-linecap="round" stroke-linejoin="round"/>
        <path d="M1.89453 12.7176H5.27737" stroke="#1F345D" stroke-width="2" stroke-linecap="round" stroke-linejoin="round"/>
        <path d="M1.89453 15.7137H5.27737" stroke="#1F345D" stroke-width="2" stroke-linecap="round" stroke-linejoin="round"/>
        <path d="M1.89453 18.7157H5.27737" stroke="#1F345D" stroke-width="2" stroke-linecap="round" stroke-linejoin="round"/>
        <path d="M1.89453 21.7098H5.27737" stroke="#1F345D" stroke-width="2" stroke-linecap="round" stroke-linejoin="round"/>
        <path d="M3.06443 24.7059H1.89453" stroke="#1F345D" stroke-width="2" stroke-linecap="round" stroke-linejoin="round"/>
        <circle cx="5.1364" cy="24.8747" r="0.704757" fill="#1F345D"/>
        <path d="M10.7754 7.70003H18.5982" stroke="#1F345D" stroke-width="2" stroke-linecap="round" stroke-linejoin="round"/>
        <path d="M8.63867 11.4852H20.6407" stroke="#1F345D" stroke-width="2" stroke-linecap="round" stroke-linejoin="round"/>
        <rect x="16.1582" y="22.7598" width="5.89177" height="3.87616" rx="1.81" stroke="#1F345D" stroke-width="2" stroke-linecap="round" stroke-linejoin="round"/>
    </symbol>
    <symbol id="exitGame" viewBox="0 0 32 22" fill="none" xmlns="http://www.w3.org/2000/svg">
        <path d="M7.38086 20.0898H12.3809" stroke="#1F345D" stroke-width="2" stroke-linecap="round" stroke-linejoin="round"/>
        <path d="M21.3809 20.0898H16.3809" stroke="#1F345D" stroke-width="2" stroke-linecap="round" stroke-linejoin="round"/>
        <path d="M21.3808 1.44984L15.5508 10.7698L16.4008 12.1298L21.3808 20.0898" stroke="#1F345D" stroke-width="2" stroke-linecap="round" stroke-linejoin="round"/>
        <path d="M16.3808 1.44984L10.5508 10.7698L12.0108 13.0998L16.3808 20.0898" stroke="#1F345D" stroke-width="2" stroke-linecap="round" stroke-linejoin="round"/>
        <path d="M12.3808 1.44984L6.55078 10.7698L7.90078 12.9298L12.3808 20.0898" stroke="#1F345D" stroke-width="2" stroke-linecap="round" stroke-linejoin="round"/>
        <path d="M7.38078 20.0898L1.55078 10.7698L7.38078 1.44984" stroke="#1F345D" stroke-width="2" stroke-linecap="round" stroke-linejoin="round"/>
        <path d="M30.5903 1.44922L28.0703 1.44922" stroke="#1F345D" stroke-width="2" stroke-linecap="round" stroke-linejoin="round"/>
        <path d="M25.5898 20.0898H30.5898" stroke="#1F345D" stroke-width="2" stroke-linecap="round" stroke-linejoin="round"/>
        <path d="M30.5917 1.44984L26.0517 8.70984L24.7617 10.7698L25.7017 12.2698V12.2798L30.5917 20.0898" stroke="#1F345D" stroke-width="2" stroke-linecap="round" stroke-linejoin="round"/>
        <path d="M24.0717 3.87984L20.2817 9.93984L19.7617 10.7698L25.5917 20.0898" stroke="#1F345D" stroke-width="2" stroke-linecap="round" stroke-linejoin="round"/>
        <circle cx="25.5898" cy="1.44922" r="1" transform="rotate(-90 25.5898 1.44922)" fill="#1F345D"/>
    </symbol>
    <symbol id="endGame" viewBox="0 0 23 32" fill="none" xmlns="http://www.w3.org/2000/svg">
        <path d="M4.38 11.51H5.3C6.8464 11.51 8.1 12.7636 8.1 14.31V14.66H18.17C19.8269 14.66 21.17 13.3169 21.17 11.66V6.8C21.17 5.14315 19.8269 3.8 18.17 3.8H11.33C9.7836 3.8 8.53 2.5464 8.53 1H1V30.13H16.8" stroke="#1F345D" stroke-width="2" stroke-linecap="round" stroke-linejoin="round"/>
        <circle cx="20.5" cy="29.9004" r="1" fill="#1F345D"/>
    </symbol>
    <symbol id="pauseGame" viewBox="0 0 33 34" fill="none" xmlns="http://www.w3.org/2000/svg">
        <path d="M26.6165 32.355H29.5065C30.7878 32.355 31.8265 31.3163 31.8265 30.035V21.385C31.7992 18.1925 29.2091 15.6158 26.0165 15.605H24.7265C24.5101 15.592 24.293 15.592 24.0765 15.605V11.375C24.078 9.99568 22.9944 8.85915 21.6165 8.795C20.8927 8.78954 20.1971 9.07606 19.6872 9.58981C19.1772 10.1036 18.8958 10.8012 18.9065 11.525V22.455" stroke="#1F345D" stroke-width="2" stroke-linecap="round" stroke-linejoin="round"/>
        <path d="M18.9172 22.8349L17.2472 21.1649C16.2726 20.1944 14.7095 20.1549 13.6872 21.0749C13.1692 21.5794 12.877 22.2718 12.877 22.9949C12.877 23.718 13.1692 24.4104 13.6872 24.9149L18.9172 30.1449" stroke="#1F345D" stroke-width="2" stroke-linecap="round" stroke-linejoin="round"/>
        <circle cx="23.3555" cy="32.3555" r="1" fill="#1F345D"/>
        <path d="M27.7472 10.8456C27.7446 9.22611 27.096 7.67459 25.9452 6.53509C24.7944 5.39559 23.2366 4.76228 21.6172 4.7756C18.2945 4.81932 15.6224 7.5226 15.6172 10.8456" stroke="#1F345D" stroke-width="2" stroke-linecap="round" stroke-linejoin="round"/>
        <path d="M11.4363 3.14549C13.3244 5.43708 13.2116 8.77577 11.173 10.9347C9.13452 13.0935 5.80778 13.3975 3.41176 11.6438C1.01573 9.89015 0.299683 6.6272 1.74122 4.03136C3.18275 1.43553 6.33108 0.318569 9.08627 1.42549" stroke="#1F345D" stroke-width="2" stroke-linecap="round" stroke-linejoin="round"/>
        <path d="M6.57617 4.23633V7.73633H8.72617" stroke="#1F345D" stroke-width="2" stroke-linecap="round" stroke-linejoin="round"/>
    </symbol>
    <symbol id="forfeitGame" viewBox="0 0 40 39" fill="none" xmlns="http://www.w3.org/2000/svg">
        <path d="M16.4597 6.90039L13.9297 13.0304" stroke="#1F345D" stroke-width="2" stroke-linecap="round" stroke-linejoin="round"/>
        <path d="M19.8009 5.00977H20.7209C21.8255 5.00977 22.7209 5.9052 22.7209 7.00977V12.0998C22.7209 12.873 22.0941 13.4998 21.3209 13.4998H17.8609C17.0877 13.4998 16.4609 12.873 16.4609 12.0998V6.89977" stroke="#1F345D" stroke-width="2" stroke-linecap="round" stroke-linejoin="round"/>
        <path d="M19.6895 1C18.5849 1 17.6895 1.89543 17.6895 3C17.6895 4.10457 18.5849 5 19.6895 5" stroke="#1F345D" stroke-width="2" stroke-linecap="round" stroke-linejoin="round"/>
        <path d="M22.5195 6.16992L25.1495 13.0299" stroke="#1F345D" stroke-width="2" stroke-linecap="round" stroke-linejoin="round"/>
        <path d="M17.1299 23.4691L16.4599 12.1191" stroke="#1F345D" stroke-width="2" stroke-linecap="round" stroke-linejoin="round"/>
        <path d="M22.7009 12.0801L22.0609 23.0601" stroke="#1F345D" stroke-width="2" stroke-linecap="round" stroke-linejoin="round"/>
        <path d="M19.5801 16.8301V23.2301C19.5853 23.3825 19.7076 23.5049 19.8601 23.5101H21.7701C21.9264 23.5102 22.0547 23.3863 22.0601 23.2301" stroke="#1F345D" stroke-width="2" stroke-linecap="round" stroke-linejoin="round"/>
        <path d="M1 36.8899V32.8099C1.00549 30.8019 2.63196 29.1754 4.64 29.1699H9.72C11.728 29.1754 13.3545 30.8019 13.36 32.8099V36.8899" stroke="#1F345D" stroke-width="2" stroke-linecap="round" stroke-linejoin="round"/>
        <path d="M13.3594 37.1399V27.0599C13.3649 25.0519 14.9913 23.4254 16.9994 23.4199H22.0794C24.0874 23.4254 25.7139 25.0519 25.7194 27.0599V37.1399" stroke="#1F345D" stroke-width="2" stroke-linecap="round" stroke-linejoin="round"/>
        <path d="M25.7207 37.1405V35.7005C25.7262 33.6925 27.3527 32.066 29.3607 32.0605H34.4407C36.4487 32.066 38.0752 33.6925 38.0807 35.7005V37.1405" stroke="#1F345D" stroke-width="2" stroke-linecap="round" stroke-linejoin="round"/>
    </symbol>
    <symbol id="goBackArrow" viewBox ="0 0 23 16" fill="none" xmlns="http://www.w3.org/2000/svg">
        <path d="M23 7H3.83L9.42 1.41L8 0L0 8L8 16L9.41 14.59L3.83 9H23V7Z" />
    </symbol >
    <symbol id="foul" viewBox="0 0 25 32" fill="none" xmlns="http://www.w3.org/2000/svg">
        <path d="M9.77526 30.972L2.6392 23.8359C1.55126 22.726 1.55126 20.9497 2.6392 19.8398C3.17087 19.3124 3.88847 19.0151 4.6373 19.012C5.38613 19.0151 6.10373 19.3124 6.63539 19.8398L8.46223 21.6809V5.85308C8.40683 4.41584 9.4611 3.17552 10.8885 2.99865C11.6254 2.94729 12.3506 3.20366 12.8916 3.70673C13.4325 4.2098 13.7407 4.91456 13.7429 5.65327V16.3716L20.7648 17.3707C22.0758 17.562 23.048 18.6861 23.0483 20.011C23.0433 23.7398 22.1789 27.4173 20.5222 30.7579L20.3937 31.0006" stroke="#1F345D" stroke-width="2"/>
        <path d="M5.06525 1C2.46653 3.60216 2.46653 7.81744 5.06525 10.4196" stroke="#1F345D" stroke-width="2"/>
        <path d="M17.1396 10.4196C19.7227 7.811 19.7227 3.6086 17.1396 1" stroke="#1F345D" stroke-width="2"/>
    </symbol>
    <symbol id="statsSwitch" viewBox="0 0 20 20" xmlns="http://www.w3.org/2000/svg">
        <path d="M0 11.1111H8.88889V0H0V11.1111Z" />
        <path d="M0 20H8.88889V13.3333H0V20Z" />
        <path d="M11.1113 20H20.0002V8.88892H11.1113V20Z" />
        <path d="M11.1113 0V6.66667H20.0002V0H11.1113Z" />
    </symbol>
    <symbol id="clip" viewBox="0 0 21 23" fill="none" xmlns="http://www.w3.org/2000/svg">
        <path d="M13.31 5.72026L5.59 13.5803C5.09592 14.0959 4.82625 14.7863 4.84 15.5003C4.84522 16.2216 5.13889 16.9109 5.65551 17.4144C6.17213 17.9178 6.86875 18.1936 7.59 18.1803C8.30647 18.1818 8.99395 17.8974 9.5 17.3903L17.82 9.07026C18.7101 8.18266 19.2102 6.97727 19.21 5.72026C19.2074 4.45881 18.701 3.25066 17.8034 2.36433C16.9058 1.478 15.6914 0.986928 14.43 1.00026C13.1785 1.00332 11.9786 1.49909 11.09 2.38026L3 10.5003C1.72362 11.7597 1.00355 13.4771 1 15.2703C1.0053 17.0605 1.72154 18.7753 2.99116 20.0374C4.26079 21.2995 5.97979 22.0056 7.77 22.0003C9.56316 21.9967 11.2805 21.2766 12.54 20.0003L19.16 13.3903" stroke="white"/>
    </symbol> 
    <symbol id="sendCursor" viewBox="0 0 23 23" fill="none" xmlns="http://www.w3.org/2000/svg">
        <path d="M15 20L10.64 12.36L3 8L21 2L15 20Z" stroke="white"/>
        <path d="M11 12L16 7" stroke="white" />
    </symbol>       
    <symbol id="forwardArrow" viewBox="0 0 18 15" fill="none" xmlns="http://www.w3.org/2000/svg">
        <path d="M7 4V0L0 7L7 14V9.9C12 9.9 15.5 11.5 18 15C17 10 14 5 7 4Z" fill="#C0C5D0"/>
    </symbol>
    <symbol id="fileUpload" viewBox="0 0 22 27" fill="none" xmlns="http://www.w3.org/2000/svg">
      <path d="M6.55273 16.8294L10.9998 12.3823L15.4468 16.8294" stroke="#B0B8CB" stroke-width="1.91"/>
      <path fill-rule="evenodd" clip-rule="evenodd" d="M21.0006 6.82934V7.94691H14.3301V1.27637H15.4477L21.0006 6.82934Z" stroke="#B0B8CB" stroke-width="1.91"/>
      <path d="M11 12.3823V25.7234H1V1.27637H15.447L21 6.82934V25.7234H14.4692" stroke="#B0B8CB" stroke-width="1.91"/>
    </symbol>
    <symbol id="file" viewBox="0 0 22 26" fill="none" xmlns="http://www.w3.org/2000/svg">
      <path d="M4.26953 11.9143H17.3667" stroke="#1F345D" stroke-width="1.91"/>
      <path d="M4.26953 16.2686H17.3667" stroke="#1F345D" stroke-width="1.91"/>
      <path d="M4.26953 20.6343H17.3667" stroke="#1F345D" stroke-width="1.91"/>
      <path fill-rule="evenodd" clip-rule="evenodd" d="M20.6343 6.45143V25H1V1H15.1829L20.6343 6.45143Z" stroke="#1F345D" stroke-width="1.91"/>
      <path fill-rule="evenodd" clip-rule="evenodd" d="M20.6345 6.45143V7.54857H14.0859V1H15.1831L20.6345 6.45143Z" stroke="#1F345D" stroke-width="1.91"/>
    </symbol>
    <symbol id="soccer" viewBox ="0 0 1024 1024" version="1.1" xmlns="http://www.w3.org/2000/svg" >
        <path d="M511.046103 515.13262m-441.67126 0a441.67126 441.67126 0 1 0 883.34252 0 441.67126 441.67126 0 1 0-883.34252 0Z" fill="#666263" ></path>
        <path d="M443.466167 595.028553l-38.686451-119.062155-161.231177-52.39096-124.779892 88.735002c1.41109 156.631022 74.787785 232.829897 74.787786 232.829897l144.743997-5.362143 105.165737-144.749641zM406.055341 452.638254l106.983221-77.728498V221.354911L389.697983 135.549333c-118.531584 33.866167-190.497189 131.231397-190.497189 131.231397l39.437151 131.457171 167.417396 54.400353zM535.621651 374.909756l106.971933 77.728498 158.036468-51.352398 36.377907-123.216404c-86.076508-111.476133-194.73046-142.520119-194.730459-142.520119L535.621651 214.017242v160.892514zM908.973564 509.488259L794.398677 427.052365l-150.523823 48.908389-38.686451 119.062154 107.017087 147.300893h124.802469c77.609966-91.720869 71.965605-232.835542 71.965605-232.835542zM584.750171 605.295645H463.910043l-111.23907 153.103297 45.487907 127.850424c101.598501 50.79925 244.11862 0 244.11862 0l46.103142-138.309426-103.630471-142.644295z" fill="#E9F5FC" ></path>
    </symbol>
    <symbol id="basketball" viewBox ="0 0 1024 1024" version="1.1" xmlns="http://www.w3.org/2000/svg" >
        <path d="M512 512m-473.740923 0a473.740923 473.740923 0 1 0 947.481846 0 473.740923 473.740923 0 1 0-947.481846 0Z" fill="#FFBAB0" ></path>
        <path d="M512 1014.405247a502.405247 502.405247 0 1 1 502.405247-502.405247 503.004919 503.004919 0 0 1-502.405247 502.405247z m0-947.481846A445.076599 445.076599 0 1 0 957.076599 512 445.676271 445.676271 0 0 0 512 66.923401z" fill="#783741" p-id="5501"></path><path d="M467.744202 1024a38.259077 38.259077 0 0 1 0-76.518154 435.481846 435.481846 0 0 0 0-870.963692 38.259077 38.259077 0 0 1 0-76.518154 512 512 0 0 1 0 1024z" fill="#783741" opacity=".2" ></path>
        <path d="M551.818224 988.019677a19.669243 19.669243 0 0 1-9.834621-2.758492C407.297259 904.065589 320.224877 707.613024 320.224877 485.374561c0-202.209417 71.960647-378.393066 193.454205-471.102366A19.069571 19.069571 0 1 1 537.306161 44.615601c-110.099789 83.954088-178.462403 253.181541-178.462404 440.75896 0 206.167252 81.675334 393.864605 203.168892 467.024596a19.189506 19.189506 0 0 1-9.834621 35.980323z" fill="#783741" ></path>
        <path d="M494.369642 615.263528C261.457016 615.263528 10.314359 569.08878 10.314359 467.744202a19.189506 19.189506 0 1 1 38.259077 0c0 45.814945 154.835324 109.260248 445.796206 109.260249S966.671352 513.319279 966.671352 467.744202a19.189506 19.189506 0 1 1 38.379011 0c0 96.78707-257.019442 147.519325-510.680721 147.519326zM348.169595 438.120403c-117.055985 0-213.843055-165.029749-213.843055-249.34364a19.069571 19.069571 0 0 1 38.139143 0c0 65.963926 85.033497 211.084563 175.703912 211.084563 100.505036 0 211.564301-20.38885 342.05294-168.747716l0.83954-0.959476 6.476459-6.836261c18.709768-20.148981 57.448583-62.00609 107.940969-63.565238a117.175919 117.175919 0 0 1 84.673694 36.939799 19.189506 19.189506 0 1 1-26.38557 27.704849 80.116186 80.116186 0 0 0-57.088779-26.385571c-34.900914 1.07941-65.24432 33.701569-81.5554 51.331928l-7.07613 7.435934C578.203795 416.172406 457.549777 438.120403 348.169595 438.120403zM774.65636 908.143359c-50.492387 0-95.347857-40.897634-112.498478-56.489107l-1.679081-1.559148c-67.882877-61.766222-129.769033-93.189037-279.087374-93.189037s-184.459124 92.589365-185.898337 95.947529a19.189506 19.189506 0 0 1-35.980324-11.993441c1.319279-4.557508 41.977044-122.213165 221.878661-122.213165 160.951979 0 231.353479 35.980323 304.873272 103.143593l1.679082 1.559148c14.512064 13.192785 52.411338 47.973764 89.351136 46.534551a57.08878 57.08878 0 0 0 40.417896-21.348325 19.189506 19.189506 0 0 1 28.424456 25.665964 94.868119 94.868119 0 0 1-67.043336 33.821504z" fill="#783741" ></path>
    </symbol>
    <symbol id="baseball" viewBox ="0 0 1024 1024" version="1.1" xmlns="http://www.w3.org/2000/svg" >
        <path d="M512 512m-399.6 0a399.6 399.6 0 1 0 799.2 0 399.6 399.6 0 1 0-799.2 0Z" fill="#ECEFF1" ></path>
        <path d="M512 112.4c-17 0-33.6 1-50 3.2 197.2 24.6 349.6 192.8 349.6 396.4S659.2 883.8 462 908.4c16.4 2 33 3.2 50 3.2 220.6 0 399.6-178.8 399.6-399.6S732.6 112.4 512 112.4zM112.4 512c0 118.4 51.4 224.6 133.2 297.8 81.8-73.2 133.2-179.4 133.2-297.8s-51.4-224.6-133.2-297.8C163.8 287.4 112.4 393.6 112.4 512z" fill="#D0D5D9" p-id="2844"></path><path d="M423.2 534.2h-88.8c-12.2 0-22.2-10-22.2-22.2s10-22.2 22.2-22.2h88.8c12.2 0 22.2 10 22.2 22.2s-10 22.2-22.2 22.2zM337.2 252l-62.8 62.8c-8.6 8.6-22.8 8.6-31.4 0-8.6-8.6-8.6-22.8 0-31.4l62.8-62.8c8.6-8.6 22.8-8.6 31.4 0 8.8 8.6 8.8 22.8 0 31.4z" fill="#39C6D9"></path>
        <path d="M404 389.2l-86 22c-11.8 3-24-4.2-27-16s4.2-24 16-27l86-22c11.8-3 24 4.2 27 16 3 12-4.2 24-16 27z" fill="#465A63" ></path>
        <path d="M337.2 772l-62.8-62.8c-8.6-8.6-22.8-8.6-31.4 0-8.6 8.6-8.6 22.8 0 31.4l62.8 62.8c8.6 8.6 22.8 8.6 31.4 0 8.8-8.6 8.8-22.8 0-31.4z" fill="#39C6D9" ></path>
        <path d="M404 634.8l-86-22c-11.8-3-24 4.2-27 16s4.2 24 16 27l86 22c11.8 3 24-4.2 27-16s-4.2-24-16-27z" fill="#465A63" ></path>
        <path d="M600.8 534.2h88.8c12.2 0 22.2-10 22.2-22.2s-10-22.2-22.2-22.2h-88.8c-12.2 0-22.2 10-22.2 22.2s10 22.2 22.2 22.2zM686.8 252l62.8 62.8c8.6 8.6 22.8 8.6 31.4 0 8.6-8.6 8.6-22.8 0-31.4l-62.8-62.8c-8.6-8.6-22.8-8.6-31.4 0-8.8 8.6-8.8 22.8 0 31.4z" fill="#39C6D9" ></path>
        <path d="M620 389.2l86 22c11.8 3 24-4.2 27-16s-4.2-24-16-27l-86-22c-11.8-3-24 4.2-27 16s4.2 24 16 27z" fill="#465A63" ></path>
        <path d="M686.8 772l62.8-62.8c8.6-8.6 22.8-8.6 31.4 0 8.6 8.6 8.6 22.8 0 31.4l-62.8 62.8c-8.6 8.6-22.8 8.6-31.4 0-8.8-8.6-8.8-22.8 0-31.4z" fill="#39C6D9" ></path>
        <path d="M620 634.8l86-22c11.8-3 24 4.2 27 16s-4.2 24-16 27l-86 22c-11.8 3-24-4.2-27-16s4.2-24 16-27z" fill="#465A63" ></path>
        <path d="M467.6 747h88.8V794h-88.8z" fill="#FDC93C" ></path>
        <path d="M873.2 710.2l0.6-1.2c30.2-55.4 48.2-118.4 50-185.4v-0.8c0-3.6 0.2-7.2 0.2-11s0-7.2-0.2-11v-0.8c-1.8-67-19.8-130-50-185.4l-0.6-1.2c-1.4-2.4-2.6-4.8-4-7.2-21.6-37.8-49.4-72.2-82.4-101.8-0.6-0.4-1.2-1-1.8-1.2C712.2 139.2 616.6 100 512 100s-200.2 39.2-273 103.6l-1.8 1.2c-33 29.6-60.8 64-82.4 101.8-1.4 2.4-2.6 4.6-4 7-0.2 0.4-0.6 1-0.8 1.4-30.2 55.4-48.2 118.4-50 185.4v0.8c0 3.6-0.2 7.2-0.2 10.8s0 7.2 0.2 10.8v0.8c1.8 67 19.8 130 50 185.4 0.2 0.4 0.6 1 0.8 1.4 1.2 2.4 2.6 4.6 4 7 21.6 37.8 49.4 72.2 82.4 101.8 0.6 0.4 1.2 1 1.8 1.2C311.8 884.8 407.4 924 512 924s200.2-39.2 273-103.6l1.8-1.2c33-29.6 60.8-64 82.4-101.8 1.4-2.4 2.6-4.8 4-7.2z m-18-19.2c-0.2 0.4-0.4 0.6-0.4 1l-3.6 6.6c-0.6 1.2-1.4 2.4-2 3.6-0.8 1.2-1.4 2.6-2.2 3.8l-3.6 6-0.6 1.2c-18 29.4-39.6 56.2-64.4 79.6-5.4-5.2-10.6-10.6-15.8-16l27.2-27.2c6.6-6.6 10.2-15.2 10.2-24.6 0-9.2-3.6-18-10.2-24.6-13.6-13.6-35.6-13.6-49 0l-21.2 21.2c-9.6-15-18.4-30.8-25.8-47l26.6-6.8c18.6-4.8 29.8-23.8 25-42.2s-23.8-29.8-42.2-25l-32.8 8.4c-5.2-20.4-9-41.2-10.8-62.4H690c19.2 0 34.6-15.6 34.6-34.6 0-19.2-15.6-34.6-34.6-34.6h-30.4c2-21.2 5.6-42 10.8-62.2l32.8 8.4c2.8 0.8 5.8 1 8.6 1 15.4 0 29.6-10.4 33.6-26 2.4-9 1-18.4-3.8-26.2-4.8-8-12.2-13.6-21.2-16l-26.6-6.8c7.6-16.2 16-32 25.8-47l21.2 21.2c6.6 6.6 15.2 10.2 24.6 10.2 9.2 0 18-3.6 24.6-10.2 6.6-6.6 10.2-15.2 10.2-24.6 0-9.2-3.6-18-10.2-24.6l-27.2-27.2c5.2-5.4 10.4-10.8 15.8-16 24.8 23.6 46.6 50.4 64.4 79.6l0.6 1.2 3.6 6c0.8 1.2 1.4 2.6 2.2 3.8 0.6 1.2 1.4 2.4 2 3.6l3.6 6.6c0.2 0.4 0.4 0.6 0.4 1 28.6 54.8 44 116 44 179-0.2 62.8-15.6 124-44.2 178.8zM758.4 718c1.8-1.8 4.4-2.8 6.8-2.8 2.4 0 5 1 6.8 2.8 1.8 1.8 2.8 4.2 2.8 6.8s-1 5-2.8 6.8l-62.8 62.8c-3.8 3.8-10 3.8-13.8 0-1.8-1.8-2.8-4.2-2.8-6.8 0-2.6 1-5 2.8-6.8l63-62.8z m-135.2-71.2l86-22c5.2-1.4 10.4 1.8 11.8 7 1.4 5.2-1.8 10.4-7 11.8l-86 22c-5.2 1.4-10.4-1.8-11.8-7-1.4-5.2 1.8-10.4 7-11.8z m66.4-144.6c5.4 0 9.8 4.4 9.8 9.8s-4.4 9.8-9.8 9.8h-88.8c-5.4 0-9.8-4.4-9.8-9.8s4.4-9.8 9.8-9.8h88.8z m24.4-121.8c2.6 0.6 4.6 2.2 6 4.4 1.4 2.2 1.6 4.8 1 7.4-1.4 5.2-6.6 8.4-11.8 7l-86-22c-2.6-0.6-4.6-2.2-6-4.4-1.4-2.2-1.6-4.8-1-7.4 1.2-4.4 5-7.2 9.4-7.2 0.8 0 1.6 0 2.4 0.4l86 21.8z m-21.4-144c0-2.6 1-5 2.8-6.8 1.8-1.8 4.4-2.8 6.8-2.8 2.4 0 5 1 6.8 2.8l62.8 62.8c1.8 1.8 2.8 4.2 2.8 6.8 0 2.6-1 5-2.8 6.8-3.6 3.6-10 3.6-13.8 0l-62.8-62.8c-1.4-1.8-2.6-4.2-2.6-6.8zM245.8 792.8c-24.8-23.6-46.6-50.4-64.4-79.6l-0.6-1.2-3.6-6c-0.8-1.2-1.4-2.6-2.2-3.8-0.6-1.2-1.4-2.4-2-3.6l-3.6-6.6c-0.2-0.4-0.4-0.6-0.4-1-28.6-54.8-44-116-44-179s15.4-124.2 44-179c0.2-0.4 0.4-0.6 0.4-1l3.6-6.6c0.6-1.2 1.4-2.4 2-3.6 0.8-1.2 1.4-2.6 2.2-3.8l3.6-6 0.6-1.2c18-29.4 39.6-56.2 64.4-79.6 5.4 5.2 10.6 10.6 15.8 16l-27.2 27.2c-6.6 6.6-10.2 15.2-10.2 24.6 0 9.2 3.6 18 10.2 24.6 6.6 6.6 15.2 10.2 24.6 10.2 9.2 0 18-3.6 24.6-10.2l21.2-21.2c9.6 15 18.2 30.8 25.8 47l-26.6 6.8c-9 2.4-16.6 8-21.2 16-4.8 8-6 17.4-3.8 26.2 2.4 9 8 16.6 16 21.2 5.4 3.2 11.4 4.8 17.6 4.8 2.8 0 5.8-0.4 8.6-1.2l32.8-8.4c5.2 20.4 9 41.2 10.8 62.2h-30.2c-19.2 0-34.6 15.6-34.6 34.6 0 19.2 15.6 34.6 34.6 34.6h30.4c-2 21.2-5.6 42-10.8 62.4l-32.8-8.4c-9-2.4-18.4-1-26.2 3.8-8 4.8-13.6 12.2-16 21.2-2.4 9-1 18.4 3.8 26.2 4.8 8 12.2 13.6 21.2 16l26.6 6.8c-7.6 16.2-16.2 32-25.8 47L283.8 700c-13.6-13.6-35.6-13.6-49 0-6.6 6.6-10.2 15.2-10.2 24.6 0 9.2 3.6 18 10.2 24.6l27.2 27.2c-5.6 5.8-10.8 11.2-16.2 16.4z m69-563.4c1.8-1.8 4.4-2.8 6.8-2.8 2.4 0 5 1 6.8 2.8 1.8 1.8 2.8 4.2 2.8 6.8 0 2.6-1 5-2.8 6.8L265.6 306c-1.8 1.8-4.2 2.8-6.8 2.8-2.6 0-5-1-6.8-2.8-1.8-1.8-2.8-4.2-2.8-6.8 0-2.6 1-5 2.8-6.8l62.8-63z m81.2 129c0.8-0.2 1.6-0.4 2.4-0.4 1.8 0 3.4 0.4 5 1.4 2.2 1.4 3.8 3.4 4.4 6 0.6 2.6 0.2 5.2-1 7.4-1.4 2.2-3.4 3.8-6 4.4l-86 22c-2.6 0.6-5.2 0.2-7.4-1-2.2-1.4-3.8-3.4-4.4-6-0.6-2.6-0.2-5.2 1-7.4 1.4-2.2 3.4-3.8 6-4.4l86-22z m27.2 143.8c5.4 0 9.8 4.4 9.8 9.8s-4.4 9.8-9.8 9.8h-88.8c-5.4 0-9.8-4.4-9.8-9.8s4.4-9.8 9.8-9.8h88.8z m-22.4 144.6c5.2 1.4 8.4 6.6 7 11.8-0.6 2.6-2.2 4.6-4.4 6-2.2 1.4-4.8 1.6-7.4 1l-86-22c-5.2-1.4-8.4-6.6-7-11.8 0.6-2.6 2.2-4.6 4.4-6 1.6-0.8 3.2-1.4 5-1.4 0.8 0 1.6 0.2 2.4 0.4l86 22z m-69.4 140.8c0 2.6-1 5-2.8 6.8-3.8 3.8-10 3.8-13.8 0L252 731.8c-1.8-1.8-2.8-4.2-2.8-6.8s1-5 2.8-6.8c1.8-1.8 4.4-2.8 6.8-2.8 2.4 0 5 1 6.8 2.8l62.8 62.8c2 1.6 3 4 3 6.6z m-67 21.8c5-4.8 10-9.8 14.8-15l17.8 17.8c6.8 6.8 15.6 10.2 24.6 10.2 8.8 0 17.8-3.4 24.6-10.2 6.6-6.6 10.2-15.2 10.2-24.6 0-9.2-3.6-18-10.2-24.6l-23.6-23.6c12.4-18.6 23.2-38.4 32.4-58.8l34.8 9c2.8 0.8 5.8 1.2 8.6 1.2 6.2 0 12.2-1.6 17.6-4.8 8-4.8 13.6-12.2 16-21.2 2.4-9 1-18.4-3.8-26.2-4.8-8-12.2-13.6-21.2-16l-29-7.4c5.8-22.4 9.8-45.2 11.8-68.6h33.4c19.2 0 34.6-15.6 34.6-34.6 0-19.2-15.6-34.6-34.6-34.6h-33.4c-2-23.2-6-46.2-11.8-68.6l29-7.4c9-2.4 16.6-8 21.2-16 4.8-8 6-17.4 3.8-26.2-2.4-9-8-16.6-16-21.2-8-4.8-17.4-6-26.2-3.8l-34.8 9c-9.2-20.4-20-40-32.4-58.8l23.6-23.6c6.6-6.6 10.2-15.2 10.2-24.6 0-9.2-3.6-18-10.2-24.6-13.6-13.6-35.6-13.6-49 0l-17.8 17.8c-4.8-5.2-9.8-10.2-14.8-15 67.2-56 153.6-89.8 247.6-89.8s180.4 33.8 247.6 89.8c-5 4.8-10 9.8-14.8 15l-17.8-17.8c-13.6-13.6-35.6-13.6-49 0-6.6 6.6-10.2 15.2-10.2 24.6 0 9.2 3.6 18 10.2 24.6l23.6 23.6c-12.4 18.6-23.2 38.4-32.4 58.8l-34.8-9c-18.6-4.8-37.4 6.4-42.2 25-2.4 9-1 18.4 3.8 26.2 4.8 8 12.2 13.6 21.2 16l29 7.4c-5.8 22.4-9.8 45.2-11.8 68.6h-33.4c-19.2 0-34.6 15.6-34.6 34.6 0 19.2 15.6 34.6 34.6 34.6h33.4c2 23.2 6 46.2 11.8 68.6l-29 7.4c-18.6 4.8-29.8 23.8-25 42.2 4 15.6 18.2 26 33.6 26 2.8 0 5.8-0.4 8.6-1l34.8-9c9.2 20.4 20 40 32.4 58.8l-23.6 23.6c-6.6 6.6-10.2 15.2-10.2 24.6 0 9.2 3.6 18 10.2 24.6 6.8 6.8 15.6 10.2 24.6 10.2 8.8 0 17.8-3.4 24.6-10.2l17.8-17.8c4.8 5.2 9.8 10 14.8 15-67.2 56-153.6 89.8-247.6 89.8-94.4-0.2-180.8-34-248-90z" fill="#17171D"></path>
        <path d="M556.4 734.6h-88.8c-3.4 0-6.4 1.4-8.8 3.6-2.4 2.4-3.6 5.6-3.6 8.8V794c0 6.8 5.6 12.4 12.4 12.4h88.8c6.8 0 12.4-5.6 12.4-12.4v-47c0-6.8-5.4-12.4-12.4-12.4z m-12.4 47h-64v-22h63.8v22zM540.2 174.2c1.8 1.2 3.8 2.2 6.2 2.4 27.2 2.8 53.8 8.8 79.4 18 6.4 2.4 13.6-1 16-7.6 2.4-6.4-1-13.6-7.6-16-27.4-9.8-56.2-16.4-85.4-19.4-6.8-0.6-13 4.2-13.6 11.2-0.4 4.6 1.6 8.8 5 11.4zM482.2 173.2c2.2 1.6 5.2 2.6 8.2 2.4 7.6-0.4 15.4-0.8 23-0.8 6.8 0 12.6-5.6 12.6-12.4 0-6.8-5.6-12.6-12.4-12.6-8.2 0-16.6 0.2-24.8 0.8-6.8 0.4-12 6.4-11.6 13.2 0.2 3.8 2.2 7.2 5 9.4z" fill="#17171D" ></path>
    </symbol>
    <symbol id="elyte-logo" viewBox="0 0 122 34" fill="none" xmlns="http://www.w3.org/2000/svg">
        <path d="M23.6122 8.95516V15.6335H34.197C33.9646 12.6443 32.9763 9.76646 31.3276 7.27783H25.2657C24.353 7.27925 23.6136 8.02939 23.6122 8.95516Z" fill="#192A4B"/>
        <path d="M23.6122 18.3286V25.007C23.6136 25.9328 24.3527 26.6829 25.2649 26.6843H31.3238C32.9736 24.1962 33.9632 21.3183 34.197 18.3286H23.6122Z" fill="#192A4B"/>
        <path d="M8.80528 4.76162C11.2278 4.76439 13.1909 6.72633 13.1937 9.14736V15.6332H20.7318V9.14736C20.7345 6.72633 22.6977 4.76439 25.1202 4.76162H28.7688C22.18 -1.58721 11.7455 -1.58721 5.15662 4.76162H8.80528Z" fill="#192A4B"/>
        <path d="M25.1202 29.2002C22.6977 29.1975 20.7345 27.2355 20.7318 24.8145V18.3286H13.1937V24.8145C13.1909 27.2355 11.2278 29.1975 8.80528 29.2002H5.15662C11.7455 35.5491 22.18 35.5491 28.7688 29.2002H25.1202Z" fill="#192A4B"/>
        <path d="M10.5848 25.007V18.3286H0C0.233861 21.3183 1.22392 24.1962 2.8745 26.6843H8.93131C9.84392 26.6829 10.5834 25.9328 10.5848 25.007Z" fill="#192A4B"/>
        <path d="M10.5848 8.95516C10.5834 8.02939 9.84392 7.27925 8.93131 7.27783H2.8745C1.22392 9.76594 0.233861 12.6439 0 15.6335H10.5848V8.95516Z" fill="#192A4B"/>
        <path d="M57.9243 12.6559H48.1372V15.8324H57.1153V18.4459H48.1372V22.3035H58.3702V25H44.3636V10H57.9243V12.6559Z" fill="#192A4B"/>
        <path d="M61.5718 10H65.4678V22.3035H74.778V25H61.5718V10Z" fill="#192A4B"/>
        <path d="M85.6161 10H89.985L83.8147 19.3759V25H79.9602V19.3759L73.5773 10H78.1198L81.9504 16.5294L85.6161 10Z" fill="#192A4B"/>
        <path d="M105.592 10V12.6559H99.9756V25H96.0286V12.6559H90.3853V10.0088L105.592 10Z" fill="#192A4B"/>
        <path d="M121.565 12.6559H111.775V15.8324H120.756V18.4459H111.775V22.3035H122V25H107.994V10H121.565V12.6559Z" fill="#192A4B"/>
    </symbol>
</svg>