<svg width="306" height="300" viewBox="0 0 306 300" fill="none" xmlns="http://www.w3.org/2000/svg">
<path d="M304.593 272.812H261.438V277.402C261.438 289.283 271.098 298.915 283.015 298.915C294.933 298.915 304.593 289.283 304.593 277.402V272.812Z" fill="#D7E8F0"/>
<path d="M117.423 65.7338L117.353 22.7097C117.354 10.7245 127.052 1.00746 139.018 1H283.015" stroke="#CCDDE2" stroke-width="2"/>
<path d="M261.263 276.989V272.695V62.2777V22.926" stroke="#CCDDE2" stroke-width="2"/>
<path d="M261.438 57.2427H304.593V22.9588C304.593 11.0235 294.933 1.34799 283.015 1.34799C271.098 1.34799 261.438 11.0235 261.438 22.9588V62.2534" fill="#D7E8F0"/>
<path d="M261.258 57.078H304.593V22.7437C304.593 10.7908 294.892 1.1011 282.926 1.1011C270.959 1.1011 261.258 10.7908 261.258 22.7437V62.0961" stroke="#CCDDE2" stroke-width="2"/>
<path d="M261.251 272.52V276.814C261.253 288.767 270.955 298.456 282.922 298.456" stroke="#CCDDE2" stroke-width="2"/>
<path d="M149.026 298.46H138.944" stroke="#CCDDE2" stroke-width="2"/>
<path d="M261.258 272.517H304.593V276.81C304.59 288.765 294.888 298.456 282.919 298.459H178.302" stroke="#CCDDE2" stroke-width="2"/>
<path d="M237.006 96.272H201.997" stroke="#CCDDE2" stroke-width="2"/>
<path d="M237.006 109.83H201.997" stroke="#CCDDE2" stroke-width="2"/>
<path d="M237.006 123.391H201.997" stroke="#CCDDE2" stroke-width="2"/>
<path d="M237.006 136.949H201.997" stroke="#CCDDE2" stroke-width="2"/>
<path d="M237.006 150.51H201.997" stroke="#CCDDE2" stroke-width="2"/>
<path d="M237.006 164.068H201.997" stroke="#CCDDE2" stroke-width="2"/>
<path d="M237.006 209.365H201.997" stroke="#CCDDE2" stroke-width="2"/>
<path d="M237.006 215.687H201.997" stroke="#CCDDE2" stroke-width="2"/>
<path d="M237.006 222.01H201.997" stroke="#CCDDE2" stroke-width="2"/>
<path d="M237.006 228.332H201.997" stroke="#CCDDE2" stroke-width="2"/>
<rect x="186.329" y="78.4948" width="65.7556" height="168.194" rx="20.3" stroke="#CCDDE2" stroke-width="2"/>
<path d="M201.997 64.9775H174.3" stroke="#CCDDE2" stroke-width="2"/>
<path d="M201.997 49.0505H178.771" stroke="#CCDDE2" stroke-width="2"/>
<path d="M201.997 57.014H175.525" stroke="#CCDDE2" stroke-width="2"/>
<path d="M201.997 41.0837H170.663" stroke="#CCDDE2" stroke-width="2"/>
<circle cx="227.331" cy="46.5921" r="4.17637" fill="#D7E8F0"/>
<path d="M216.542 63.9936C216.645 58.1977 221.445 53.5527 227.33 53.5527C233.216 53.5527 238.016 58.1977 238.119 63.9936H216.542Z" fill="#D7E8F0"/>
<rect x="212.713" y="38.5874" width="29.2346" height="29.2346" rx="9.18" stroke="#CCDDE2" stroke-width="2"/>
<path d="M228.381 258.508L231.552 264.964C231.724 265.313 232.055 265.556 232.438 265.614L239.538 266.65C239.986 266.712 240.359 267.027 240.499 267.459C240.638 267.892 240.518 268.367 240.191 268.681L235.064 273.709C234.786 273.981 234.66 274.374 234.727 274.758L235.936 281.867C236.012 282.312 235.83 282.762 235.467 283.027C235.104 283.292 234.622 283.327 234.225 283.117L227.886 279.768C227.543 279.586 227.132 279.586 226.789 279.768L220.453 283.117C220.055 283.326 219.574 283.291 219.211 283.026C218.848 282.761 218.665 282.312 218.739 281.867L219.951 274.758C220.018 274.374 219.892 273.981 219.615 273.709L214.47 268.664C214.143 268.35 214.023 267.875 214.163 267.443C214.302 267.01 214.675 266.695 215.124 266.633L222.193 265.597C222.577 265.54 222.909 265.297 223.082 264.947L226.267 258.508C226.465 258.103 226.875 257.847 227.324 257.847C227.773 257.847 228.183 258.103 228.381 258.508Z" fill="#D7E8F0"/>
<path d="M138.522 274.635H198.842" stroke="#CCDDE2" stroke-width="2"/>
<path d="M138.522 283.091H198.842" stroke="#CCDDE2" stroke-width="2"/>
<path fill-rule="evenodd" clip-rule="evenodd" d="M117.718 67.676C115.898 77.0078 111.868 118.276 108.252 157.726C108.132 157.817 108.007 157.9 107.877 157.975C107.615 158.14 107.352 158.312 107.079 158.457C107.079 158.457 107.058 158.457 107.045 158.48C107.038 158.478 107.031 158.478 107.025 158.48L106.533 158.753L106.334 158.854C106.125 158.962 105.929 159.06 105.721 159.147L105.657 159.181C105.491 159.258 105.319 159.336 105.141 159.4L104.878 159.521C104.669 159.599 104.45 159.686 104.241 159.76L103.682 159.959C103.589 159.982 103.498 160.011 103.409 160.047C103.233 160.101 103.072 160.155 102.883 160.198C102.819 160.222 102.751 160.232 102.687 160.256C102.455 160.32 102.216 160.377 101.973 160.431C101.73 160.485 101.535 160.529 101.299 160.572C101.268 160.585 101.235 160.592 101.201 160.596C101.179 160.601 101.156 160.601 101.134 160.596C100.894 160.64 100.652 160.683 100.423 160.717C100.379 160.717 100.335 160.717 100.281 160.737C99.9946 160.781 99.7115 160.815 99.4251 160.835C99.1386 160.855 98.8319 160.892 98.5252 160.902C98.2185 160.913 97.9118 160.923 97.6052 160.923C96.1631 160.929 94.7249 160.772 93.3183 160.454C86.3053 158.838 80.7656 153.471 78.931 146.514C78.8569 146.177 78.7794 145.84 78.712 145.503C78.4474 144.231 78.3153 142.935 78.3177 141.636C78.3196 142.771 78.2215 143.904 78.0245 145.022C77.9368 145.524 77.8256 146.009 77.6874 146.501C75.4727 154.997 67.7971 160.927 59.0133 160.927C50.2295 160.927 42.5539 154.997 40.3392 146.501C40.1393 145.737 39.9896 144.962 39.8909 144.179C39.7798 143.336 39.7247 142.486 39.7258 141.636C39.7219 142.508 39.6634 143.379 39.5506 144.243C39.445 145.004 39.2954 145.758 39.1023 146.501C36.9512 154.697 29.7092 160.536 21.2404 160.902C20.9674 160.902 20.6944 160.923 20.4214 160.923C9.78241 160.912 1.1616 152.291 1.15417 141.656V141.626H1.11035V123.138C1.10767 118.869 2.80263 114.775 5.82178 111.757C8.84094 108.739 12.9366 107.045 17.2063 107.048H94.2181C96.2656 107.048 97.9253 105.389 97.9253 103.342C97.9253 101.296 96.2656 99.6364 94.2181 99.6364H62.5385C58.912 99.6346 55.9695 96.7022 55.9566 93.0772V74.2386C55.964 70.6172 58.8989 67.6834 62.5217 67.676L117.718 67.676Z" stroke="#CCDDE2" stroke-width="2"/>
<path d="M214.038 298.386L20.1213 298.786C16.5025 298.777 13.5707 295.848 13.5596 292.231V159.673C15.7566 160.513 18.0893 160.942 20.4415 160.94C20.7144 160.94 20.9841 160.94 21.257 160.919C26.2814 160.719 31.0269 158.558 34.4749 154.899" stroke="#CCDDE2" stroke-width="2"/>
<path d="M81.1958 151.783C83.9155 156.182 88.2855 159.308 93.3284 160.461" stroke="#CCDDE2" stroke-width="2"/>
<path d="M104.959 271.886H67.0815" stroke="#CCDDE2" stroke-width="2"/>
<path d="M26.2284 271.684C23.311 270.949 21.265 268.328 21.2607 265.32V160.926C26.2838 160.716 31.0259 158.552 34.4752 154.896" stroke="#CCDDE2" stroke-width="2"/>
<path d="M81.1958 151.783C83.9155 156.182 88.2855 159.308 93.3284 160.461" stroke="#CCDDE2" stroke-width="2"/>
<path fill-rule="evenodd" clip-rule="evenodd" d="M178.102 191.162C179.059 188.861 179.982 187.041 180.528 186.017C180.807 185.498 180.618 184.85 180.103 184.562L174.314 182.123C173.856 181.864 173.295 181.868 172.84 182.133C172.386 182.398 172.106 182.884 172.106 183.41C172.106 188.463 170.657 193.223 165.602 193.223C160.546 193.223 159.094 188.463 159.094 183.41V183.191C159.096 182.685 158.839 182.213 158.413 181.939C157.986 181.666 157.45 181.63 156.991 181.843L151.083 184.036C150.787 184.172 150.568 184.433 150.486 184.748C150.404 185.062 150.467 185.397 150.658 185.66L150.739 185.771C157.192 194.78 158.327 206.552 153.715 216.627L151.629 221.208C151.33 221.867 151.386 222.632 151.778 223.239C152.169 223.847 152.843 224.214 153.567 224.213H179.264C180 224.213 180.682 223.833 181.07 223.208C181.457 222.583 181.495 221.803 181.168 221.144L178.988 216.745C175.007 208.746 174.684 199.416 178.102 191.162V191.162Z" stroke="#CCDDE2" stroke-width="2"/>
<path d="M156.452 205.755H175.887" stroke="#CCDDE2" stroke-width="2"/>
<path d="M160.833 205.759C160.924 209.067 160.867 217.584 158.137 224.2" stroke="#CCDDE2" stroke-width="2"/>
<path d="M174.179 224.2C171.452 217.584 171.398 209.067 171.483 205.759" stroke="#CCDDE2" stroke-width="2"/>
<path d="M166.171 224.2V205.759" stroke="#CCDDE2" stroke-width="2"/>
<path d="M77.6548 88.1851V81.9429C77.6548 81.4723 77.8429 81.0211 78.1776 80.6887C78.5123 80.3563 78.9661 80.17 79.439 80.1709C80.1054 80.1705 80.7161 80.541 81.0209 81.1307L81.9619 82.943C82.5085 83.9636 82.9852 85.0198 83.3886 86.1043H83.4257C83.2928 84.8447 83.2309 83.5786 83.2402 82.312V81.1811C83.2402 80.625 83.6932 80.1743 84.252 80.1743H84.4375C84.9963 80.1743 85.4494 80.625 85.4494 81.1811V88.1851C85.4494 88.7411 84.9963 89.1919 84.4375 89.1919H83.5269C83.1454 89.1926 82.7959 88.9798 82.6229 88.6415L81.3581 86.1916C80.859 85.2385 80.2687 84.0202 79.837 82.9363H79.783C79.8505 84.1545 79.8775 85.507 79.8775 86.9635V88.175C79.8775 88.731 79.4245 89.1818 78.8656 89.1818H78.6767C78.4084 89.1845 78.1499 89.081 77.9583 88.894C77.7666 88.7071 77.6575 88.4521 77.6548 88.1851H77.6548Z" fill="#D7E8F0"/>
<path d="M88.1476 80.1709H88.549C89.1078 80.1709 89.5608 80.6217 89.5608 81.1777V86.1614C89.5608 86.7174 90.0138 87.1682 90.5726 87.1682H92.0263C92.5852 87.1682 93.0382 87.6189 93.0382 88.175C93.0382 88.731 92.5852 89.1818 92.0263 89.1818H88.1476C87.5888 89.1818 87.1357 88.731 87.1357 88.175V81.1811C87.1349 80.9135 87.2411 80.6565 87.4309 80.467C87.6208 80.2774 87.8786 80.1709 88.1476 80.1709V80.1709Z" fill="#D7E8F0"/>
<path d="M96.6876 81.3824V87.9837C96.6876 88.6547 96.1409 89.1986 95.4666 89.1986C94.7936 89.1967 94.249 88.6533 94.249 87.9837V81.3824C94.249 81.0611 94.3773 80.7529 94.6056 80.5257C94.834 80.2985 95.1437 80.1709 95.4666 80.1709C96.1396 80.1709 96.6857 80.7128 96.6876 81.3824Z" fill="#D7E8F0"/>
<path d="M98.354 88.091V81.7515C98.354 81.3305 98.5228 80.9269 98.8229 80.6302C99.123 80.3335 99.5296 80.1681 99.9527 80.1708H100.266C100.86 80.1707 101.405 80.501 101.676 81.0266L102.671 82.9429C103.216 83.9641 103.693 85.0203 104.098 86.1042H104.138C104.004 84.8446 103.941 83.5786 103.95 82.3119V81.2749C103.949 80.9815 104.067 80.7002 104.276 80.493C104.485 80.2859 104.768 80.1699 105.063 80.1708C105.357 80.1708 105.639 80.2871 105.847 80.4942C106.055 80.7013 106.172 80.9821 106.172 81.2749V87.6178C106.172 88.4908 105.461 89.1985 104.584 89.1985C103.988 89.1984 103.442 88.8667 103.17 88.3393L102.067 86.1982C101.568 85.2451 100.975 84.0269 100.546 82.9429H100.492C100.56 84.1611 100.587 85.5136 100.587 86.9701V88.0876C100.587 88.6993 100.088 89.1951 99.4738 89.1951C99.178 89.1969 98.8937 89.0815 98.6836 88.8743C98.4735 88.6672 98.3549 88.3853 98.354 88.091Z" fill="#D7E8F0"/>
<path d="M112.553 85.5538H111.113C110.891 85.5538 110.679 85.6416 110.523 85.7978C110.366 85.954 110.279 86.1657 110.28 86.3861C110.28 86.8439 110.653 87.2151 111.113 87.2151H112.944C113.486 87.2151 113.926 87.6523 113.926 88.1917V88.2185C113.927 88.4781 113.824 88.7274 113.64 88.9113C113.455 89.0951 113.205 89.1985 112.944 89.1985H108.678C108.456 89.1985 108.243 89.1108 108.086 88.9547C107.929 88.7986 107.841 88.5869 107.841 88.3662V80.8689C107.841 80.6481 107.929 80.4364 108.086 80.2803C108.243 80.1242 108.456 80.0366 108.678 80.0366H112.769C113.029 80.0366 113.279 80.1395 113.463 80.3226C113.647 80.5057 113.75 80.7541 113.75 81.0132V81.0434C113.749 81.5814 113.31 82.0166 112.769 82.0166H111.083C110.872 82.0166 110.671 82.0997 110.522 82.2476C110.373 82.3955 110.29 82.5961 110.29 82.8053C110.29 83.0144 110.373 83.215 110.522 83.3629C110.671 83.5108 110.872 83.5939 111.083 83.5939H112.563C112.824 83.5939 113.074 83.6973 113.258 83.8812C113.443 84.065 113.546 84.3143 113.545 84.5739C113.546 84.8352 113.441 85.086 113.255 85.2702C113.069 85.4544 112.816 85.5565 112.553 85.5538Z" fill="#D7E8F0"/>
<path d="M117.828 87.8964C117.893 87.6291 118.065 87.3997 118.304 87.2615C118.542 87.1234 118.828 87.0884 119.093 87.1648C119.533 87.2846 119.986 87.3466 120.442 87.3494C121.279 87.3494 121.68 87.0674 121.68 86.611C121.68 86.1546 121.279 85.9398 120.253 85.5807C118.722 85.0337 117.697 84.2014 117.697 82.8624C117.697 81.2683 119.046 80.0366 121.346 80.0366C121.842 80.0332 122.338 80.0827 122.823 80.1843C123.086 80.2449 123.312 80.4096 123.45 80.6403C123.587 80.8709 123.624 81.1475 123.552 81.4059C123.422 81.9247 122.898 82.2442 122.375 82.124C122.029 82.0449 121.674 82.0055 121.319 82.0066C120.577 82.0066 120.176 82.2717 120.176 82.6778C120.176 83.1342 120.658 83.3087 121.801 83.7349C123.431 84.339 124.162 85.1981 124.162 86.4567C124.162 88.0071 122.948 89.3328 120.297 89.3328C119.701 89.3302 119.107 89.2547 118.53 89.1079C118.019 88.9581 117.713 88.4403 117.828 87.9232V87.8964Z" fill="#D7E8F0"/>
<path d="M126.226 82.2079H125.957C125.398 82.2079 124.945 81.7572 124.945 81.2011C124.945 80.6451 125.398 80.1943 125.957 80.1943H131.016C131.575 80.1943 132.028 80.6451 132.028 81.2011C132.028 81.7572 131.575 82.2079 131.016 82.2079H130.706C130.147 82.2079 129.694 82.6587 129.694 83.2147V88.1682C129.694 88.7243 129.241 89.175 128.682 89.175H128.284C127.725 89.175 127.272 88.7243 127.272 88.1682V83.2248C127.275 82.9501 127.165 82.6862 126.968 82.4942C126.77 82.3022 126.502 82.1988 126.226 82.2079Z" fill="#D7E8F0"/>
<path d="M155.604 85.5539H154.153C153.932 85.5539 153.719 85.6416 153.562 85.7977C153.405 85.9538 153.317 86.1655 153.317 86.3862C153.319 86.8446 153.693 87.2152 154.153 87.2151H155.982C156.52 87.2207 156.953 87.6563 156.953 88.1917V88.2186C156.953 88.7598 156.512 89.1986 155.968 89.1986H151.715C151.493 89.1986 151.281 89.1108 151.125 88.9546C150.968 88.7984 150.881 88.5867 150.882 88.3663V81.1206C150.881 80.8468 150.99 80.5839 151.184 80.3899C151.378 80.196 151.642 80.087 151.917 80.087H155.793C156.337 80.087 156.778 80.5257 156.778 81.0669V81.0938C156.778 81.3534 156.674 81.6023 156.489 81.7855C156.304 81.9688 156.054 82.0713 155.793 82.0704H154.086C153.661 82.0704 153.317 82.413 153.317 82.8355C153.317 83.0382 153.398 83.2325 153.542 83.3754C153.687 83.5184 153.882 83.5983 154.086 83.5974H155.604C156.146 83.5992 156.585 84.0374 156.585 84.5773C156.585 85.1167 156.146 85.5539 155.604 85.5539Z" fill="#D7E8F0"/>
<path d="M46.6049 244.848C47.6623 243.992 48.892 243.203 49.7433 242.256C52.1284 239.592 51.2095 236.187 52.7399 233.274C54.6014 229.711 60.4594 227.223 66.2127 227.543C65.6677 229.224 65.2942 230.956 65.0978 232.711C64.9289 234.272 65.3377 236.012 64.8884 237.522C64.1553 239.956 60.2465 241.43 59.7702 243.928C59.3513 246.136 61.9391 248.199 61.51 250.445C61.0573 252.855 57.3446 254.187 55.9797 256.318C54.8649 258.05 55.3885 260.026 54.8108 261.877C54.1115 264.102 51.6859 266.071 48.5069 266.995L48.1927 267.086C47.0245 266.087 46.0223 264.911 45.2231 263.6" stroke="#CCDDE2" stroke-width="2"/>
<path d="M62.6996 230.348C54.1187 239.083 50.0816 257.501 48.5107 267.001C48.3823 267.804 48.2674 268.539 48.1729 269.199" stroke="#CCDDE2" stroke-width="2"/>
<path fill-rule="evenodd" clip-rule="evenodd" d="M63.49 274.553L59.5408 296.582C59.3144 297.858 58.2016 298.788 56.9023 298.786H36.2641C34.9526 298.786 33.8337 297.839 33.6189 296.548L29.9805 274.553H63.49Z" stroke="#CCDDE2" stroke-width="2"/>
<path fill-rule="evenodd" clip-rule="evenodd" d="M67.2435 272.095C67.1292 273.484 65.9671 274.553 64.5712 274.553H28.9738C27.5923 274.553 26.4372 273.505 26.305 272.133C26.2336 271.382 26.4825 270.637 26.9906 270.079C27.4986 269.521 28.2186 269.203 28.9738 269.203H64.5712C65.32 269.203 66.0345 269.516 66.542 270.065C67.0495 270.615 67.3038 271.351 67.2435 272.095V272.095Z" stroke="#CCDDE2" stroke-width="2"/>
<path d="M36.7064 239.72C39.8584 249.251 41.6725 259.844 42.5982 266.587C42.6953 266.626 42.7946 266.66 42.8955 266.688C43.8064 265.764 44.5903 264.723 45.2265 263.593C46.0107 262.284 46.6485 260.894 47.1285 259.446C47.8042 257.288 46.615 255.063 46.3312 252.872C45.9934 250.212 47.0069 247.414 46.615 244.831C46.615 244.754 46.588 244.666 46.5643 244.575C46.5643 244.538 46.5643 244.484 46.5373 244.433C46.4067 243.774 46.1584 243.144 45.8042 242.572C44.7367 240.826 42.6624 239.579 41.4124 237.91C39.1219 234.828 39.9969 230.887 38.5307 227.509C38.0926 226.517 37.4728 225.615 36.703 224.849C34.1287 222.206 29.8315 220.574 25.585 220.868C26.1152 222.828 26.4769 224.83 26.666 226.852C26.818 228.666 26.4329 230.682 26.8586 232.428C27.5647 235.253 31.3247 236.959 31.774 239.845C32.1862 242.401 29.7031 244.804 30.1018 247.397C30.5511 250.195 34.1017 251.739 35.4159 254.204C36.4834 256.206 35.9834 258.519 36.5476 260.65C36.5886 260.82 36.6405 260.988 36.703 261.152C36.703 261.152 37.7469 265.144 42.5948 266.583" stroke="#CCDDE2" stroke-width="2"/>
<path d="M42.9328 269.193C42.845 268.411 42.7301 267.551 42.595 266.6C41.6693 259.858 39.8552 249.265 36.7032 239.734C34.7066 233.686 32.1729 228.062 28.9702 224.131" stroke="#CCDDE2" stroke-width="2"/>
<path d="M41.4194 237.92C41.4194 237.92 41.9836 229.128 46.7369 226.458C51.4902 223.787 51.3889 238.773 51.3889 238.773" stroke="#CCDDE2" stroke-width="2"/>
<path d="M46.6049 244.848C46.6049 244.848 45.6319 239.818 47.3346 234.872" stroke="#CCDDE2" stroke-width="2"/>
<rect x="13.6089" y="115.914" width="91.6201" height="12.4706" rx="6.23531" stroke="#CCDDE2" stroke-width="2"/>
<path d="M151.808 50.4204C151.808 50.4204 138.572 50.5617 130.113 63.2302C121.655 75.8987 118.451 91.1984 118.991 109.765L118.049 148.669C118.049 148.669 132.085 150.503 136.819 144.117C136.819 144.117 137.873 138.827 145.771 134.308L151.808 50.4204Z" fill="#3FBDF1"/>
<path d="M142.632 230.004L147.283 234.219V236.639L145.928 237.12C145.928 237.12 139.492 237.805 140.004 236.593C140.515 235.382 142.632 230.004 142.632 230.004Z" fill="#2E2E2E"/>
<path d="M125.009 270.108L112.539 298.217H80.8566C79.2385 298.261 77.7239 297.428 76.9018 296.042C76.0796 294.656 76.0796 292.935 76.9018 291.549C77.7239 290.163 79.2385 289.33 80.8566 289.374C90.4821 289.378 98.7581 282.595 100.591 273.201L101.197 270.108C101.234 269.927 125.009 270.108 125.009 270.108Z" fill="black"/>
<path d="M210.973 268.887L194.88 296.204C194.111 297.651 192.609 298.558 190.97 298.566C189.332 298.575 187.821 297.682 187.036 296.243C186.252 294.804 186.322 293.051 187.217 291.678C192.11 283.38 190.439 272.779 183.232 266.387C182.115 265.398 181.207 264.595 180.694 264.146L197.327 249.842L210.973 268.887Z" fill="black"/>
<path d="M214.105 246.362H146.924V154.292H146.907C146.083 140.327 140.398 138.469 140.398 138.469L143.436 136.075C134.811 96.2334 142.423 67.0575 150.526 50.3384C152.902 45.3642 155.767 40.6377 159.08 36.2285C159.118 36.178 159.158 36.1376 159.188 36.0905C159.839 35.2398 160.96 34.8967 161.977 35.237C162.994 35.5773 163.681 36.5256 163.685 37.5954L163.726 48.5709C177.503 48.0019 185.588 63.6403 188.91 74.9187C192.438 86.9177 192.35 100.045 189.771 112.114C188.776 116.836 187.209 121.421 185.106 125.766L214.105 246.362Z" fill="#2E2E2E"/>
<path d="M137.073 37.8913L122.074 56.0497L127.674 56.0193L118.47 66.0287C115.889 66.8409 101.343 237.313 101.343 237.313H107.816L124.963 149.416C122.732 149.688 120.472 149.612 118.264 149.19L119.235 100.933C119.912 85.4474 126.158 60.8723 141.745 53.1715L141.803 53.1412C142.179 45.5685 144.151 40.6076 144.151 40.6076C140.128 41.5007 137.073 37.8913 137.073 37.8913V37.8913Z" fill="#2E2E2E"/>
<path d="M124.789 149.416L101.263 270.46L100.656 273.569C98.8185 283.009 90.5452 289.823 80.9253 289.818C79.3074 289.774 77.7931 290.611 76.971 292.005C76.149 293.398 76.149 295.129 76.971 296.522C77.7931 297.916 79.3074 298.754 80.9253 298.709H112.603L125.072 270.446L147.091 220.561" stroke="black" stroke-width="2"/>
<path d="M147.088 154.857V246.984H214.17L185.216 126.328" stroke="black" stroke-width="2"/>
<path d="M163.867 49.0593L150.859 60.5141L163.867 60.2412L164.241 106.434C164.3 114.393 160.838 121.971 154.782 127.137L144.119 136.233C131.822 80.7856 150.33 48.3922 159.341 36.5669C159.99 35.7137 161.11 35.3694 162.126 35.7112C163.142 36.053 163.826 37.0047 163.827 38.0762L163.867 49.0593C177.623 48.4899 185.694 64.1392 189.01 75.4255C192.532 87.4327 192.441 100.569 189.87 112.647C188.296 120.008 185.418 127.218 181.064 133.397C176.996 139.148 171.608 143.753 166.472 148.537C164.652 150.222 162.765 151.832 160.817 153.378L147.081 164.028" stroke="black" stroke-width="2"/>
<path d="M160.882 28.578C159.832 30.063 158.123 30.9409 156.306 30.9291C155.531 30.9398 154.757 30.8971 153.988 30.8014C153.092 30.6839 152.606 30.4387 153.22 29.992C153.414 29.847 153.595 29.6864 153.763 29.5117C154.846 28.393 155.604 26.9994 155.954 25.4812C156.336 23.7851 155.954 22.1225 154.632 21.2123C154.316 20.9957 153.967 20.8313 153.599 20.7253C153.003 20.5418 152.388 20.4291 151.767 20.3894C151.455 20.3693 151.133 20.3592 150.814 20.3592C150.479 18.3137 149.714 15.4353 148.154 14.2362C147.378 13.6393 146.337 13.5192 145.446 13.9239C143.098 14.8207 139.612 15.5126 137.753 15.1532C137.638 15.036 137.563 14.8856 137.539 14.7233C137.798 14.0749 138.097 13.4434 138.434 12.8323C138.796 12.2045 139.199 11.602 139.642 11.0287C142.974 6.77989 148.798 4.78145 154.068 5.77563C154.909 5.9299 155.732 6.17076 156.524 6.4944C158.946 7.79086 160.644 9.85312 161.744 12.3453C164.767 20.6917 162.751 25.8977 160.882 28.578Z" fill="#3FBDF1"/>
<path d="M160.981 246.935L180.831 264.516C181.35 264.964 182.251 265.767 183.368 266.755C190.57 273.136 192.247 283.721 187.369 292.014C186.122 294.134 186.831 296.862 188.951 298.108C191.071 299.355 193.801 298.646 195.047 296.527L211.119 269.237L197.459 250.213L195.098 246.945" stroke="black" stroke-width="2"/>
<path d="M147.251 234.798L142.707 230.771" stroke="black" stroke-width="2"/>
<path d="M137.012 37.6629L122.05 55.8403L127.633 55.8065L118.464 65.8193C118.312 65.8631 118.127 66.541 117.874 67.7685C116.052 77.1101 112.017 118.422 108.397 157.913C104.67 198.531 101.377 237.223 101.377 237.223H107.837" stroke="black" stroke-width="2"/>
<path d="M147.25 237.223H139.869" stroke="black" stroke-width="2"/>
<path d="M147.251 154.71C141.691 154.582 139.056 152.261 137.879 149.6C136.226 145.83 137.518 141.405 140.75 138.859L144.296 136.07" stroke="black" stroke-width="2"/>
<path d="M137.008 145.243C137.008 145.243 127.637 150.922 118.255 149.041L119.223 100.751C120.036 82.4926 128.514 51.6079 150.881 50.5793" stroke="black" stroke-width="2"/>
<path d="M148.377 38.705C148.377 38.705 135.285 46.9101 134.546 28.065C134.323 22.2981 134.576 15.4656 138.317 10.7172C141.667 6.44775 147.524 4.44116 152.824 5.43939C157.209 6.27238 160.003 8.96358 161.578 12.5215" stroke="black" stroke-width="2"/>
<path d="M147.25 154.848C147.256 154.802 147.256 154.756 147.25 154.71C146.431 140.721 140.75 138.859 140.75 138.859" stroke="black" stroke-width="2"/>
<path d="M143.604 40.4857L141.647 52.9569" stroke="black" stroke-width="2"/>
<path d="M137.103 12.5283C133.578 16.6021 141.128 15.6714 145.199 14.1133C148.715 12.7643 150.095 17.6105 150.597 20.6153" stroke="black" stroke-width="2"/>
<path d="M159.416 30.1559V36.4455" stroke="black" stroke-width="2"/>
<ellipse cx="138.968" cy="24.5779" rx="2.06461" ry="4.71128" stroke="black" stroke-width="2"/>
<ellipse cx="133.075" cy="24.5779" rx="2.06461" ry="4.71128" stroke="black" stroke-width="2"/>
<ellipse cx="138.93" cy="24.4921" rx="2.08819" ry="4.69842" fill="black"/>
<ellipse cx="133.014" cy="24.4921" rx="2.08819" ry="4.69842" fill="black"/>
<path d="M140.608 22.7545C142.662 22.0765 144.762 21.5445 146.891 21.1624C148.917 20.8258 151.186 20.533 153.178 21.1422C155.345 21.8154 156.02 23.8349 155.541 25.9117C155.196 27.4437 154.438 28.8529 153.35 29.9879C153.179 30.1655 152.994 30.3287 152.796 30.4759C151.729 31.2568 153.954 31.415 155.902 31.415C157.732 31.4262 159.452 30.5468 160.511 29.0589C162.391 26.3661 164.694 20.9301 161.646 12.5355" stroke="black" stroke-width="2"/>
<path d="M152.371 20.947C151.054 21.5934 150.266 22.9753 150.382 24.4341" stroke="black" stroke-width="2"/>
<path d="M284.725 298.832H25.2598" stroke="black" stroke-width="2"/>
</svg>
