<svg width="330" height="289" viewBox="0 0 330 289" fill="none" xmlns="http://www.w3.org/2000/svg">
<path d="M66.1752 90.0039C66.1752 90.0039 46.4587 31.6641 115.23 38.7844C184.001 45.9048 151.143 20.0826 177.13 4.05816C203.117 -11.9663 279.686 37.8871 247.652 85.9713C215.618 134.055 298.846 90.0699 316.207 162.379C326.921 207.002 300.34 239.846 278.412 258.464" stroke="#CCDDE2" stroke-width="2"/>
<path fill-rule="evenodd" clip-rule="evenodd" d="M231.921 136.418C261.651 146.003 279.95 172.785 285.118 202.713C287.268 215.243 287.429 228.389 284.715 240.864C283.18 247.867 280.961 255.746 275.807 261.009C273.646 263.225 270.798 264.645 267.727 265.038C268.478 263.522 268.87 261.854 268.874 260.163C268.896 253.936 263.882 248.861 257.655 248.809L250.498 248.768L239.784 248.713C239.466 248.673 239.129 248.673 238.796 248.673H238.796H231.584L225.507 248.648L192.477 248.472C192.052 248.472 191.609 248.501 191.169 248.541L191.237 248.551C191.495 248.588 191.766 248.627 192.012 248.688C191.728 248.688 191.448 248.711 191.156 248.736L191.114 248.739C196.707 249.427 200.95 254.112 201.08 259.746V259.958C201.088 260.096 201.088 260.234 201.08 260.372C200.75 265.858 196.536 270.32 191.078 270.964C191.366 271.002 191.655 271.024 191.946 271.03C191.676 271.091 191.403 271.136 191.129 271.166L191.18 271.171C191.605 271.209 192.014 271.247 192.44 271.247H192.026C186.162 271.247 182.554 274.851 182.554 279.246C182.559 281.37 183.404 283.406 184.906 284.908C186.36 286.366 188.363 287.26 192.026 287.26H146.88L138.975 266.957L111.087 195.424H49.6928C43.4508 195.428 37.5597 192.538 33.7423 187.6C29.9249 182.661 28.6124 176.232 30.1888 170.192L45.0192 128.734C45.104 128.971 45.1954 129.269 45.3013 129.613C46.48 133.453 49.4627 143.169 65.3693 141.136C67.8673 152.508 71.552 163.588 77.2182 173.752C79.207 177.331 81.7563 181.246 85.5655 183.114C85.954 183.303 86.3555 183.463 86.7669 183.594C90.5871 184.832 95.2901 183.821 98.9088 182.634C107.685 179.766 116.618 176.316 124.632 171.708C131.569 167.745 139.825 161.303 138.917 152.728V152.607C138.498 147.782 135.239 143.672 130.635 142.165C128.281 146.033 125.465 149.6 122.248 152.787C119.668 150.269 117.588 147.286 116.116 143.996C115.064 141.636 114.233 139.184 113.633 136.671C130.95 132.367 152.56 128.587 175.533 128.4C172.823 130.898 170.896 134.477 171.46 138.257C171.954 141.612 174.691 144.721 177.511 146.487C182.195 149.424 188.448 149.183 193.495 147.315C198.44 145.498 202.71 142.011 205.809 137.766C207.271 135.715 208.244 133.357 208.655 130.873V130.832C216.538 132.113 224.315 133.98 231.921 136.418ZM184.847 212.273C184.847 212.273 195.444 213.134 201.667 203.556C207.922 193.992 202.535 184.011 202.535 184.011C202.535 184.011 184.833 169.038 181.804 167.317C178.775 165.595 163.102 156.885 153.048 159.076C142.993 161.266 152.901 169.562 153.436 169.668C153.971 169.774 165.094 172.635 165.094 172.635L161.248 174.664C161.248 174.664 157.992 176.506 157.175 182.063C157.099 182.585 157.004 183.151 156.903 183.754C155.927 189.567 154.374 198.816 163.036 205.354C172.596 212.57 173.559 207.002 174.024 203.34C174.024 203.34 179.866 205.834 181.917 209.482C183.968 213.13 184.847 212.273 184.847 212.273Z" fill="#353642"/>
<path d="M65.3545 141.143C65.3545 141.143 73.7385 140.125 76.8774 134.14L74.1414 149.49C74.1414 149.49 107.494 138.136 113.611 136.671C113.611 136.671 115.581 149.377 123.427 152.787L131.522 142.494C131.522 142.494 141.671 145.058 138.895 158.889C136.118 172.719 97.7183 184.279 91.206 184.011C84.6937 183.744 77.6832 179.737 70.5043 158.204L65.3545 141.143Z" fill="#353642"/>
<path d="M79.0128 106.948C81.1372 110.405 83.2725 113.856 85.4775 117.262C86.8364 119.361 89.3124 122.353 86.6789 124.547C85.8219 125.204 84.7866 125.587 83.7084 125.646C82.0162 125.796 80.2398 125.389 79.2106 123.935L74.0828 115.438C71.9634 111.924 67.5003 110.626 63.8271 112.456" stroke="black" stroke-width="2"/>
<path d="M98.4071 118.141C99.7476 121.328 98.8393 123.382 97.2716 124.415C94.7077 126.096 91.2757 125.291 89.459 122.837L79.0312 106.966" stroke="black" stroke-width="2"/>
<path d="M87.8401 102.333C91.6347 106.948 96.4218 115.518 99.07 119.097C101.718 122.675 105.813 120.518 105.813 120.518C109.139 118.727 108.575 115.757 107.121 112.149C103.539 103.292 98.4253 97.4026 92.7225 93.5421C75.0498 81.587 56.9194 90.4068 51.5242 111.043L30.1888 170.192C28.6124 176.232 29.9249 182.661 33.7423 187.599C37.5597 192.538 43.4508 195.428 49.6928 195.424H111.087L146.89 287.263" stroke="black" stroke-width="2"/>
<path d="M109.761 108.087C114.157 106.563 113.955 99.5527 107.717 97.1866C100.828 94.5714 88.5944 90.872 85.5214 89.949C85.5023 89.9343 85.4794 89.9254 85.4554 89.9234C85.2393 89.8574 85.0892 89.8025 84.972 89.7769L84.7998 89.7219" stroke="black" stroke-width="2"/>
<path d="M174.702 178.18C170.856 173.558 160.329 170.939 153.458 169.672C151.085 169.226 149.294 167.265 149.063 164.863C148.983 164.074 149.074 163.277 149.33 162.526C150.173 160.154 152.528 158.665 155.033 158.922C166.754 160.108 178.841 163.797 187.781 171.741C187.781 171.741 231.122 204.816 236.298 208.035C238.433 209.332 240.426 207.801 238.979 205.764L238.525 204.988C235.977 200.616 232.962 196.534 229.533 192.813" stroke="black" stroke-width="2"/>
<path d="M175.504 128.397C120.995 128.851 74.1416 149.487 74.1416 149.487L78.8189 123.269" stroke="black" stroke-width="2"/>
<path d="M260.164 271.085C260.164 271.085 254.226 269.741 252.648 274.495C251.069 279.25 249.421 286.813 260.772 287.26C272.123 287.707 265.456 285.476 264.801 281.802C264.145 278.129 260.164 271.085 260.164 271.085Z" fill="#353642"/>
<path d="M169.464 184.213C169.464 184.213 163.058 179.356 157.289 184.279C157.046 184.493 156.834 184.739 156.659 185.011" stroke="black" stroke-width="2"/>
<g opacity="0.77">
<path d="M89.437 122.818C91.2684 125.276 94.6967 126.078 97.2496 124.393C98.7989 123.368 99.7073 121.324 98.3997 118.167C98.6378 118.515 98.8539 118.822 99.0663 119.104C101.711 122.697 105.809 120.533 105.809 120.533C109.135 118.742 108.575 115.771 107.121 112.16C105.698 108.583 103.831 105.199 101.564 102.087C103.048 100.699 104.809 99.2963 106.666 99.9116C108.67 100.578 109.23 103.091 109.457 105.186C109.564 106.16 109.67 107.123 109.776 108.098L111.38 122.441C111.915 127.203 112.45 132.034 113.611 136.682C114.211 139.195 115.043 141.647 116.094 144.007C117.566 147.297 119.646 150.28 122.226 152.798C125.443 149.611 128.259 146.044 130.613 142.176C135.217 143.683 138.476 147.792 138.895 152.618V152.739C139.803 161.313 131.547 167.756 124.61 171.719C116.596 176.327 107.663 179.777 98.8869 182.645C95.2681 183.832 90.5651 184.843 86.7449 183.605C86.3335 183.474 85.932 183.313 85.5436 183.125C81.7343 181.257 79.1851 177.342 77.1962 173.763C67.6731 156.64 63.7174 136.978 61.6333 117.507C65.8015 116.932 69.955 116.291 74.0573 115.409C74.0573 115.409 74.0573 115.438 74.0829 115.449L78.8115 123.291L79.1997 123.943C80.2253 125.408 82.0017 125.8 83.6975 125.653C84.7758 125.6 85.8115 125.216 86.6643 124.554C89.2942 122.357 86.8255 119.375 85.463 117.277" fill="white"/>
<path d="M89.437 122.818C91.2684 125.276 94.6967 126.078 97.2496 124.393C98.7989 123.368 99.7073 121.324 98.3997 118.167C98.6378 118.515 98.8539 118.822 99.0663 119.104C101.711 122.697 105.809 120.533 105.809 120.533C109.135 118.742 108.575 115.771 107.121 112.16C105.698 108.583 103.831 105.199 101.564 102.087C103.048 100.699 104.809 99.2963 106.666 99.9116C108.67 100.578 109.23 103.091 109.457 105.186C109.564 106.16 109.67 107.123 109.776 108.098L111.38 122.441C111.915 127.203 112.45 132.034 113.611 136.682C114.211 139.195 115.043 141.647 116.094 144.007C117.566 147.297 119.646 150.28 122.226 152.798C125.443 149.611 128.259 146.044 130.613 142.176C135.217 143.683 138.476 147.792 138.895 152.618V152.739C139.803 161.313 131.547 167.756 124.61 171.719C116.596 176.327 107.663 179.777 98.8869 182.645C95.2681 183.832 90.5651 184.843 86.7449 183.605C86.3335 183.474 85.932 183.313 85.5436 183.125C81.7343 181.257 79.1851 177.342 77.1962 173.763C67.6731 156.64 63.7174 136.978 61.6333 117.507C65.8015 116.932 69.955 116.291 74.0573 115.409C74.0573 115.409 74.0573 115.438 74.0829 115.449L78.8115 123.291L79.1997 123.943C80.2253 125.408 82.0017 125.8 83.6975 125.653C84.7758 125.6 85.8115 125.216 86.6643 124.554C89.2942 122.357 86.8255 119.375 85.463 117.277" fill="#3FBDF1"/>
<path d="M90.5617 123.979C92.1843 126.177 94.957 125.899 97.2498 124.393C98.6344 123.478 99.7698 123.745 98.6014 120.921C98.8175 121.229 98.8468 120.189 99.0373 120.419C101.4 123.628 99.0666 119.093 99.0666 119.093C102.363 123.258 109.538 119.335 108.223 116.116C106.832 112.647 105.366 107.519 103.509 104.955C104.975 103.571 104.692 103.776 106.557 104.878C107.572 105.531 108.222 106.623 108.311 107.827C108.461 109.222 108.612 110.559 108.762 111.922L110.19 124.741C110.67 129.001 111.146 133.305 112.183 137.451C112.719 139.693 113.462 141.881 114.402 143.985C115.714 146.882 119.926 151.706 122.226 153.915C125.087 151.076 128.515 145.857 130.614 142.388C134.643 143.626 134.467 147.479 134.752 151.688V151.798C135.566 159.449 128.196 165.196 122.021 168.738C114.864 172.851 106.89 175.928 99.0556 178.492C95.825 179.554 91.6276 180.47 88.2176 179.349C87.8497 179.233 87.491 179.089 87.1444 178.92C83.7454 177.25 81.4672 173.76 79.6908 170.562C71.9148 156.596 68.307 140.74 66.3218 124.844C66.019 122.372 67.7294 120.104 70.1897 119.716C72.4203 119.35 74.6435 118.984 76.8521 118.493L76.9144 118.522L81.1339 125.521C82.0532 126.822 82.2034 125.803 83.7161 125.672C84.6721 125.587 86.5254 125.401 87.2653 124.782C89.6131 122.826 88.2872 122.016 87.0711 120.145" fill="#3FBDF1"/>
</g>
<path d="M168.691 191.282C168.691 191.282 156.527 187.282 156.344 194.007" stroke="black" stroke-width="2"/>
<path opacity="0.54" d="M59.8091 259.786L35.9538 198.67C35.3549 196.273 35.8935 193.734 37.4139 191.788C38.9343 189.841 41.2669 188.703 43.7371 188.703H138.492C142.871 188.702 146.681 191.704 147.703 195.963L173.819 257.064C174.391 259.452 173.837 261.971 172.317 263.899C170.796 265.827 168.476 266.953 166.021 266.954H68.9989C64.6537 266.956 60.8647 264.001 59.8091 259.786Z" fill="white"/>
<path d="M172.65 201.592C172.65 201.592 174.625 203.402 173.874 205.988C173.317 207.903 171.412 209.112 169.526 208.456C163.519 206.38 158.109 202.852 156.791 196.857C156.168 193.821 156.033 190.705 156.392 187.626C156.681 184.773 157.102 181.693 158.062 178.979C159.527 174.811 164.014 171.906 168.369 173.913" stroke="black" stroke-width="2"/>
<path d="M59.8091 259.786L35.9538 198.67C35.3549 196.273 35.8935 193.734 37.4139 191.788C38.9343 189.841 41.2669 188.703 43.7371 188.703H138.492C142.871 188.702 146.681 191.704 147.703 195.963L173.819 257.064C174.391 259.452 173.837 261.971 172.317 263.899C170.796 265.827 168.476 266.953 166.021 266.954H68.9989C64.6537 266.956 60.8647 264.001 59.8091 259.786Z" fill="#3FBDF1"/>
<path fill-rule="evenodd" clip-rule="evenodd" d="M59.8091 259.786L35.9538 198.67C35.3549 196.273 35.8935 193.734 37.4139 191.788C38.9343 189.841 41.2669 188.703 43.7371 188.703H138.492C142.871 188.702 146.681 191.704 147.703 195.963L173.819 257.064C174.39 259.452 173.837 261.971 172.317 263.899C170.796 265.827 168.476 266.953 166.021 266.954H68.9989C64.6537 266.956 60.8647 264.001 59.8091 259.786V259.786Z" stroke="black" stroke-width="2" stroke-linecap="square" stroke-linejoin="round"/>
<path d="M63.2996 257.324L41.2903 200.918C40.739 198.707 41.2367 196.366 42.6396 194.57C44.0425 192.774 46.1942 191.725 48.4729 191.725H135.887C139.927 191.723 143.441 194.492 144.385 198.42L168.482 254.793C169.009 256.997 168.498 259.321 167.094 261.1C165.691 262.878 163.55 263.917 161.285 263.917H71.7752C67.7734 263.92 64.2812 261.204 63.2996 257.324Z" fill="#3FBDF1"/>
<path d="M250.381 248.475L267.141 287.26" stroke="black" stroke-width="2"/>
<path d="M329.891 287.26H0.246094" stroke="black" stroke-width="2"/>
<path d="M173.994 112.211C171.277 114.896 167.218 114.892 164.907 112.409" stroke="black" stroke-width="2"/>
<path d="M101.564 102.076C103.048 100.688 104.81 99.2853 106.667 99.9006C108.67 100.567 109.231 103.08 109.458 105.175C110.1 110.933 110.741 116.684 111.381 122.43C112.194 129.755 113.051 137.257 116.094 143.989C117.566 147.279 119.647 150.262 122.226 152.779" stroke="black" stroke-width="2"/>
<path d="M138.895 152.735V152.615C138.476 147.789 135.217 143.679 130.613 142.172C128.259 146.04 125.443 149.607 122.226 152.794C113.792 161.18 102.957 166.735 91.2244 168.687C91.7884 170.932 92.9495 172.976 93.7517 175.137C94.5538 177.298 94.953 179.799 93.9788 181.883C92.7481 184.542 89.2172 184.195 86.7632 183.605C86.7376 183.605 86.7229 183.605 86.6973 183.605" stroke="black" stroke-width="2"/>
<path d="M74.0646 115.405C69.9623 116.288 65.8088 116.929 61.6406 117.504C63.7247 136.975 67.6658 156.636 77.2035 173.759C79.1924 177.338 81.7416 181.253 85.5509 183.121C85.9393 183.31 86.3408 183.47 86.7522 183.601C90.5725 184.857 95.2754 183.828 98.8942 182.642C107.685 179.77 116.603 176.323 124.617 171.716C131.536 167.749 139.792 161.31 138.902 152.735C138.816 151.791 138.623 150.86 138.327 149.959" stroke="black" stroke-width="2"/>
<path d="M142.66 76.5654C143.92 81.8209 148.394 85.6859 153.777 86.1691C153.994 85.1117 154.467 84.1234 155.154 83.2902C158.084 79.8362 159.333 86.3156 168.706 81.6639C181.694 75.2029 186.624 78.9096 186.624 78.9096C187.056 79.2319 186.99 82.206 187.063 82.7481C187.43 85.8358 187.759 88.9088 188.122 91.9928C188.342 93.8755 188.558 95.7434 188.763 97.6114C188.94 97.2936 189.135 96.9866 189.349 96.6921C190.532 92.5056 192.645 87.5609 197.202 89.689C198.124 90.1388 198.927 90.8002 199.546 91.6192C202.568 95.5896 200.278 99.4245 197.118 102.263C196.325 103.144 195.44 103.936 194.477 104.626C194.997 105.702 197.121 109.977 197.121 109.991C197.341 110.424 204.765 102.021 205.318 101.106C206.145 98.8625 206.588 96.4964 206.63 94.1062C206.75 84.2791 202.751 72.8404 194.792 67.2035C192.817 65.808 193.447 64.4638 193.327 62.5665C193.309 62.3565 193.165 62.1789 192.962 62.1196C192.76 62.0603 192.542 62.1317 192.415 62.2991C189.92 65.1707 183.745 64.885 183.745 64.885C162.311 59.5155 155.106 69.0459 150.78 70.7454C149.015 71.414 147.073 71.4464 145.286 70.8369C145.072 72.0422 144.207 73.0294 143.041 73.4008L143.151 74.3934C143.244 75.1524 143.071 75.9203 142.66 76.5654H142.66Z" fill="#3FBDF1"/>
<path d="M153.791 86.1837C148.408 85.7005 143.935 81.8355 142.675 76.58C142.434 75.5969 142.282 74.5942 142.221 73.5839L142.389 73.5656C142.62 73.5484 142.846 73.4991 143.063 73.4191C144.23 73.0477 145.094 72.0604 145.308 70.8552C145.375 70.5275 145.389 70.191 145.349 69.8589L144.799 65.0095C144.799 65.0095 148.674 67.8921 152.974 66.2072C157.274 64.5224 164.494 54.992 185.939 60.3469C185.939 60.3469 190.781 60.6325 193.264 57.761C193.392 57.5935 193.61 57.5222 193.812 57.5814C194.014 57.6407 194.159 57.8184 194.176 58.0284C194.305 59.9293 195.008 61.2735 196.986 62.6654C204.945 68.306 208.945 79.741 208.82 89.5681C208.783 93.6447 207.428 97.67 205.337 101.124C204.784 102.04 197.359 110.442 197.14 110.01C197.14 110.01 195.015 105.721 194.495 104.644L194.371 104.406L194.609 104.248C195.493 103.648 196.337 102.991 197.136 102.281C200.293 99.4428 202.586 95.6079 199.564 91.6375C198.946 90.8184 198.143 90.1571 197.22 89.7072C192.649 87.5792 190.55 92.5239 189.367 96.7104C189.138 97.5105 188.996 98.3334 188.946 99.1644C188.891 98.6516 188.836 98.1571 188.781 97.6444C188.576 95.7764 188.36 93.9084 188.14 92.0257C187.774 88.9417 187.43 85.8687 187.082 82.781C187.027 82.2536 187.082 79.2648 186.642 78.9425C186.642 78.9425 181.709 75.2358 168.724 81.6969C159.351 86.3485 158.102 79.8655 155.172 83.3231C154.486 84.1564 154.013 85.1446 153.795 86.202C153.728 86.5416 153.685 86.8856 153.667 87.2312C153.66 87.2761 153.66 87.3219 153.667 87.3668C153.623 88.1249 153.608 88.8795 153.59 89.6193C153.52 96.758 154.304 104.215 157.106 110.845C160.512 118.881 169.526 126.807 178.899 123.06C181.829 121.884 184.456 119.991 186.858 117.98" stroke="black" stroke-width="2"/>
<ellipse cx="159.522" cy="101.552" rx="1.78008" ry="2.15368" transform="rotate(-18.5 159.522 101.552)" fill="black"/>
<ellipse cx="173.468" cy="101.106" rx="1.78008" ry="2.15368" transform="rotate(-18.5 173.468 101.106)" fill="black"/>
<path d="M168.819 105.563C168.819 105.563 164.179 108.197 163.897 105.464C163.809 104.622 162.673 96.3698 162.673 96.3698C162.673 96.3698 158.923 92.3957 153.176 95.3332" stroke="black" stroke-width="2"/>
<path d="M167.775 94.0586C167.775 94.0586 175.269 90.3153 180.229 95.7105" stroke="black" stroke-width="2"/>
<path d="M174.647 123.979L175.507 128.397C172.793 130.898 170.874 134.484 171.434 138.26C171.933 141.608 174.672 144.725 177.482 146.479C182.177 149.41 188.422 149.179 193.477 147.315C198.418 145.483 202.692 142.007 205.791 137.766C207.25 135.715 208.222 133.359 208.633 130.876V130.832" stroke="black" stroke-width="2"/>
<path d="M175.507 128.397L177.185 136.374" stroke="black" stroke-width="2"/>
<path d="M199.231 108.087L201.765 124.917C202.282 128.322 205.211 130.837 208.655 130.832C216.543 132.111 224.325 133.977 231.935 136.414C261.666 146.003 279.965 172.785 285.133 202.71C287.283 215.24 287.444 228.382 284.744 240.842C283.21 247.856 280.99 255.735 275.837 260.987C269.145 267.836 258.875 265.016 250.967 261.921C226.416 252.372 205.996 235.385 188.363 215.936C178.936 205.534 166.753 197.197 166.753 197.197" stroke="black" stroke-width="2"/>
<path d="M71.4127 244.699C68.6583 244.673 66.2592 242.45 65.6402 239.355C64.4169 233.268 64.0946 223.854 73.0206 221.8C84.1736 219.236 92.7517 231.381 96.9565 239.058C98.3703 241.622 96.7697 244.919 94.1362 244.919L71.4127 244.699Z" fill="#D7E8F0"/>
<ellipse cx="70.8886" cy="210.31" rx="5.14979" ry="7.59282" transform="rotate(-33.64 70.8886 210.31)" fill="#D7E8F0"/>
<path d="M258.384 271.287C258.212 271.312 258.018 271.338 257.849 271.378H257.783L231.73 271.243L192.638 271.041C192.488 271.041 192.341 271.041 192.195 271.041C191.904 271.034 191.615 271.012 191.327 270.975C196.794 270.34 201.014 265.867 201.33 260.372C201.337 260.234 201.337 260.096 201.33 259.958V259.745C201.308 254.377 197.521 249.76 192.261 248.688C191.993 248.622 191.7 248.582 191.418 248.541C191.861 248.501 192.301 248.472 192.729 248.472L225.756 248.647L231.836 248.673L240.037 248.713C245.856 249.244 250.316 254.115 250.333 259.958C250.333 260.49 250.293 261.022 250.212 261.548C249.405 267.095 244.661 271.218 239.056 271.243H258.9C257.757 271.243 258.076 271.243 258.384 271.287Z" fill="white"/>
<path d="M205.538 284.908C207.041 286.42 209.087 287.267 211.219 287.26H192.034C188.371 287.26 186.371 286.366 184.913 284.908C183.415 283.404 182.571 281.369 182.565 279.246C182.565 274.851 186.17 271.246 192.034 271.246H211.219C207.98 271.241 205.057 273.191 203.817 276.183C202.577 279.175 203.263 282.62 205.556 284.908H205.538Z" fill="#D7E8F0"/>
<path d="M268.9 260.16C268.895 261.851 268.501 263.519 267.749 265.035C267.213 266.18 266.476 267.221 265.574 268.108C264.087 269.582 262.218 270.613 260.179 271.085C259.338 271.28 258.478 271.378 257.615 271.378C257.791 271.338 257.981 271.312 258.149 271.287C257.842 271.258 257.523 271.247 258.67 271.247H238.821C244.431 271.225 249.18 267.099 249.985 261.548C250.066 261.022 250.107 260.49 250.106 259.958C250.089 254.114 245.627 249.243 239.807 248.714L250.52 248.768L257.677 248.809C263.903 248.861 268.918 253.933 268.9 260.16Z" fill="#3FBDF1"/>
<path fill-rule="evenodd" clip-rule="evenodd" d="M268.899 260.156C268.853 266.387 263.776 271.406 257.545 271.382L192.378 271.045C191.942 271.045 191.506 271.012 191.066 270.968C196.752 270.324 201.057 265.529 201.087 259.807C201.117 254.085 196.862 249.245 191.184 248.541C191.619 248.496 192.057 248.474 192.495 248.475L257.662 248.812C263.892 248.855 268.916 253.926 268.899 260.156V260.156Z" stroke="black" stroke-width="2" stroke-linecap="square" stroke-linejoin="round"/>
<path fill-rule="evenodd" clip-rule="evenodd" d="M250.098 259.954C250.086 266.184 245.039 271.231 238.81 271.243H192.444C192.006 271.24 191.568 271.216 191.132 271.17C196.814 270.495 201.093 265.678 201.093 259.956C201.093 254.235 196.814 249.417 191.132 248.743C191.568 248.702 192.008 248.673 192.444 248.673H238.81C245.036 248.687 250.08 253.729 250.098 259.954V259.954Z" stroke="black" stroke-width="2" stroke-linecap="square" stroke-linejoin="round"/>
<path fill-rule="evenodd" clip-rule="evenodd" d="M182.565 279.25C182.565 281.371 183.408 283.406 184.91 284.905C186.375 286.37 188.364 287.26 192.03 287.26H258.666C257.519 287.26 257.831 287.238 258.142 287.209C254.106 286.734 251.065 283.313 251.065 279.25C251.065 275.186 254.106 271.765 258.142 271.29C257.831 271.261 257.519 271.239 258.666 271.239H192.03C186.162 271.243 182.565 274.847 182.565 279.25H182.565Z" stroke="black" stroke-width="2" stroke-linecap="square" stroke-linejoin="round"/>
<path fill-rule="evenodd" clip-rule="evenodd" d="M203.187 279.25C203.197 283.669 206.777 287.25 211.197 287.26H257.212C257.519 287.26 257.831 287.238 258.142 287.209C254.106 286.734 251.065 283.313 251.065 279.25C251.065 275.186 254.106 271.765 258.142 271.29C257.831 271.261 257.519 271.239 257.212 271.239H211.197C206.778 271.251 203.199 274.831 203.187 279.25H203.187Z" stroke="black" stroke-width="2" stroke-linecap="square" stroke-linejoin="round"/>
<path d="M128.595 218.133H108.04C106.119 218.13 104.38 216.992 103.608 215.232C103.312 214.581 103.37 213.823 103.762 213.224C104.155 212.625 104.826 212.269 105.542 212.28H127.394C126.365 214.013 126.889 216.419 128.595 218.133Z" fill="#D7E8F0"/>
<path d="M141.887 216.016C141.885 217.182 140.94 218.128 139.774 218.13H128.595C126.888 216.419 126.364 214.013 127.394 212.269H137.265C139.184 212.27 140.922 213.401 141.7 215.155C141.818 215.427 141.882 215.72 141.887 216.016Z" fill="#3FBDF1"/>
<path d="M136.745 218.133C136.687 218.245 136.619 218.352 136.543 218.452C135.078 220.455 131.895 220.65 129.423 218.84C129.13 218.625 128.854 218.388 128.595 218.133C126.888 216.423 126.364 214.016 127.394 212.273C127.451 212.161 127.519 212.055 127.595 211.954C129.06 209.936 132.228 209.757 134.701 211.551C134.998 211.774 135.279 212.019 135.539 212.284C137.232 213.987 137.759 216.379 136.745 218.133Z" fill="white"/>
<path d="M147.055 228.92C147.047 230.087 146.099 231.03 144.931 231.03H123.361C124.401 229.279 123.881 226.891 122.171 225.169H142.433C144.355 225.17 146.096 226.306 146.869 228.067C146.989 228.335 147.053 228.626 147.055 228.92Z" fill="#3FBDF1"/>
<path d="M123.361 231.03H113.212C111.292 231.031 109.552 229.899 108.776 228.144C108.656 227.875 108.593 227.584 108.589 227.29C108.588 226.73 108.81 226.193 109.206 225.797C109.602 225.401 110.139 225.179 110.699 225.18H122.171C123.881 226.891 124.412 229.279 123.361 231.03Z" fill="#D7E8F0"/>
<path d="M123.361 231.03C123.314 231.145 123.251 231.254 123.175 231.352C121.71 233.367 118.538 233.55 116.069 231.751C115.77 231.529 115.489 231.284 115.227 231.019C113.531 229.308 113.011 226.92 114.025 225.159C114.084 225.046 114.151 224.938 114.227 224.836C115.692 222.833 118.875 222.639 121.343 224.452C121.637 224.665 121.914 224.902 122.171 225.159C123.882 226.891 124.413 229.279 123.361 231.03Z" fill="white"/>
<path d="M130.547 243.838H117.633C115.714 243.836 113.976 242.705 113.197 240.952C112.902 240.298 112.96 239.539 113.353 238.939C113.745 238.339 114.417 237.98 115.135 237.989H129.346C128.328 239.743 128.852 242.128 130.547 243.838Z" fill="#3FBDF1"/>
<path d="M151.476 241.743C151.47 242.904 150.527 243.84 149.367 243.838H130.547C128.852 242.128 128.328 239.74 129.346 237.978H146.854C148.776 237.978 150.516 239.115 151.289 240.875C151.41 241.149 151.474 241.444 151.476 241.743Z" fill="#D7E8F0"/>
<path d="M138.697 243.838C138.638 243.951 138.571 244.059 138.495 244.161C137.03 246.175 133.862 246.358 131.39 244.56C131.093 244.336 130.812 244.091 130.551 243.827C128.855 242.117 128.331 239.729 129.35 237.967C129.405 237.854 129.472 237.746 129.547 237.645C131.012 235.641 134.195 235.469 136.668 237.26C136.962 237.474 137.238 237.71 137.495 237.967C139.202 239.699 139.722 242.102 138.697 243.838Z" fill="white"/>
<path d="M41.1255 127.067L41.4478 127.159L41.3269 127.627C41.2504 127.444 41.1832 127.257 41.1255 127.067Z" fill="#353642"/>
<ellipse cx="95.3749" cy="145.908" rx="9.0982" ry="10.9039" transform="rotate(-16.36 95.3749 145.908)" fill="#D7E8F0"/>
</svg>
