<svg width="298" height="322" viewBox="0 0 298 322" fill="none" xmlns="http://www.w3.org/2000/svg">
<path d="M172.675 36.8388C185.778 37.964 198.727 24.3772 208.678 17.6332C229.848 3.33893 252.679 7.55391 270.587 25.3668C313.356 67.905 294.968 141.257 274.589 190.029" stroke="#CCDDE2" stroke-width="2"/>
<path d="M125.701 17.6332C125.593 17.5904 125.488 17.5415 125.386 17.4866" stroke="#CCDDE2" stroke-width="2"/>
<path d="M121.435 15.7859C117.741 14.2429 113.991 12.8135 110.11 11.5563C93.0777 6.06216 81.0448 11.9705 73.2526 19.3008C69.2961 23.1041 65.9694 27.5121 63.3969 32.3599C62.9241 33.2139 62.5613 33.947 62.2974 34.5114" stroke="#CCDDE2" stroke-width="2"/>
<path d="M11.5123 132.266C11.5123 132.266 -10.1453 176.673 34.1449 209.664" stroke="#CCDDE2" stroke-width="2"/>
<path d="M76.6942 178.407L76.1481 178.319C74.7801 178.571 73.4326 178.924 72.1164 179.375C71.9148 179.444 71.7279 179.518 71.5263 179.606C69.5083 180.344 67.5892 181.329 65.8123 182.538C64.7199 180.958 63.7822 179.276 63.0121 177.516C61.9232 175.031 61.1998 172.402 60.8643 169.71C60.3015 169.303 59.7961 168.822 59.3615 168.28C59.6601 172.442 60.6705 176.522 62.3487 180.342C62.422 180.504 62.4916 180.661 62.5649 180.819C62.2204 180.155 61.8869 179.463 61.5826 178.755C60.0359 175.234 59.1179 171.469 58.8704 167.631C58.6931 164.892 58.9166 162.141 59.5338 159.465C60.9999 153.044 64.8153 147.777 70.5001 145.31L73.2416 151.875C72.5971 152.166 71.9748 152.504 71.3797 152.886C67.348 155.452 64.7017 159.726 64.7017 164.56C64.7117 167.871 65.9558 171.06 68.191 173.503C69.1045 174.556 70.1707 175.467 71.3541 176.204C72.8249 177.16 74.4435 177.866 76.1445 178.293C76.3247 178.344 76.5085 178.382 76.6942 178.407Z" fill="#D7E8F0"/>
<path d="M84.8311 179.576C82.7126 179.316 80.5758 179.026 78.4536 178.697C80.4131 178.922 82.3967 178.809 84.3179 178.363L84.8311 179.576Z" fill="#D7E8F0"/>
<path d="M97.2996 78.0687C99.3549 82.691 100.294 87.732 100.041 92.7844C91.6674 98.2283 84.1738 104.919 77.8191 112.624C69.785 111.14 61.9781 104.718 57.8511 95.2108C51.8769 81.4883 55.8573 66.4976 66.7539 61.7622C77.6505 57.0268 91.34 64.3168 97.2996 78.0687Z" fill="#3FBDF1"/>
<path d="M114.152 85.4834C112.214 86.1963 110.321 87.0249 108.482 87.9647C106.925 88.7454 105.077 89.7277 103.043 90.9225C102.94 86.1686 101.9 81.4817 99.9827 77.1304C93.3597 61.9088 78.2114 53.8124 66.1309 59.0646C54.0505 64.3169 49.6376 80.9092 56.2349 96.1491C60.4059 105.756 67.9635 112.511 76.027 114.875C74.7295 116.535 73.443 118.294 72.2042 120.127C67.1647 127.6 63.1059 135.689 60.1273 144.196C59.5189 145.907 58.9459 147.657 58.4084 149.448C58.4084 149.448 54.5856 161.309 58.8555 167.613C58.999 167.844 59.1634 168.061 59.3467 168.262C59.6453 172.424 60.6556 176.504 62.3338 180.324C62.4071 180.485 62.4767 180.643 62.55 180.8C63.0705 181.797 63.6166 182.765 64.2104 183.674C64.7162 183.271 65.2476 182.893 65.7974 182.519C64.705 180.939 63.7673 179.258 62.9972 177.498C61.9083 175.013 61.1849 172.384 60.8494 169.691C61.3168 170.016 61.8138 170.296 62.3338 170.527C64.3435 171.385 66.2951 172.373 68.1761 173.485C69.3918 174.177 70.4651 175.094 71.3392 176.186C71.677 176.589 72.0693 176.943 72.5047 177.238C74.0661 178.249 72.8712 179.012 72.1015 179.375C71.9 179.444 71.713 179.518 71.5114 179.606C70.3422 180.122 49.8685 189.502 53.8782 209.66L60.3289 224.262L50.0114 225.432L34.1411 24.3479L111.304 52.24L114.152 85.4834Z" fill="#3FBDF1"/>
<path d="M64.0564 183.788L60.0247 187.757C59.0159 186.06 58.1149 184.301 57.3271 182.49C51.3235 168.669 52.7236 153.934 59.8378 144.57C59.9257 144.456 60.01 144.324 60.1127 144.203L60.142 144.174L59.5042 159.454L59.2477 165.528C59.2477 165.528 59.2477 167.1 59.3027 167.851C59.3027 167.994 59.3027 168.126 59.332 168.269C59.6306 172.431 60.6409 176.511 62.3191 180.331C62.3924 180.492 62.4621 180.65 62.5354 180.808C63.0155 181.827 63.525 182.82 64.0564 183.788Z" fill="#3FBDF1"/>
<path d="M34.1486 24.3442L0 44.3415L23.7101 225.428L49.9749 224.83L34.1486 24.3442Z" fill="#D7E8F0"/>
<path fill-rule="evenodd" clip-rule="evenodd" d="M104.975 74.9642C106.787 79.0982 107.969 83.4803 108.482 87.9647C110.113 102.336 104.253 115.553 92.8393 120.519C86.2896 123.359 79.0032 123.015 72.208 120.127C63.6094 116.476 55.8025 108.757 51.2577 98.3115C43.132 79.6117 48.5675 59.1965 63.3932 52.7605C78.2189 46.3244 96.8527 56.2497 104.975 74.9642ZM76.0307 114.893C80.7624 116.293 85.6408 116.179 90.1124 114.229C98.5386 110.564 103.245 101.343 103.047 90.9408C102.944 86.1869 101.904 81.5 99.9864 77.1487C93.3634 61.9272 78.2298 53.8307 66.1346 59.083C54.0395 64.3352 49.6156 80.9275 56.2386 96.1674C60.4206 105.774 67.9672 112.529 76.0307 114.893Z" fill="#3FBDF1"/>
<path fill-rule="evenodd" clip-rule="evenodd" d="M109.706 72.9081C111.84 77.7727 113.232 82.9294 113.837 88.2066C115.754 105.107 108.863 120.655 95.4158 126.486C87.7079 129.829 79.1387 129.422 71.1449 126.028C61.0253 121.739 51.844 112.657 46.4965 100.371C36.967 78.3729 43.3407 54.3585 60.7907 46.7862C78.2407 39.2139 100.151 50.8912 109.706 72.9081ZM75.6641 119.863C81.2352 121.509 86.9676 121.373 92.2308 119.082V119.075C102.142 114.765 107.676 103.934 107.438 91.7032C107.319 86.109 106.096 80.5935 103.839 75.4737C96.05 57.5619 78.2115 48.0434 64.0198 54.2156C49.8282 60.3877 44.6016 79.9086 52.3938 97.8314C57.2979 109.135 66.1933 117.077 75.6641 119.863Z" fill="#D7E8F0"/>
<path d="M100.042 92.7844C99.5359 101.214 95.3796 108.468 88.3974 111.514C85.0652 112.947 81.3753 113.33 77.8196 112.613C69.7855 111.129 61.9786 104.707 57.8516 95.1998C51.8773 81.4773 55.8578 66.4866 66.7544 61.7512C77.651 57.0158 91.3405 64.3168 97.3001 78.0577C99.357 82.6834 100.296 87.7284 100.042 92.7844Z" fill="#D7E8F0"/>
<path d="M85.377 107.9C76.0637 111.953 64.3827 105.701 59.2698 93.9719C54.1568 82.2433 57.5765 69.4151 66.8897 65.3834C76.203 61.3517 87.895 67.5825 92.9933 79.3111C98.0915 91.0397 94.6792 103.857 85.377 107.9Z" fill="#3FBDF1"/>
<path d="M76.1477 178.319C74.7797 178.571 73.4322 178.924 72.116 179.375C71.9144 179.444 71.7275 179.518 71.5259 179.606C69.5079 180.344 67.5888 181.329 65.8119 182.538C64.7195 180.958 63.7818 179.276 63.0117 177.517C61.9228 175.031 61.1994 172.402 60.8639 169.71C59.7093 160.547 63.3745 152.062 70.6316 148.917L71.3647 152.886C67.3329 155.452 64.6867 159.726 64.6867 164.56C64.6967 167.871 65.9408 171.06 68.1759 173.503C69.0895 174.556 70.1557 175.467 71.339 176.204C72.8098 177.16 74.4284 177.866 76.1294 178.294L76.1477 178.319Z" fill="#3FBDF1"/>
<ellipse cx="74.699" cy="86.6311" rx="6.55703" ry="8.27235" transform="rotate(-23.5 74.699 86.6311)" fill="#3FBDF1"/>
<path d="M197.616 78.0687C195.561 82.691 194.622 87.732 194.875 92.7844C203.249 98.2283 210.742 104.919 217.097 112.624C225.131 111.14 232.938 104.718 237.065 95.2108C243.039 81.4883 239.059 66.4976 228.162 61.7622C217.265 57.0268 203.576 64.3168 197.616 78.0687Z" fill="#3FBDF1"/>
<path d="M180.764 85.4834C182.702 86.1963 184.595 87.0249 186.434 87.9647C187.991 88.7454 189.839 89.7277 191.873 90.9225C191.976 86.1686 193.016 81.4817 194.933 77.1304C201.556 61.9088 216.705 53.8124 228.785 59.0646C240.866 64.3169 245.278 80.9092 238.681 96.1491C234.51 105.756 226.952 112.511 218.889 114.875C220.187 116.535 221.455 118.294 222.712 120.127C227.758 127.599 231.823 135.688 234.807 144.196C235.415 145.907 235.988 147.657 236.526 149.448C236.526 149.448 240.349 161.309 236.079 167.613C235.935 167.844 235.771 168.061 235.588 168.262C235.289 172.424 234.279 176.504 232.601 180.324C232.527 180.485 232.458 180.643 232.384 180.8C231.864 181.797 231.318 182.765 230.724 183.674C230.218 183.271 229.687 182.893 229.137 182.519C230.229 180.939 231.167 179.258 231.937 177.498C233.026 175.013 233.749 172.384 234.085 169.691C233.623 170.015 233.133 170.295 232.619 170.527C230.609 171.385 228.658 172.373 226.777 173.485C225.561 174.177 224.488 175.094 223.613 176.186C223.276 176.589 222.883 176.943 222.448 177.238C220.887 178.249 222.081 179.012 222.851 179.375C223.053 179.444 223.24 179.518 223.441 179.606C224.61 180.122 245.066 189.502 241.074 209.66L234.624 224.262L244.941 225.432L260.812 24.3479L183.648 52.24L180.764 85.4834Z" fill="#3FBDF1"/>
<path d="M230.859 183.788L234.891 187.757C235.9 186.06 236.801 184.301 237.589 182.49C243.592 168.669 242.192 153.934 235.078 144.57C234.99 144.456 234.906 144.324 234.803 144.203L234.774 144.174L235.412 159.454L235.668 165.528C235.668 165.528 235.668 167.1 235.613 167.851C235.613 167.994 235.613 168.126 235.584 168.269C235.285 172.431 234.275 176.511 232.597 180.331C232.523 180.492 232.454 180.65 232.38 180.808C231.9 181.827 231.391 182.82 230.859 183.788H230.859Z" fill="#3FBDF1"/>
<path d="M260.768 24.3442L294.916 44.3415L271.206 225.428L244.941 224.83L260.768 24.3442Z" fill="#D7E8F0"/>
<path fill-rule="evenodd" clip-rule="evenodd" d="M189.942 74.9642C188.13 79.0982 186.947 83.4803 186.434 87.9647C184.803 102.336 190.664 115.553 202.077 120.519C208.627 123.359 215.913 123.015 222.708 120.127C231.307 116.476 239.114 108.757 243.659 98.3115C251.784 79.6117 246.349 59.1965 231.523 52.7605C216.697 46.3244 198.064 56.2497 189.942 74.9642ZM218.885 114.893C214.154 116.293 209.275 116.179 204.804 114.229C196.378 110.564 191.671 101.343 191.869 90.9408C191.972 86.1869 193.012 81.5 194.93 77.1487C201.553 61.9272 216.686 53.8307 228.782 59.083C240.877 64.3352 245.301 80.9275 238.678 96.1674C234.496 105.774 226.949 112.529 218.885 114.893Z" fill="#3FBDF1"/>
<path d="M208.601 136.606C204.287 135.367 199.959 137.489 195.846 139.171C201.939 141.459 208.526 142.111 214.949 141.062C212.856 139.003 210.72 137.214 208.601 136.606Z" fill="#3FBDF1"/>
<path fill-rule="evenodd" clip-rule="evenodd" d="M185.21 72.9081C183.077 77.7727 181.684 82.9294 181.079 88.2066C179.162 105.107 186.053 120.655 199.482 126.486C207.19 129.829 215.759 129.422 223.753 126.028C233.873 121.739 243.054 112.657 248.401 100.371C257.949 78.3729 251.575 54.3585 234.125 46.7862C216.675 39.2139 194.765 50.8912 185.21 72.9081ZM219.252 119.863C213.681 121.509 207.949 121.373 202.685 119.082V119.075C192.775 114.765 187.24 103.934 187.478 91.7032C187.597 86.109 188.82 80.5935 191.078 75.4737C198.866 57.5619 216.705 48.0434 230.896 54.2156C245.088 60.3877 250.315 79.9086 242.522 97.8314C237.618 109.135 228.723 117.077 219.252 119.863Z" fill="#D7E8F0"/>
<path d="M194.875 92.7844C195.381 101.214 199.537 108.468 206.519 111.514C209.851 112.947 213.541 113.33 217.097 112.613C225.131 111.129 232.938 104.707 237.065 95.1998C243.039 81.4773 239.059 66.4866 228.162 61.7512C217.265 57.0158 203.576 64.3168 197.616 78.0577C195.559 82.6834 194.62 87.7284 194.875 92.7844Z" fill="#D7E8F0"/>
<path d="M209.539 107.9C218.853 111.953 230.534 105.701 235.647 93.9719C240.759 82.2433 237.34 69.4151 228.027 65.3834C218.713 61.3517 207.021 67.5825 201.923 79.3111C196.825 91.0397 200.237 103.857 209.539 107.9Z" fill="#3FBDF1"/>
<path d="M218.768 178.319C220.136 178.571 221.484 178.924 222.8 179.375C223.001 179.444 223.188 179.518 223.39 179.606C225.408 180.344 227.327 181.329 229.104 182.538C230.196 180.958 231.134 179.276 231.904 177.516C232.993 175.031 233.716 172.402 234.052 169.71C235.206 160.547 231.541 152.062 224.284 148.917L223.551 152.886C228.682 155.034 232.036 159.007 230.229 164.56C229.181 167.782 228.932 171.066 226.74 173.503C225.826 174.556 224.76 175.467 223.577 176.204C222.106 177.16 220.487 177.866 218.786 178.293L218.768 178.319Z" fill="#3FBDF1"/>
<ellipse cx="220.238" cy="86.655" rx="8.27235" ry="6.55703" transform="rotate(-66.5 220.238 86.655)" fill="#3FBDF1"/>
<path d="M149.804 158.945C158.043 162.027 165.417 165.835 171.505 170.673C165.172 166.07 156.181 161.467 143.225 156.676C121.409 148.583 107.068 150.288 107.068 150.288C110.124 147.531 108.046 143.866 108.046 143.866C108.046 143.866 103.186 139.145 84.0685 145.277C64.9508 151.409 64.3864 161.859 64.3864 161.859C63.1146 169.607 68.8433 174.844 68.8433 174.844L68.8872 175.031C67.9222 174.184 67.0775 173.208 66.3766 172.132C66.1897 171.857 66.0101 171.568 65.8561 171.278C65.4519 170.568 65.1192 169.819 64.8629 169.042C64.7608 168.784 64.6739 168.52 64.6026 168.251C64.6026 168.163 64.5586 168.079 64.544 167.991C64.4617 167.711 64.3944 167.427 64.3424 167.14C64.3424 167.038 64.2984 166.924 64.2838 166.807C64.2314 166.52 64.1935 166.232 64.1701 165.942C64.0869 165.242 64.0624 164.538 64.0968 163.834C64.0968 163.834 64.0968 163.545 64.1261 163.101C64.1261 163.072 64.1261 163.046 64.1261 163.017C64.1848 161.917 64.3864 159.942 64.9472 158.619C64.4853 159.282 64.0382 159.96 63.591 160.638C63.3161 161.071 62.913 161.807 62.4365 162.603C62.394 162.657 62.356 162.715 62.3229 162.775C61.0804 164.421 59.7572 165.791 58.6577 165.59C58.5834 165.573 58.5109 165.548 58.4414 165.517C57.778 165.242 57.3712 164.52 57.1146 163.581C57.1989 163.581 57.0413 163.336 57.0267 163.215C56.9373 162.825 56.8748 162.429 56.8397 162.031C56.8397 161.785 56.7958 161.525 56.7811 161.269V160.964C56.7638 158.791 56.9182 156.619 57.2429 154.47C58.3241 146.19 62.2935 138.555 66.1603 131.284C71.8237 120.727 78.966 111.034 87.3708 102.497C97.9486 91.6775 114.959 83.5371 130.096 80.9128V116.832L143.06 109.19C143.06 109.19 148.297 122.385 149.796 140.384C150.306 146.273 150.331 152.194 149.87 158.087C149.87 158.16 149.87 158.234 149.84 158.289C149.848 158.505 149.818 158.736 149.804 158.945Z" fill="#3FBDF1"/>
<path d="M156.119 156.658C176.853 148.565 186.511 149.588 186.511 149.588C183.604 146.85 184.477 144.189 184.477 144.189C184.477 144.189 194.157 139.127 212.332 145.259C230.508 151.391 231.025 161.84 231.025 161.84C232.231 169.589 226.788 174.826 226.788 174.826L226.747 175.013C227.67 174.159 228.472 173.183 229.134 172.114C229.313 171.839 229.474 171.549 229.628 171.26C230.013 170.546 230.329 169.797 230.574 169.024C230.67 168.765 230.751 168.5 230.819 168.232C230.819 168.144 230.86 168.06 230.874 167.972C230.955 167.697 231.01 167.408 231.065 167.122C231.065 167.019 231.109 166.906 231.12 166.788C231.173 166.502 231.21 166.213 231.23 165.923C231.308 165.224 231.332 164.519 231.3 163.816C231.3 163.816 231.3 163.526 231.27 163.083C231.27 163.053 231.27 163.028 231.27 162.998C231.215 161.899 231.021 159.923 230.486 158.6C230.926 159.264 231.351 159.942 231.776 160.62C232.036 161.052 232.421 161.789 232.876 162.584C232.92 162.637 232.956 162.695 232.986 162.757C234.166 164.402 235.427 165.773 236.457 165.571C236.527 165.554 236.596 165.529 236.662 165.498C237.292 165.223 237.677 164.501 237.923 163.563C237.842 163.563 237.992 163.317 238.007 163.196C238.091 162.806 238.15 162.411 238.183 162.013C238.183 161.767 238.223 161.507 238.238 161.25V160.946C238.255 158.773 238.109 156.602 237.802 154.451C236.772 146.172 233 138.537 229.328 131.265C223.989 120.773 217.203 111.083 209.169 102.479C199.138 91.6151 182.956 83.4747 168.57 80.8505V116.769L157.486 109.871C154.469 120.321 152.516 131.048 151.659 141.891C151.219 147.414 149.32 151.904 149.8 158.094C149.8 158.168 149.8 158.241 149.826 158.296C149.826 158.512 149.855 158.743 149.866 158.959L156.119 156.658Z" fill="#3FBDF1"/>
<path d="M193.193 222.543C193.222 221.301 193.251 219.978 193.266 218.545L193.31 219.886C193.355 220.773 193.316 221.663 193.193 222.543Z" fill="#3FBDF1"/>
<path d="M119.889 315.247L78.7652 320.213C77.2828 320.215 75.8603 319.628 74.8107 318.581C73.7611 317.535 73.1704 316.114 73.1685 314.631C73.1725 311.544 75.6777 309.043 78.7652 309.046L93.8292 304.82C95.2229 304.43 96.3691 303.437 96.9531 302.113C97.5371 300.788 97.4977 299.272 96.8456 297.98L78.4647 261.446C102.428 270.378 111.968 257.883 111.968 257.883L124.881 307.931C125.3 309.574 124.993 311.317 124.037 312.717C123.082 314.117 121.571 315.039 119.889 315.247Z" fill="#2E2E2E"/>
<path d="M222.228 314.613C222.234 316.096 221.649 317.521 220.602 318.572C219.555 319.623 218.133 320.213 216.65 320.213L175.699 316.504C173.992 316.342 172.441 315.443 171.451 314.043C170.462 312.643 170.132 310.881 170.549 309.218L183.645 257.905C188.12 261.398 198.108 268.571 216.679 262.739L198.683 299.102C198.019 300.446 198.014 302.022 198.669 303.371C199.324 304.72 200.566 305.69 202.033 306L216.665 309.042C219.737 309.05 222.224 311.541 222.228 314.613Z" fill="#2E2E2E"/>
<path d="M143.309 109.19L130.368 116.762V80.8431C130.496 80.8138 130.643 80.7991 130.771 80.7698L143.309 109.19Z" fill="#2E2E2E"/>
<path d="M169.083 81.4699V116.762L165.752 114.772L157.563 109.868L168.676 81.3856C168.697 81.3064 168.763 81.2477 168.845 81.238C168.926 81.2282 169.004 81.2694 169.043 81.3416L169.083 81.4699Z" fill="#2E2E2E"/>
<path d="M119.969 220.637L119.379 220.898" stroke="black" stroke-width="2"/>
<path d="M112.433 234.081C111.583 234.543 110.128 236.28 110.128 236.28C108.552 238.479 107.874 241.621 109.028 246.525L124.873 307.935C125.3 309.579 124.996 311.328 124.04 312.732C123.083 314.137 121.568 315.06 119.881 315.265L78.7576 320.213C75.6701 320.215 73.1649 317.715 73.1609 314.628C73.1649 311.54 75.6701 309.04 78.7576 309.042L93.8216 304.82C95.2154 304.43 96.3615 303.437 96.9455 302.113C97.5295 300.788 97.4901 299.272 96.838 297.98L56.2203 217.262C50.7029 205.574 54.0232 191.623 64.2141 183.674C64.7199 183.267 65.2514 182.893 65.8012 182.519C68.9236 180.421 72.4463 178.991 76.148 178.319" stroke="black" stroke-width="2"/>
<path d="M219.322 178.345C236.871 181.607 246.954 200.754 239.161 217.262L198.665 299.091C198 300.434 197.995 302.009 198.65 303.356C199.306 304.704 200.548 305.672 202.015 305.978L216.639 309.027C218.121 309.024 219.544 309.612 220.593 310.66C221.642 311.708 222.23 313.13 222.228 314.613C222.234 316.098 221.647 317.524 220.598 318.576C219.549 319.627 218.124 320.216 216.639 320.213L175.68 316.504C173.972 316.344 172.419 315.446 171.428 314.046C170.437 312.645 170.106 310.882 170.523 309.218L186.353 246.525C187.174 243.08 186.543 239.449 184.609 236.482C180.808 230.471 161.866 226.828 161.866 226.828C158.172 226.238 153.96 225.754 149.166 225.442C148.19 225.38 147.21 225.38 146.234 225.442C141.425 225.754 137.218 226.238 133.52 226.828" stroke="black" stroke-width="2"/>
<path d="M176.266 219.556C175.9 219.395 175.533 219.252 175.141 219.094" stroke="black" stroke-width="2"/>
<path d="M168.764 217.016C168.159 216.844 167.525 216.683 166.858 216.54" stroke="black" stroke-width="2"/>
<path d="M128.263 218.053C127.871 218.141 127.483 218.229 127.109 218.343" stroke="black" stroke-width="2"/>
<path d="M184.246 145.259C184.652 146.678 184.956 148.125 185.155 149.588C172.561 151.42 160.598 154.539 149.969 158.952" stroke="black" stroke-width="2"/>
<path d="M115.607 183.798C112.609 184.916 110.502 187.427 108.566 189.857C106.279 192.789 103.832 195.592 101.236 198.254C99.0736 200.453 96.4127 202.286 94.9466 205.053C94.9346 205.088 94.9199 205.123 94.9026 205.156C92.7658 209.426 98.5972 213.263 101.867 209.774L103.798 207.725" stroke="black" stroke-width="2"/>
<path d="M107.984 196.528C102.666 205.277 102.376 216.855 102.083 227.117C102.039 228.554 102.061 230.05 102.658 231.351C104.003 234.305 108.816 234.305 109.149 230.618C109.827 222.727 111.777 213.758 111.964 212.79" stroke="black" stroke-width="2"/>
<path d="M184.477 185.334C184.565 185.334 184.663 185.29 184.751 185.275C196.253 182.593 207.883 180.342 219.307 178.334C219.439 178.308 219.552 178.293 219.673 178.264C223.501 177.594 226.878 175.362 228.994 172.103" stroke="black" stroke-width="2"/>
<path d="M155.155 193.192C150.024 194.79 145.662 196.542 141.114 199.592C135.041 203.671 134.747 210.536 134.967 216.712C135.055 219.237 135.158 221.748 135.158 224.259C135.158 225.02 134.855 225.751 134.316 226.289C133.777 226.827 133.046 227.129 132.284 227.128H131.606C130.077 227.132 128.818 225.929 128.751 224.402L128.275 218.053L127.695 210.422C127.695 210.422 127.41 213.886 127.12 218.343C126.874 222.21 126.644 226.828 126.629 230.563C126.626 232.082 125.439 233.335 123.922 233.42C122.406 233.504 121.086 232.391 120.915 230.882C120.64 228.602 120.237 224.937 119.977 220.637C119.819 218.2 119.702 215.557 119.687 212.845" stroke="black" stroke-width="2"/>
<path d="M119.676 212.772V212.845C119.332 220.073 119.086 228.745 119.445 235.485C119.544 237.347 117.745 238.648 115.996 238.612C113.555 238.56 112.742 236.658 112.489 234.562C111.602 227.147 110.656 220.223 111.957 212.794C111.963 212.781 111.963 212.767 111.957 212.754" stroke="black" stroke-width="2"/>
<path d="M185.155 149.588C189.201 149.073 193.293 150.104 196.612 152.476" stroke="black" stroke-width="2"/>
<path d="M110.399 149.588C124.741 151.695 138.255 154.569 149.984 158.952C160.847 163.01 170.168 168.346 177.15 175.563C181.709 180.236 185.213 185.862 188.71 191.36C189.04 191.866 189.359 192.371 189.689 192.877C190.828 194.765 192.216 196.491 193.816 198.009C195.579 199.581 197.697 200.853 198.91 202.946C200.123 205.038 199.863 207.619 197.712 208.975C196.689 209.624 194.277 210.027 192.995 209.176" stroke="black" stroke-width="2"/>
<path d="M175.878 205.559V205.632C176.219 212.688 176.461 221.121 176.134 227.788C176.093 228.703 176.429 229.594 177.062 230.255C177.696 230.915 178.573 231.288 179.488 231.285C181.202 231.285 182.64 229.994 182.823 228.29C183.406 222.836 184.37 214.223 182.457 203.422C182.451 203.409 182.451 203.394 182.457 203.382C182.648 204.346 185.726 215.513 186.404 223.408C186.742 227.073 191.536 227.073 192.899 224.141C193.497 222.833 193.515 221.345 193.475 219.908C193.181 209.664 192.892 198.078 187.574 189.333" stroke="black" stroke-width="2"/>
<path d="M110.4 149.588C106.354 149.073 102.264 150.104 98.9458 152.476" stroke="black" stroke-width="2"/>
<path fill-rule="evenodd" clip-rule="evenodd" d="M130.283 80.8762V116.795L143.225 109.223L130.686 80.8065C130.65 80.7144 130.554 80.6604 130.456 80.6773C130.358 80.6941 130.286 80.7772 130.283 80.8762H130.283Z" stroke="black" stroke-width="2"/>
<path d="M143.225 109.19C143.225 109.19 152.388 132.247 149.965 158.952C149.965 158.952 152.604 124.518 157.486 109.864L169.002 116.762V81.4662C169.007 81.3618 168.935 81.2694 168.832 81.25C168.729 81.2306 168.628 81.2901 168.595 81.3892L157.486 109.864" stroke="black" stroke-width="2"/>
<path d="M169.002 81.4662L162.339 57.8037" stroke="black" stroke-width="2"/>
<path d="M130.686 80.7735L134.399 60.8275" stroke="black" stroke-width="2"/>
<path d="M84.8311 179.576C84.8451 179.57 84.861 179.57 84.875 179.576C88.704 181.315 92.0192 184.013 94.4998 187.409C95.5111 188.768 96.3542 190.245 97.0105 191.807C98.1702 194.512 98.826 197.406 98.9457 200.347" stroke="black" stroke-width="2"/>
<path d="M193.797 198.012C193.797 198.012 198.507 182.094 219.322 178.345" stroke="black" stroke-width="2"/>
<path d="M185.734 238.611C185.734 238.611 186.423 233.055 187.64 225.681" stroke="black" stroke-width="2"/>
<path d="M178.825 32.4663C178.825 42.2963 173.466 51.0782 166.081 56.7775C164.66 57.8783 163.156 58.8684 161.584 59.739C162.787 57.0646 163.394 54.1608 163.365 51.2284V49.2932C163.689 49.0559 163.993 48.7923 164.274 48.5052C164.668 48.1228 165.019 47.6988 165.322 47.2407C165.635 46.7799 165.9 46.2887 166.114 45.7746C166.562 44.7225 166.791 43.5902 166.788 42.4466C166.789 42.1783 166.773 41.9102 166.741 41.6439C166.748 41.6003 166.748 41.5557 166.741 41.512C166.72 41.2578 166.681 41.0054 166.623 40.757C166.629 40.7267 166.629 40.6956 166.623 40.6653C166.574 40.4093 166.506 40.157 166.422 39.9103C166.346 39.6401 166.252 39.3756 166.139 39.1186C166.105 39.0335 166.066 38.9503 166.022 38.8694C165.957 38.7121 165.883 38.5591 165.799 38.4112C165.784 38.3727 165.763 38.3368 165.736 38.3049C165.623 38.083 165.493 37.8698 165.348 37.6672C165.219 37.4656 165.066 37.264 164.923 37.0771C164.71 36.8279 164.497 36.5933 164.274 36.3697C164.05 36.1461 163.907 36.0362 163.731 35.8713C163.636 35.7906 163.53 35.7063 163.424 35.6257C163.317 35.5451 163.13 35.4131 162.976 35.3178C162.769 35.1742 162.552 35.0444 162.328 34.9293C161.787 34.6293 161.212 34.3955 160.616 34.2329V30.4724C160.621 30.3894 160.621 30.3062 160.616 30.2232C160.488 28.2399 158.839 26.6986 156.852 26.7046H138.049C135.97 26.7066 134.285 28.3929 134.285 30.4724V34.4712C131.416 35.5727 129.359 38.1284 128.895 41.1664C128.431 44.2043 129.633 47.2576 132.042 49.1649V51.2541C132.034 54.1814 132.659 57.0759 133.875 59.739C130.644 57.9609 127.713 55.6864 125.188 52.9987C121.626 48.08 119.394 42.1901 119.394 35.8529C119.389 23.1297 127.129 11.6848 138.94 6.95253C150.75 2.22027 164.252 5.15381 173.034 14.3602C176.815 19.6388 178.841 25.9729 178.825 32.4663Z" fill="#2E2E2E"/>
<path d="M132.039 49.1576V51.2541C131.991 55.7528 133.495 60.1306 136.298 63.6498C138.691 66.5819 142.276 69.1879 147.499 69.3675C153.63 69.5837 157.614 66.0175 160.059 62.4219C162.267 59.1084 163.418 55.2026 163.358 51.2211L163.299 42.1607V36.2524" stroke="black" stroke-width="2"/>
<path d="M145.922 42.4503C145.922 44.7227 145.019 46.9019 143.412 48.5084C141.805 50.1149 139.625 51.0169 137.353 51.0159C136.823 51.0204 136.293 50.97 135.773 50.8656C132.325 49.0011 130.584 45.0317 131.549 41.2318C132.513 37.432 135.936 34.7733 139.856 34.7791C140.387 34.7758 140.916 34.8274 141.436 34.933C144.2 36.4235 145.923 39.3104 145.922 42.4503Z" fill="#3FBDF1"/>
<path d="M166.774 42.4503C166.774 44.7227 165.871 46.9019 164.264 48.5084C162.657 50.1149 160.477 51.0169 158.205 51.0159C157.674 51.0204 157.145 50.97 156.625 50.8656C153.176 49.0011 151.436 45.0317 152.4 41.2318C153.365 37.432 156.788 34.7733 160.708 34.7791C161.238 34.7758 161.768 34.8274 162.288 34.933C165.051 36.4235 166.774 39.3104 166.774 42.4503Z" fill="#3FBDF1"/>
<circle cx="137.357" cy="42.4539" r="8.5619" stroke="black" stroke-width="2"/>
<circle cx="158.212" cy="42.4539" r="8.5619" stroke="black" stroke-width="2"/>
<path d="M145.919 58.4708C145.919 58.4708 150.834 61.6192 153.704 57.2906" stroke="black" stroke-width="2"/>
<path d="M161.573 59.739C171.179 54.4391 178.825 44.2096 178.825 32.4663C178.947 21.2653 173.041 10.8628 163.36 5.2269C153.679 -0.408967 141.717 -0.408967 132.037 5.2269C122.356 10.8628 116.45 21.2653 116.572 32.4663C116.572 44.2206 124.239 54.4574 133.857 59.739" stroke="black" stroke-width="2"/>
<path d="M134.282 33.9287V30.4761C134.282 28.3946 135.968 26.7066 138.05 26.7046H156.801C158.884 26.7046 160.572 28.3931 160.572 30.4761V33.892" stroke="black" stroke-width="2"/>
<path d="M64.2583 163.819C63.9439 170.868 68.9091 177.055 75.8586 178.275L76.1482 178.319C79.0327 178.825 81.9318 179.213 84.831 179.576C84.845 179.57 84.861 179.57 84.875 179.576C89.2476 180.108 93.6201 180.569 97.9781 181.163L98.2823 181.203C99.796 181.423 101.324 181.64 102.842 181.871C107.097 182.475 111.352 183.124 115.611 183.787C122.637 184.869 129.664 185.968 136.69 187.035C141.784 187.801 147.282 187.973 151.827 190.656C153.031 191.36 154.145 192.208 155.144 193.181C158.736 196.586 160.745 201.406 161.074 206.31C161.276 209.341 160.499 212.24 160.426 215.257V217.016C160.422 217.78 160.722 218.514 161.261 219.056C161.799 219.598 162.531 219.903 163.296 219.904H163.919C165.461 219.908 166.743 218.716 166.851 217.177L166.895 216.529L167.903 203.195C167.903 203.195 168.496 210.137 168.797 217.005C168.885 219.204 168.958 221.403 168.973 223.339C168.976 224.156 169.331 224.933 169.947 225.471C170.563 226.009 171.38 226.256 172.191 226.15C173.536 225.943 174.57 224.851 174.702 223.496C174.845 222.327 175.002 220.828 175.174 219.098C175.541 215.433 175.867 210.642 175.907 205.636" stroke="black" stroke-width="2"/>
<path d="M238.252 163.541C237.574 166.4 235.485 170.728 229.02 172.114C230.634 169.657 231.432 166.753 231.299 163.816C231.226 162.243 231.193 161.474 231.021 159.7C232.608 162.181 235.181 166.213 236.925 165.476C237.589 165.201 237.988 164.479 238.252 163.541Z" fill="black"/>
<path d="M174.723 128.421C176.491 130.193 178.059 132.154 179.4 134.267C180.244 135.594 180.689 137.136 180.683 138.709V145.259C181.782 144.892 182.86 144.581 183.981 144.31C191.738 142.399 199.834 142.338 207.618 144.134C213.092 145.444 218.257 147.809 222.825 151.098C224.214 152.097 225.545 153.177 226.809 154.33C228.076 155.429 229.252 156.629 230.324 157.919C232.083 160.162 233.11 163.119 235.345 164.985C235.771 165.352 236.368 165.718 236.936 165.483C237.6 165.209 238.006 164.487 238.263 163.548C237.585 166.407 235.496 170.736 229.03 172.121" stroke="black" stroke-width="2"/>
<path d="M168.734 80.5463C183.971 83.1119 197.323 91.5125 207.996 102.435C216.396 110.972 223.533 120.666 229.192 131.221C233.059 138.493 237.028 146.128 238.109 154.407C238.434 156.557 238.588 158.728 238.571 160.902V161.206C238.571 161.463 238.527 161.723 238.512 161.969C238.476 162.367 238.414 162.762 238.325 163.152C238.31 163.277 238.28 163.4 238.237 163.519" stroke="black" stroke-width="2"/>
<path d="M238.252 163.541C238.295 163.422 238.324 163.299 238.34 163.174C238.43 162.785 238.492 162.389 238.527 161.991C238.571 161.675 238.571 161.415 238.586 161.228V160.924" stroke="black" stroke-width="2"/>
<path d="M57.2944 163.541C57.9725 166.4 60.0653 170.728 66.5307 172.114C64.9165 169.657 64.1211 166.752 64.2583 163.816C64.3279 162.243 64.3609 161.474 64.5332 159.7C62.9462 162.181 60.3769 166.213 58.6286 165.476C57.9615 165.201 57.5583 164.479 57.2944 163.541Z" fill="black"/>
<path d="M120.831 128.421C119.063 130.193 117.495 132.154 116.154 134.267C115.31 135.594 114.865 137.136 114.871 138.709V145.259C113.771 144.892 112.69 144.581 111.572 144.31C103.817 142.399 95.7217 142.339 87.9391 144.134C82.4644 145.444 77.2977 147.809 72.7286 151.098C71.3404 152.097 70.0114 153.177 68.7482 154.33C66.7506 156.163 65.2222 158.362 63.7598 160.609C62.8802 161.969 60.8093 166.407 58.6286 165.483C57.9652 165.209 57.562 164.487 57.3018 163.548C57.9798 166.407 60.0726 170.736 66.538 172.121" stroke="black" stroke-width="2"/>
<path d="M130.686 80.7736C115.447 83.3392 98.2348 91.5126 87.5544 102.435C79.1508 110.972 72.0086 120.666 66.344 131.221C62.4772 138.493 58.5114 146.128 57.4302 154.407C57.1036 156.557 56.9492 158.728 56.9684 160.902V161.206C56.9684 161.463 57.0087 161.723 57.0234 161.969C57.0608 162.367 57.1244 162.763 57.214 163.152C57.2269 163.278 57.2552 163.401 57.2983 163.519" stroke="black" stroke-width="2"/>
<path d="M57.2944 163.541C57.386 163.541 57.221 163.295 57.2101 163.175C57.1197 162.785 57.056 162.389 57.0195 161.991C56.9791 161.675 56.9791 161.415 56.9645 161.228V160.924" stroke="black" stroke-width="2"/>
<path d="M230.314 157.911C230.314 157.911 233.484 165.74 228.646 172.656" stroke="black" stroke-width="2"/>
<path d="M134.399 115.08L136.232 128.231C137.206 135.203 143.17 140.392 150.211 140.392C157.409 140.39 163.452 134.972 164.237 127.816L165.667 114.768" stroke="black" stroke-width="2"/>
<path d="M64.2583 163.816C64.2583 163.816 64.3059 160.547 65.1343 158.575" stroke="black" stroke-width="2"/>
<path d="M109.457 143.844L108.054 149.456" stroke="black" stroke-width="2"/>
<path d="M111.964 257.905C111.964 257.905 102.435 270.4 78.4536 261.464" stroke="black" stroke-width="2"/>
<path d="M183.63 257.905C183.63 257.905 193.159 270.4 217.141 261.464" stroke="black" stroke-width="2"/>
<path d="M193.321 211.995C193.321 214.36 193.302 216.543 193.266 218.545C193.178 215.488 193.064 212.314 192.819 209.18C192.313 202.949 191.231 196.744 188.545 191.389C188.545 191.389 188.545 191.389 188.545 191.36C187.262 189.326 185.979 187.291 184.638 185.287C182.4 181.815 179.845 178.56 177.003 175.563C175.356 173.864 173.602 172.272 171.751 170.798C175.966 173.903 178.968 177.029 181.174 180.192C186.676 188.156 193.365 195.403 193.321 211.995Z" fill="black"/>
<path d="M276.693 225.428H235.122" stroke="black" stroke-width="2"/>
<path d="M60.3326 225.428H23.71" stroke="black" stroke-width="2"/>
</svg>
