<svg width="294" height="288" viewBox="0 0 294 288" fill="none" xmlns="http://www.w3.org/2000/svg">
<path d="M228.299 61.6769C226.955 57.9482 225.459 54.2453 223.821 50.6459C220.558 43.4825 219.808 36.694 215.223 30.7035" stroke="#CCDDE2" stroke-width="2"/>
<path d="M204.596 23.8376C200.651 19.8245 196.961 15.511 190.256 12.2896C176.088 5.50427 157.971 4.81604 134.846 14.4124" stroke="#CCDDE2" stroke-width="2"/>
<path d="M37.6253 286.824C15.2175 255.149 7.97017 219.339 11.715 182.714" stroke="#CCDDE2" stroke-width="2"/>
<path d="M240.907 130.894V131.285C240.687 138.393 247.256 167.861 265.887 177.221C284.517 186.582 297.8 227.669 255.796 243.789C213.792 259.909 216.079 286.824 216.079 286.824" stroke="#CCDDE2" stroke-width="2"/>
<path d="M134.843 44.8364V10.0245C134.83 5.04556 130.797 1.01243 125.818 1H10.5323C5.55337 1.01243 1.52024 5.04556 1.50781 10.0245V173.712C1.51673 178.69 5.55504 182.719 10.5323 182.718H125.818C126.937 182.725 128.045 182.512 129.082 182.091" stroke="black" stroke-width="2" stroke-linecap="round" stroke-linejoin="round"/>
<rect x="5.55664" y="6.5155" width="125.238" height="170.703" rx="10" fill="#3FBDF1"/>
<rect x="12.9297" y="19.7242" width="111.861" height="31.9621" rx="12.48" fill="#3FBDF1"/>
<circle cx="68.1751" cy="29.8796" r="3.30542" fill="#D7E8F0"/>
<path d="M58.9375 44.8366C58.9375 39.7348 63.0734 35.5989 68.1752 35.5989C73.2771 35.5989 77.413 39.7348 77.413 44.8366H58.9375Z" fill="#D7E8F0"/>
<path fill-rule="evenodd" clip-rule="evenodd" d="M68.8472 85.9329C61.6408 85.9289 55.1419 90.2675 52.3822 96.9247C49.6226 103.582 51.146 111.246 56.2418 116.342C61.3375 121.437 69.0016 122.961 75.6588 120.201C82.316 117.442 86.6546 110.943 86.6507 103.736C86.6453 93.9059 78.6776 85.9382 68.8472 85.9329ZM68.8472 117.246C67.4116 117.246 66.2478 116.082 66.2478 114.646C66.2478 113.211 67.4116 112.047 68.8472 112.047C70.2828 112.047 71.4466 113.211 71.4466 114.646C71.4466 116.082 70.2828 117.246 68.8472 117.246ZM71.9116 98.8647C71.9895 98.3109 72.0669 97.7597 72.1462 97.2128V97.2257C72.1828 96.9359 72.2326 96.6327 72.2835 96.3226C72.5697 94.5796 72.8916 92.6198 71.1058 91.5939C69.4127 90.6343 66.4821 90.8605 65.4513 92.6925C64.525 94.3028 65.0774 96.7411 65.5299 98.7385C65.6567 99.2981 65.7756 99.8231 65.852 100.286C66.2829 103.192 66.9068 106.067 67.7196 108.89C68.0104 109.782 69.7035 109.782 69.9813 108.89C70.9547 105.671 71.4401 102.218 71.9116 98.8647Z" fill="#D7E8F0"/>
<path d="M24.1162 65.955H111.094" stroke="white" stroke-width="2"/>
<path d="M24.1162 74.5142H111.094" stroke="white" stroke-width="2"/>
<path d="M24.1162 129.647H111.094" stroke="white" stroke-width="2"/>
<path d="M44.3203 137.744H90.8903" stroke="white" stroke-width="2"/>
<path d="M33.3569 190.769C33.3569 190.769 48.8339 129.269 97.0389 114.247L116.632 109.572C116.632 109.572 119.731 95.7328 118.59 94.2788C117.45 92.8248 115.107 89.8458 110.816 90.492C106.525 91.1382 95.433 91.345 92.5928 77.784C89.7527 64.2231 100.247 31.9895 127.521 27.1687C154.795 22.3479 155.431 42.3743 155.431 42.3743L135.399 88.7957L138.507 126.244L138.898 182.029L33.3569 190.769Z" fill="white"/>
<mask id="mask0_3619_24846" style="mask-type:alpha" maskUnits="userSpaceOnUse" x="21" y="25" width="209" height="263">
<path fill-rule="evenodd" clip-rule="evenodd" d="M21.2534 25.4692H229.954V288H21.2534L21.2534 25.4692Z" fill="white"/>
</mask>
<g mask="url(#mask0_3619_24846)">
<path d="M199.937 143.259C199.614 143.353 195.491 144.552 193.869 147.408C193.239 146.073 191.895 145.222 190.418 145.224H142C140.226 145.221 138.686 146.445 138.288 148.174L128.753 189.057C128.107 188.931 127.46 188.853 126.788 188.789L104.287 183.173C102.287 182.671 100.233 183.772 99.5435 185.716C99.3936 186.137 99.3192 186.581 99.3238 187.028C99.3237 189.133 100.952 190.88 103.053 191.028L113.693 191.713C103.443 196.537 90.9746 205.726 80.5672 214.169C70.4409 198.314 79.9436 182.462 87.0908 173.926C86.17 164.517 81.5043 142.671 58.2241 143.266C66.2437 132.981 76.244 124.167 88.6353 118.267C131.079 165.312 179.636 126.848 180.667 126.021C187.928 130.758 194.426 136.573 199.937 143.266" fill="#2E2E2E"/>
<path d="M195.527 278.216V286.346H55.3579V274.83C60.8185 275.153 66.5634 273.861 71.7881 271.505C78.4022 268.494 84.1148 263.815 89.0002 258.477C94.0246 252.952 96.784 245.291 99.986 238.629C104.794 228.596 111.162 221.449 121.269 218.421L120.623 221.2C120.36 222.333 120.628 223.524 121.351 224.436C122.074 225.347 123.172 225.88 124.336 225.882H172.996C172.027 234.283 167.939 280.165 195.527 278.226" fill="#2E2E2E"/>
<path d="M173.019 64.4106C172.98 68.7572 172.413 73.0829 171.332 77.2931C170.325 81.3698 167.023 84.4784 162.893 85.2383C162.812 82.3045 161.565 79.7293 159.661 78.1299C159.835 75.6461 159.81 73.1524 159.587 70.6725C159.461 69.0343 159.264 67.506 159.057 66.1328C158.934 65.3512 158.756 64.5792 158.524 63.8226C157.875 63.1247 157.109 62.5442 156.262 62.1068C153.267 60.4202 147.102 58.6269 135.68 61.2635C133.815 61.6904 132.061 62.5038 130.53 63.6513C130.496 63.6723 130.465 63.6985 130.439 63.7289C129.409 64.6788 128.097 65.8808 126.74 66.5044C125.334 67.1506 123.867 67.1765 122.636 65.6481C122.604 65.6158 122.588 65.5867 122.559 65.5544C121.912 64.7111 121.295 63.6158 120.155 63.3993C117.751 62.9469 116.581 65.338 116.277 67.3477C116.012 69.2056 116.559 70.8438 117.357 72.4044C118.025 73.6732 118.898 74.8228 119.941 75.8067C120.209 76.0656 120.455 76.3467 120.675 76.6468C120.575 76.6645 120.476 76.6916 120.381 76.7276C120.16 76.8018 119.944 76.8903 119.735 76.9926C116.827 78.3012 114.756 81.5807 114.71 85.4193C114.71 85.5388 109.835 85.4678 109.217 85.4193C106.839 85.1996 104.497 84.5146 102.823 82.7213C98.0733 77.6323 98.096 70.0812 100.048 64.1748C101.896 58.5688 104.248 53.0953 107.33 48.0515C114.009 37.1368 124.371 29.0849 137.49 28.3611C140.636 28.2029 143.789 28.3871 146.895 28.9104C148.365 29.142 149.819 29.4658 151.248 29.8798C164.621 35.7151 173.109 48.9433 173.032 64.4106" fill="#2E2E2E"/>
<path d="M165.274 188.841C163.694 192.896 159.933 195.216 156.873 194.01C153.813 192.805 152.611 188.566 154.188 184.511C155.765 180.456 159.529 178.133 162.589 179.341C165.649 180.55 166.854 184.789 165.274 188.844" fill="#3FBDF1"/>
<path d="M173.403 225.055C173.403 225.055 164.821 284.879 199.149 278.248C233.289 271.647 246.21 132.758 147.39 112.783" stroke="black" stroke-width="2"/>
<path d="M93.0325 167.46C93.0325 167.46 65.3355 190.818 80.26 214.179" stroke="black" stroke-width="2"/>
<path d="M174.027 208.437C173.552 208.466 172.873 208.15 172.411 208.024C171.825 207.868 171.245 207.703 170.67 207.526C167.295 206.476 164.121 204.868 161.277 202.77C160.631 202.308 159.48 202.01 158.692 202.314C157.798 202.642 157.154 203.431 157.012 204.372C156.77 206.04 157.946 207.671 159.228 208.741C160.75 210.014 162.33 211.187 164.175 211.949C165.956 212.664 167.793 213.23 169.668 213.639C170.518 213.836 171.381 213.962 172.224 214.179" stroke="black" stroke-width="2"/>
<path d="M184.657 192.252C185.006 194.094 185.261 196.007 185.087 197.878C184.941 199.461 184.373 201.309 182.612 201.694C182.277 201.782 181.929 201.814 181.584 201.787C174.954 201.396 169.49 199.106 163.251 194.595C157.012 190.084 154.814 200.472 160.514 202.314" stroke="black" stroke-width="2"/>
<path d="M160.753 209.995C160.6 209.868 160.455 209.734 160.317 209.591C157.212 206.343 156.65 212.867 159.91 214.786L160.33 215.035C160.55 215.129 160.786 215.239 161.018 215.358C161.128 215.387 161.251 215.436 161.364 215.468C164.311 216.76 167.448 217.588 170.537 218.431C167.481 217.433 164.434 216.45 161.364 215.468C161.099 215.358 160.847 215.248 160.582 215.122C160.501 215.088 160.416 215.062 160.33 215.045C160.218 214.994 160.088 215.006 159.988 215.077C159.914 215.137 159.86 215.218 159.833 215.31C159.332 216.512 159.739 218.027 160.379 219.103C161.051 220.24 162.204 221.116 163.342 221.74C166.401 223.455 169.959 224.47 173.393 225.077C174.031 225.209 174.683 225.252 175.332 225.203" stroke="black" stroke-width="2"/>
<path d="M203.039 232.606C203.039 232.606 192.509 214.66 191.336 199.057C190.618 189.4 187.782 187.354 185.752 187.215" stroke="black" stroke-width="2"/>
<path d="M182.612 201.691L184.661 192.252L185.753 187.212L193.85 149.841C194.093 148.714 193.813 147.537 193.089 146.64C192.365 145.743 191.274 145.221 190.121 145.22H141.7C139.926 145.219 138.386 146.442 137.987 148.17L128.452 189.057L121.492 218.89L120.846 221.685C120.586 222.818 120.855 224.008 121.578 224.918C122.301 225.829 123.399 226.36 124.562 226.363H173.219" stroke="black" stroke-width="2"/>
<path d="M122.578 64.5721C122.578 64.5721 125.14 53.7059 139.609 52.2648C154.078 50.8237 157.704 61.635 157.704 61.635L157.248 62.7239C157.248 62.7239 138.226 55.092 127.722 65.9841C127.722 65.9841 123.938 67.6998 122.578 64.5786" fill="#3FBDF1"/>
<path d="M126.481 188.789L103.976 183.167C102.513 182.804 100.97 183.298 99.989 184.444C99.0084 185.59 98.758 187.19 99.3419 188.581C99.9258 189.971 101.244 190.913 102.749 191.015L113.389 191.716" stroke="black" stroke-width="2"/>
<path d="M180.376 126.005C180.376 126.005 131.221 165.825 88.3315 118.267" stroke="black" stroke-width="2"/>
<path d="M86.7901 173.919C85.8692 164.51 81.2068 142.649 57.9072 143.259" stroke="black" stroke-width="2"/>
<path d="M199.643 143.253C199.643 143.253 195.252 144.461 193.569 147.414" stroke="black" stroke-width="2"/>
<path d="M21.2568 286.831H229.957" stroke="black" stroke-width="2"/>
<path d="M159.662 78.1428C161.629 79.7971 162.893 82.4984 162.893 85.555C162.893 90.6278 159.368 94.7313 155.012 94.7313C154.519 94.7287 154.028 94.6713 153.548 94.5601C158.621 90.6828 159.649 78.1428 159.649 78.1428" fill="#3FBDF1"/>
<path d="M130.966 98.6183C135.912 101.08 141.677 101.302 146.798 99.229C161.073 93.2676 160.527 75.6968 159.044 66.1457C158.926 65.3709 158.758 64.6045 158.54 63.8516C156.902 58.391 152.627 53.9418 146.995 52.6784C136.087 50.2131 126.113 56.3974 121.974 64.724" stroke="black" stroke-width="2"/>
<path d="M158.676 64.0228C158.676 64.0228 158.63 63.9582 158.537 63.8516C157.567 62.7595 151.955 57.5477 135.709 61.2925C133.845 61.7187 132.091 62.5323 130.562 63.6803C130.526 63.7011 130.493 63.7272 130.465 63.7579" stroke="black" stroke-width="2"/>
<path d="M115.373 90.4921H107.337C101.537 90.4921 96.939 85.1801 94.939 80.1945C92.1279 73.183 93.9276 66.0067 96.4576 59.1923C98.5772 53.4894 101.272 47.9481 104.816 42.9883C112.752 31.8895 124.733 25.6017 138.504 26.7649C139.725 26.8683 140.941 27.0191 142.152 27.2173C160.644 30.2157 173.112 45.6766 173.019 64.4009C172.98 68.7506 172.414 73.0797 171.332 77.293C170.317 81.3664 167.017 84.4719 162.889 85.2383" stroke="black" stroke-width="2"/>
<path d="M120.681 76.6466C120.46 76.3462 120.215 76.0641 119.948 75.8033C118.904 74.8212 118.031 73.6725 117.363 72.4042C116.565 70.8436 116.019 69.2054 116.284 67.3475C116.581 65.3507 117.751 62.9467 120.161 63.3991C121.302 63.6188 121.909 64.7109 122.565 65.5542C125.06 68.7854 128.494 65.5381 130.601 63.5865" stroke="black" stroke-width="2"/>
<path d="M159.661 78.1428C161.629 79.7971 162.892 82.4984 162.892 85.555C162.892 90.6278 159.367 94.7313 155.012 94.7313C154.519 94.7287 154.028 94.6713 153.548 94.5601" stroke="black" stroke-width="2"/>
<path d="M142.798 84.3691C144.563 85.5549 148.824 86.5275 147.968 83.012C146.941 78.8471 145.558 69.9487 154.026 69.2701C154.026 69.2701 157.755 69.4285 159.597 70.6951" stroke="black" stroke-width="2"/>
<path d="M145.987 91.3322C145.987 91.3322 141.722 93.5939 139.609 89.0865" stroke="black" stroke-width="2"/>
<path d="M137.338 75.3543C137.173 76.7857 137.732 78.0232 138.588 78.1234C139.445 78.2236 140.272 77.1541 140.44 75.713C140.608 74.2719 140.042 73.0473 139.189 72.9472C138.336 72.847 137.503 73.9165 137.338 75.3543Z" fill="black"/>
<path d="M151.225 76.1977C151.06 77.6259 151.619 78.8666 152.476 78.9668C153.332 79.0669 154.159 77.9974 154.324 76.5564C154.489 75.1153 153.93 73.8875 153.077 73.7905C152.224 73.6936 151.39 74.7599 151.225 76.1977Z" fill="black"/>
<path d="M142.798 70.1846C142.798 70.1846 140.188 66.1586 134.271 69.9778" stroke="black" stroke-width="2"/>
<path d="M147.387 98.964V121.297" stroke="black" stroke-width="2"/>
<path d="M59.0933 232.606C59.0933 232.606 68.2987 223.882 80.2538 214.189C90.6612 205.746 103.143 196.54 113.395 191.719C114.707 191.109 115.98 190.563 117.218 190.104C120.17 188.978 123.34 188.537 126.488 188.811C127.147 188.866 127.802 188.954 128.452 189.076" stroke="black" stroke-width="2"/>
<path d="M121.493 218.89C111.382 221.917 105.014 229.065 100.209 239.097C97.0137 245.76 94.2479 253.421 89.2235 258.946C84.3413 264.281 78.6287 268.962 72.0146 271.974C60.0143 277.434 45.2384 277.014 37.4418 265.14C32.1686 257.088 30.0942 247.085 29.0409 237.676C27.2315 221.323 32.9441 175.228 57.9076 143.256C65.9272 132.971 75.9307 124.157 88.3188 118.257C97.0137 114.128 106.843 111.426 117.984 110.661L121.105 94.5601" stroke="black" stroke-width="2"/>
<path d="M195.75 278.759V286.83" stroke="black" stroke-width="2"/>
<path d="M55.581 275.877V286.83" stroke="black" stroke-width="2"/>
<path d="M130.449 85.555C130.48 87.9773 129.62 90.3265 128.032 92.1562C127.142 92.5678 126.173 92.7806 125.192 92.7798C120.84 92.7798 117.311 88.6763 117.311 83.6034C117.28 81.1815 118.142 78.8328 119.731 77.0055C120.621 76.5917 121.59 76.3777 122.572 76.3787C126.924 76.3787 130.449 80.4854 130.449 85.555Z" fill="#3FBDF1"/>
<ellipse cx="122.578" cy="85.555" rx="7.87098" ry="9.17635" stroke="black" stroke-width="2"/>
</g>
<path fill-rule="evenodd" clip-rule="evenodd" d="M216.157 5.36197C206.241 2.40581 195.52 5.7143 188.994 13.7447C182.468 21.7751 181.422 32.9459 186.344 42.0482C191.265 51.1505 201.185 56.3918 211.478 55.328C221.771 54.2642 230.41 47.1049 233.366 37.1884C237.403 23.6477 229.698 9.39852 216.157 5.36197ZM203.304 48.4779C201.325 47.8873 200.199 45.8041 200.79 43.8251C201.381 41.8461 203.464 40.7207 205.443 41.3113C207.422 41.902 208.547 43.9851 207.957 45.9641C207.366 47.9431 205.283 49.0686 203.304 48.4779ZM216.073 22.7034C216.123 22.5806 216.174 22.4546 216.228 22.3254H216.218C216.315 22.0968 216.42 21.8591 216.527 21.6141C217.573 19.2234 218.924 16.1397 216.975 14.1086C215.029 12.0924 210.903 11.1909 208.716 13.2912C206.781 15.1317 206.544 18.7427 206.35 21.6861C206.297 22.494 206.247 23.2517 206.167 23.9086C205.565 28.0829 205.241 32.2926 205.197 36.5099C205.204 37.867 207.543 38.5649 208.289 37.434C211.369 32.7957 213.976 27.8609 216.073 22.7034Z" fill="#D7E8F0"/>
<path fill-rule="evenodd" clip-rule="evenodd" d="M233.857 152.061C230.226 155.752 229.177 161.266 231.199 166.033C233.22 170.799 237.914 173.878 243.091 173.833C248.268 173.789 252.908 170.63 254.848 165.83C256.787 161.03 255.644 155.534 251.951 151.906C246.911 146.954 238.811 147.023 233.857 152.061ZM249.909 167.838C249.184 168.575 248 168.586 247.263 167.861C246.526 167.137 246.515 165.952 247.24 165.215C247.709 164.738 248.396 164.547 249.043 164.715C249.69 164.883 250.199 165.383 250.378 166.027C250.556 166.671 250.378 167.362 249.909 167.838ZM241.984 156.95C241.755 156.652 241.527 156.356 241.301 156.061C241.172 155.897 241.042 155.719 240.909 155.537C240.16 154.509 239.314 153.35 237.909 153.751C236.561 154.138 235.198 155.751 235.614 157.211C235.975 158.497 237.517 159.449 238.774 160.223C239.118 160.436 239.441 160.635 239.712 160.824C241.416 162.069 243.203 163.198 245.059 164.203C245.66 164.52 246.516 163.648 246.193 163.053C245.033 160.911 243.485 158.901 241.984 156.95Z" fill="#3FBDF1"/>
<path fill-rule="evenodd" clip-rule="evenodd" d="M284.036 49.5539C287.596 45.1741 286.932 38.7378 282.552 35.1775C278.173 31.6172 271.736 32.2811 268.176 36.6604C264.615 41.0396 265.279 47.4761 269.658 51.037C271.761 52.7473 274.458 53.5519 277.154 53.2737C279.851 52.9956 282.326 51.6575 284.036 49.5539ZM270.087 38.2159C270.424 37.8015 270.956 37.598 271.483 37.6823C272.01 37.7665 272.452 38.1255 272.643 38.6241C272.834 39.1227 272.744 39.6852 272.407 40.0996C272.071 40.514 271.539 40.7175 271.012 40.6332C270.485 40.549 270.042 40.19 269.852 39.6914C269.661 39.1928 269.751 38.6303 270.087 38.2159ZM277.195 46.2684C277.404 46.4931 277.613 46.7168 277.82 46.9399V46.9206C277.929 47.0376 278.039 47.1641 278.152 47.2934C278.828 48.0672 279.594 48.9431 280.698 48.5167C281.742 48.1225 282.705 46.7364 282.266 45.6087C281.883 44.611 280.588 43.9725 279.532 43.4521C279.241 43.3085 278.968 43.1739 278.737 43.0432C277.283 42.1789 275.773 41.4125 274.217 40.7491C273.726 40.5423 273.099 41.2984 273.403 41.7476C274.489 43.3673 275.86 44.8374 277.195 46.2684Z" fill="#3FBDF1"/>
<path d="M182.45 116.935C186.056 123.075 185.891 127.446 184.954 134.532C184.579 137.23 187.484 139.056 189.839 137.699C210.651 125.743 230.076 135.198 254.891 129.336C264.003 127.197 275.364 122.764 283.151 115.637C285.735 111.8 287.115 107.28 287.115 102.654C287.115 83.2673 260.62 67.5286 227.944 67.5286C207.003 67.5286 188.605 73.9908 178.088 83.7261C178.088 83.7261 178.088 83.7261 178.059 83.7552C175.39 87.7521 173.923 92.1205 173.923 96.6796C173.907 103.636 179.08 111.178 182.45 116.935Z" fill="#D7E8F0"/>
<path fill-rule="evenodd" clip-rule="evenodd" d="M174 96.6797V97.1708C174.117 103.956 177.522 110.279 181.555 115.75C184.256 119.407 187.461 123.472 186.702 127.957C186.379 129.934 185.264 131.727 184.986 133.711C184.708 135.695 185.765 138.17 187.768 138.274C189.041 138.338 190.124 137.434 191.132 136.658C197.093 132.038 204.841 130.309 212.376 130.005C219.911 129.702 227.437 130.697 234.975 130.91C245.844 131.233 256.885 129.863 266.924 125.695C275.919 121.966 284.162 115.847 289.574 107.672C294.892 99.6458 291.749 87.9912 286.075 81.012C280.756 74.4626 273.05 70.2718 265.147 67.3186C243.889 59.383 219.627 59.5639 198.664 68.2588C192.44 70.8437 186.421 74.2041 181.755 79.0669C177.209 83.8037 174.049 90.1173 174 96.6797H174Z" stroke="black" stroke-width="2"/>
<circle cx="261.221" cy="96.2402" r="8.16178" fill="white"/>
<circle cx="234.823" cy="96.2402" r="8.16178" fill="white"/>
<circle cx="207.911" cy="96.2402" r="8.16178" fill="white"/>
</svg>
